<?xml version="1.0" standalone="no"?>
<!DOCTYPE svg PUBLIC "-//W3C//DTD SVG 1.1//EN" "http://www.w3.org/Graphics/SVG/1.1/DTD/svg11.dtd" >
<svg>
<metadata>
Created by FontForge 20090914 at Tue Oct 26 20:03:05 2021
 By www-data
Copyright &#194;&#169; 2016 by FontfabricLLC. All rights reserved.
</metadata>
<defs>
<font id="UniNeueLight" horiz-adv-x="548" >
  <font-face 
    font-family="Uni Neue Light"
    font-weight="300"
    font-stretch="normal"
    units-per-em="1000"
    panose-1="0 0 0 0 0 0 0 0 0 0"
    ascent="750"
    descent="-250"
    x-height="514"
    cap-height="715"
    bbox="-218.335 -229 1038 968.001"
    underline-thickness="50"
    underline-position="-175"
    unicode-range="U+0020-U+25CA"
  />
<missing-glyph horiz-adv-x="237" 
 />
    <glyph glyph-name=".notdef" horiz-adv-x="237" 
 />
    <glyph glyph-name="space" unicode=" " horiz-adv-x="237" 
 />
    <glyph glyph-name="exclam" unicode="!" horiz-adv-x="213" 
d="M116 148h-18c-4.66699 0 -7 2 -7 6l-1 396v159c0 4 2 6 6 6h21c4 0 6 -2 6 -6v-159l-1 -396c0 -4 -2 -6 -6 -6zM134 24c0 -8 -2.5 -14.5 -7.5 -19.5s-11.5 -7.5 -19.5 -7.5s-14.5 2.5 -19.5 7.5s-7.5 11.5 -7.5 19.5s2.5 14.667 7.5 20s11.5 8 19.5 8
s14.5 -2.66699 19.5 -8s7.5 -12 7.5 -20z" />
    <glyph glyph-name="quotedbl" unicode="&#x22;" horiz-adv-x="262" 
d="M109 709l-20 -176c0 -4 -2.33301 -6 -7 -6h-14c-4 0 -6 2.33301 -6 7l13 175c0 4 2 6 6 6h23c3.33301 0 5 -2 5 -6zM207 709l-20 -176c0 -4 -2.66699 -6 -8 -6h-13c-4 0 -6 2.33301 -6 7l12 175c0 4 2.33301 6 7 6h22c4 0 6 -2 6 -6z" />
    <glyph glyph-name="numbersign" unicode="#" horiz-adv-x="693" 
d="M146 0h-17.999c-4.66699 -0 -6.33398 2.33301 -5.00098 7l62 218h-143c-4.66699 0 -6.66699 2.33301 -6 7l5 15c1.33301 4 3.33301 6 6 6h145l60 214h-143c-5.33301 0 -7 2.33301 -5 7l4 16c1.33301 3.33301 3.66602 5 6.99902 5h145l61 215
c1.33301 3.33301 3.33301 5 6 5h18c4.66699 0 6.33398 -2.33301 5.00098 -7l-60 -213h192l61 215c1.33301 3.33301 3.33301 5 6 5h18c4.66699 0 6.33398 -2.33301 5.00098 -7l-60 -213h139c5.33301 0 7.33301 -2.66699 6 -8l-5 -15c-1.33301 -3.33301 -3.33301 -5 -6 -5
h-142l-60 -214h140c5.33301 0 7 -2.66699 5 -8l-4 -15c-2 -3.33301 -4.33301 -5 -7 -5h-141l-63 -220c-1.33301 -3.33301 -3.33301 -5 -6 -5h-18c-4.66699 -0 -6.33398 2.33301 -5.00098 7l62 218h-192l-63 -220c-1.33301 -3.33301 -3.33301 -5 -6 -5zM282.001 467l-60 -214
h192l60 214h-192z" />
    <glyph glyph-name="dollar" unicode="$" horiz-adv-x="577" 
d="M287 377c30 -7.33301 53.333 -13.5049 70 -18.5049s37.334 -12.833 62.001 -23.5s43.5 -22.334 56.5 -35.001s24.5 -29.334 34.5 -50.001s15 -44.334 15 -71.001c0 -57.333 -19.833 -102.5 -59.5 -135.5s-93.5 -50.833 -161.5 -53.5v-80c0 -4.66699 -2.33301 -7 -7 -7
h-17c-4 0 -6 2.33301 -6 7v80c-75.333 2.66699 -147.333 35.334 -216 98.001c-4.66699 2.66699 -5 5.33398 -1 8.00098l10 15c2.66699 2.66699 5.66699 3 9 1c70 -61.333 142 -92 216 -92c60 0 108.5 13.833 145.5 41.5s55.5 66.5 55.5 116.5
c0 22.667 -4.33301 42.834 -13 60.501s-19 31.667 -31 42s-28.333 20 -49 29s-38.834 15.667 -54.501 20s-35.834 9.5 -60.501 15.5c-4 0.666992 -7 1.33398 -9 2.00098c-34.667 8 -63.667 16.333 -87 25s-46.166 20.334 -68.499 35.001s-39 33.334 -50 56.001
s-16.5 49.334 -16.5 80.001c0 56 20.5 99.833 61.5 131.5s93.833 48.5 158.5 50.5v74c0 4.66699 2 7 6 7h17c4.66699 0 7 -2.33301 7 -7v-74c69.333 -3.33301 136 -31 200 -83c2.66699 -2 3 -4.66699 1 -8l-10 -15c-2.66699 -2.66699 -5.66699 -3 -9 -1
c-62.667 50.667 -130.667 76.334 -204 77.001c-57.333 0 -104.333 -13.5 -141 -40.5s-55 -64.167 -55 -111.5c0 -48.667 16.5 -84.5 49.5 -107.5s83.5 -42.5 151.5 -58.5z" />
    <glyph glyph-name="percent" unicode="%" horiz-adv-x="752" 
d="M297 462c0 -32 -11.3291 -58.5 -33.9961 -79.5s-51.334 -31.5 -86.001 -31.5s-63.334 10.5 -86.001 31.5s-34 47.5 -34 79.5v141c0 34.667 11.167 62.667 33.5 84s51.166 32 86.499 32s64.166 -10.667 86.499 -32s33.5 -49.333 33.5 -84v-141zM120.004 0h-16.999
c-6 0 -7.66699 2.66699 -5 8l506 696c2 2.66699 4.66699 4 8 4h18c5.33301 0 6.66602 -2.66699 3.99902 -8l-506 -696c-2 -2.66699 -4.66699 -4 -8 -4zM83.0049 463c0 -24.667 8.83398 -45.334 26.501 -62.001s40.167 -25 67.5 -25s49.666 8.33301 66.999 25
s26 37.334 26 62.001v139c0 27.333 -8.5 49.5 -25.5 66.5s-39.5 25.5 -67.5 25.5s-50.667 -8.5 -68 -25.5s-26 -39.167 -26 -66.5v-139zM697.006 103c0 -32 -11.3311 -58.5 -33.998 -79.5s-51.334 -31.5 -86.001 -31.5c-34 0 -62.5 10.5 -85.5 31.5s-34.5 47.5 -34.5 79.5
v141c0 34.667 11.167 62.667 33.5 84s51.166 32 86.499 32c36 0 65 -10.667 87 -32s33 -49.333 33 -84v-141zM484.008 104c0 -24.667 8.66797 -45.334 26.001 -62.001s39.666 -25 66.999 -25s49.833 8.33301 67.5 25s26.5 37.334 26.5 62.001v139
c0 27.333 -8.66699 49.5 -26 66.5s-40 25.5 -68 25.5s-50.5 -8.5 -67.5 -25.5s-25.5 -39.167 -25.5 -66.5v-139z" />
    <glyph glyph-name="ampersand" unicode="&#x26;" horiz-adv-x="585" 
d="M442 96c-27.333 -35.333 -56.002 -61.833 -86.002 -79.5s-66.667 -26.5 -110 -26.5c-59.333 0 -107.166 16.167 -143.499 48.5s-54.5 76.833 -54.5 133.5c0 84 50 154.667 150 212c-64 78.667 -96 144 -96 196c0 43.333 14.667 78.333 44 105s69 40 119 40
c48.667 0 87 -12.833 115 -38.5s42 -59.5 42 -101.5c0 -38.667 -14.333 -74.5 -43 -107.5s-74 -66.833 -136 -101.5l196 -229c17.333 32 33.333 70 48 114c0.666992 4.66699 3.33398 6 8.00098 4l16 -6c4.66699 -2 6.33398 -5 5.00098 -9
c-16.667 -51.333 -35.334 -94 -56.001 -128l47 -53l54 -61c4.66699 -5.33301 3.66699 -8 -3 -8h-25c-4 -0 -6.66699 1.33301 -8 4zM79.998 172c0 -48 15.168 -85.167 45.501 -111.5s71.166 -39.5 122.499 -39.5c36.667 0 68.667 7.83301 96 23.5s53.333 40.834 78 75.501
l-205 240c-91.333 -50.667 -137 -113.334 -137 -188.001zM133.999 580c0 -26 7.16797 -52.668 21.501 -80.001s37.5 -60.666 69.5 -99.999c58 32 100 62.5 126 91.5s39 60.167 39 93.5s-10.833 60 -32.5 80s-52.834 30 -93.501 30c-41.333 0 -73.333 -10.5 -96 -31.5
s-34 -48.833 -34 -83.5z" />
    <glyph glyph-name="quotesingle" unicode="'" horiz-adv-x="163" 
d="M108 709l-20 -176c0 -4 -2.33301 -6 -7 -6h-13c-4 0 -6 2.33301 -6 7l12 175c0 4 2 6 6 6h23c3.33301 0 5 -2 5 -6z" />
    <glyph glyph-name="parenleft" unicode="(" horiz-adv-x="252" 
d="M223 -117h-21c-4.66699 0 -7.33398 1.33301 -8.00098 4c-92 150.667 -138 307 -138 469c0 162.667 46 318.667 138 468c0.666992 2.66699 3.33398 4 8.00098 4h21c5.33301 0 6.66602 -2.66699 3.99902 -8c-92.667 -145.333 -139 -300 -139 -464
c0 -164.667 46.333 -319.667 139 -465c2.66699 -5.33301 1.33398 -8 -3.99902 -8z" />
    <glyph glyph-name="parenright" unicode=")" horiz-adv-x="251" 
d="M48 -117h-21c-5.33301 0 -6.66602 2.66699 -3.99902 8c92.667 145.333 139 300.333 139 465c0 164 -46.333 318.667 -139 464c-2.66699 5.33301 -1.33398 8 3.99902 8h21c4.66699 0 7.33398 -1.33301 8.00098 -4c92 -149.333 138 -305.333 138 -468
c0 -162 -46 -318.333 -138 -469c-0.666992 -2.66699 -3.33398 -4 -8.00098 -4z" />
    <glyph glyph-name="asterisk" unicode="*" horiz-adv-x="459" 
d="M130 380l-13.999 10c-4 2.66699 -4.66699 5.66699 -2 9l91 126l-147 47c-4.66699 1.33301 -6.33398 4.33301 -5.00098 9l6 16c1.33301 4.66699 4 6.33398 8 5.00098l148 -48v155c0 4 2 6 6 6h17c4.66699 0 7 -2 7 -6v-156l147 48c4 1.33301 7 0 9 -4l5 -15
c1.33301 -4.66699 0 -7.66699 -4 -9l-148 -47l91 -126c2.66699 -2.66699 2.33398 -5.66699 -0.999023 -9l-14 -11c-2.66699 -2.66699 -5.33398 -2 -8.00098 2l-92 125l-91 -125c-2.66699 -2.66699 -5.66699 -3.33398 -9 -2.00098z" />
    <glyph glyph-name="plus" unicode="+" 
d="M290 349h190c4 0 6 -2.33301 6 -7v-18c0 -4 -2 -6 -6 -6h-190v-192c0 -4.66699 -2 -7 -6 -7h-19c-4.66699 0 -7 2.33301 -7 7v192h-190c-4 0 -6 2 -6 6v18c0 4.66699 2 7 6 7h190v191c0 4 2.33301 6 7 6h19c4 0 6 -2 6 -6v-191z" />
    <glyph glyph-name="comma" unicode="," horiz-adv-x="178" 
d="M112 64l-53.001 -166c-1.33301 -3.33301 -3.66602 -5 -6.99902 -5h-15c-4.66699 0 -6.66699 2.33301 -6 7l45 167c1.33301 3.33301 3.66602 5 6.99902 5h24c4.66699 0 6.33398 -2.66699 5.00098 -8z" />
    <glyph glyph-name="hyphen" unicode="-" horiz-adv-x="400" 
d="M324 292h-248c-4 0 -6 2 -6 6v18c0 4 2 6 6 6h248c4 0 6 -2 6 -6v-18c0 -4 -2 -6 -6 -6z" />
    <glyph glyph-name="period" unicode="." horiz-adv-x="168" 
d="M111 25c0 -8 -2.5 -14.5 -7.5 -19.5s-11.5 -7.5 -19.5 -7.5s-14.5 2.5 -19.5 7.5s-7.5 11.5 -7.5 19.5s2.5 14.5 7.5 19.5s11.5 7.5 19.5 7.5s14.5 -2.5 19.5 -7.5s7.5 -11.5 7.5 -19.5z" />
    <glyph glyph-name="slash" unicode="/" horiz-adv-x="396" 
d="M367 708l-306 -703c-1.33301 -3.33301 -3.66602 -5 -6.99902 -5h-21c-4 -0 -5.33301 2.33301 -4 7l307 703c1.33301 3.33301 3.66602 5 6.99902 5h20c4 0 5.33301 -2.33301 4 -7z" />
    <glyph glyph-name="zero" unicode="0" horiz-adv-x="607" 
d="M533 215c0 -69.333 -20.833 -124.166 -62.5 -164.499s-97.167 -60.5 -166.5 -60.5s-125 20.167 -167 60.5s-63 95.166 -63 164.499v282c0 71.333 20.833 127.166 62.5 167.499s97.5 60.5 167.5 60.5s125.667 -20.167 167 -60.5s62 -96.166 62 -167.499v-282zM106 215
c0 -60.667 17.667 -108.167 53 -142.5s83.666 -51.5 144.999 -51.5c60.667 0 108.667 17.167 144 51.5s53 81.833 53 142.5v281c0 62.667 -17.5 111.334 -52.5 146.001s-83.167 52 -144.5 52s-109.666 -17.333 -144.999 -52s-53 -83.334 -53 -146.001v-281z" />
    <glyph glyph-name="one" unicode="1" horiz-adv-x="323" 
d="M219 0h-19.001c-4.66699 0 -7 2 -7 6v669l-149 -95c-3.33301 -2 -6.33301 -1.66699 -9 1l-9 16c-1.33301 0.666992 -1.66602 2 -0.999023 4s1.66699 3.33301 3 4l166 107c4 2 7.66699 3 11 3h14c4.66699 0 7 -2 7 -6v-703c0 -4 -2.33301 -6 -7 -6z" />
    <glyph glyph-name="two" unicode="2" horiz-adv-x="543" 
d="M490 0h-441c-4 0 -6 2 -6 6v13c0 4 1 6.66699 3 8l161 171l80.5 86c17 18.667 37.5 42.5 61.5 71.5s41.333 52.5 52 70.5s20 37.833 28 59.5s12 42.5 12 62.5c0 39.333 -13.833 73.666 -41.5 102.999s-68.167 44 -121.5 44c-74 0 -140.333 -33.333 -199 -100
c-2.66699 -3.33301 -5.66699 -3.33301 -9 0l-11 14c-2 2.66699 -2 5.66699 0 9c62 71.333 135 107 219 107c62 0 110 -17.167 144 -51.5s51 -76.166 51 -125.499c0 -22 -4 -44.5 -12 -67.5s-17.167 -43.833 -27.5 -62.5s-28 -43 -53 -73l-63.5 -74l-83 -90l-142 -151h398
c4 0 6 -2 6 -6v-18c0 -4 -2 -6 -6 -6z" />
    <glyph glyph-name="three" unicode="3" horiz-adv-x="559" 
d="M502 210c0 -66 -20.9971 -119.169 -62.9971 -159.502s-98 -60.5 -168 -60.5c-49.333 0 -91.333 9 -126 27s-67.667 45 -99 81c-2.66699 2.66699 -2.66699 5.66699 0 9l12 12c3.33301 2 6.66602 1.33301 9.99902 -2c29.333 -32 59.166 -56.167 89.499 -72.5
s68.166 -24.5 113.499 -24.5c61.333 0 109.833 17.167 145.5 51.5s53.5 80.5 53.5 138.5s-17.833 103.5 -53.5 136.5s-86.5 49.5 -152.5 49.5c-20.667 0 -40 -1 -58 -3c-3.33301 0 -5.33301 1.33301 -6 4l-4 7c-1.33301 2.66699 -1 5.66699 1 9l252 272h-370c-4 0 -6 2 -6 6
v18c0 4 2 6 6 6h409c4.66699 0 7 -2 7 -6v-12c0 -1.33301 -1 -4 -3 -8l-247 -267h18c76.667 0.666992 135.667 -18.166 177 -56.499s62 -90.166 62 -155.499z" />
    <glyph glyph-name="four" unicode="4" horiz-adv-x="531" 
d="M410 0h-20c-4 0 -6 2 -6 6v190h-348c-4.66699 0 -7 2 -7 6v12c0 3.33301 1 6 3 8l283 489c2 2.66699 4.66699 4 8 4h23c4.66699 0 6 -2.66699 4 -8l-280 -481h314v175c0 4 2 6 6 6h20c4 0 6 -2 6 -6v-175h77c4.66699 0 7 -2 7 -6v-18c0 -4 -2.33301 -6 -7 -6h-77v-190
c0 -4 -2 -6 -6 -6z" />
    <glyph glyph-name="five" unicode="5" horiz-adv-x="566" 
d="M512 234c0 -73.333 -20.832 -132 -62.499 -176s-97.5 -66 -167.5 -66c-88 0 -160.333 35.333 -217 106c-2 3.33301 -1.66699 6 1 8l13 13c3.33301 3.33301 6.33301 3 9 -1c26.667 -32 55.167 -56 85.5 -72s66.5 -24 108.5 -24c61.333 0 109.666 18.833 144.999 56.5
s53 89.167 53 154.5c0 66.667 -17.167 116.167 -51.5 148.5s-80.5 48.5 -138.5 48.5c-70.667 0 -131 -25 -181 -75c-3.33301 -3.33301 -6.33301 -4 -9 -2l-20 7c-3.33301 1.33301 -5 3.33301 -5 6l13 343c0 4 2 6 6 6h378c4.66699 0 7 -2 7 -6v-18c0 -4 -2.33301 -6 -7 -6
h-353l-11 -294c52.667 46.667 114 70 184 70c66 0 119.167 -19.167 159.5 -57.5s60.5 -94.833 60.5 -169.5z" />
    <glyph glyph-name="six" unicode="6" horiz-adv-x="575" 
d="M107 331c15.333 36.667 40.998 64.8311 76.998 84.498s74.333 29.5 115 29.5c68.667 0 122.667 -19.5 162 -58.5s59 -94.833 59 -167.5c0 -70 -20.167 -125.667 -60.5 -167s-94.166 -62 -161.499 -62s-121.5 20.333 -162.5 61s-61.5 95.334 -61.5 164.001v290
c0 66.667 21.5 120 64.5 160s95.5 60 157.5 60c74.667 0 139.667 -25.333 195 -76c2 -2.66699 2 -5.66699 0 -9l-10 -13c-3.33301 -3.33301 -6.66602 -3.66602 -9.99902 -0.999023c-49.333 46 -107.333 69 -174 69c-54.667 0 -100 -17.333 -136 -52s-54 -80.667 -54 -138
v-174zM106.998 214.997c0 -60.667 17.167 -108.334 51.5 -143.001s80.833 -52 139.5 -52s104.834 17.667 138.501 53s50.5 84 50.5 146c0 63.333 -16.5 111.833 -49.5 145.5s-79.167 50.5 -138.5 50.5c-50.667 0 -95.334 -15.667 -134.001 -47s-58 -76.666 -58 -135.999v-17
z" />
    <glyph glyph-name="seven" unicode="7" horiz-adv-x="500" 
d="M138 0l-22 -0.000976562c-5.33301 0 -7 2.66699 -5 8l328 676h-407c-4.66699 0 -7 2 -7 6v19c0 4 2.33301 6 7 6h440c4.66699 0 7 -2 7 -6v-11c0 -3.33301 -0.666992 -5.66602 -2 -6.99902l-331 -686c-1.33301 -3.33301 -4 -5 -8 -5z" />
    <glyph glyph-name="eight" unicode="8" horiz-adv-x="597" 
d="M535 198c0 -61.333 -21.168 -111.333 -63.501 -150s-99.833 -58 -172.5 -58c-73.333 0 -131.166 19.167 -173.499 57.5s-63.5 88.5 -63.5 150.5c0 42.667 13.5 80.5 40.5 113.5s64.5 54.833 112.5 65.5c-44 11.333 -77 32 -99 62s-33 65.333 -33 106
c0 52.667 19.5 95.834 58.5 129.501s91.5 50.5 157.5 50.5s118.333 -16.833 157 -50.5s58 -76.834 58 -129.501c0 -40.667 -10.833 -76 -32.5 -106s-54.5 -50.667 -98.5 -62c48 -10.667 85.333 -32.5 112 -65.5s40 -70.833 40 -113.5zM94.999 200
c0 -52.667 17.8311 -95.833 53.498 -129.5s85.834 -50.5 150.501 -50.5s114.834 17 150.501 51s53.5 77 53.5 129c0 46.667 -18.5 85.167 -55.5 115.5s-86.5 45.5 -148.5 45.5s-111.5 -15.167 -148.5 -45.5s-55.5 -68.833 -55.5 -115.5zM114.997 545.001
c0 -45.333 15.667 -82.5 47 -111.5s77 -43.5 137 -43.5s105.5 14.5 136.5 43.5s46.5 66.167 46.5 111.5c0 46.667 -16.5 83.334 -49.5 110.001s-77.5 40 -133.5 40s-100.667 -13.333 -134 -40s-50 -63.334 -50 -110.001z" />
    <glyph glyph-name="nine" unicode="9" horiz-adv-x="575" 
d="M56 496c0 70 20 125.668 60 167.001s94 62 162 62c67.333 0 121.333 -20.333 162 -61s61 -95.334 61 -164.001v-290c0 -67.333 -21.5 -120.833 -64.5 -160.5s-95.5 -59.5 -157.5 -59.5c-78 0 -144 35 -198 105c-2 3.33301 -2 6 0 8l12 14
c2.66699 3.33301 5.66699 3.33301 9 0c48.667 -64.667 107.667 -97 177 -97c54 0 99.167 17.333 135.5 52s54.5 80.667 54.5 138v171c-16 -36 -42.167 -63.5 -78.5 -82.5s-74.5 -28.5 -114.5 -28.5c-69.333 0 -123.333 19.333 -162 58s-58 94.667 -58 168zM88 496.001
c0 -63.333 16.501 -111.834 49.501 -145.501s79.5 -50.5 139.5 -50.5c50 0 94.5 15.667 133.5 47s58.5 76 58.5 134v19c0 60.667 -17.333 108.334 -52 143.001s-81.334 52 -140.001 52c-58 0 -104 -17.667 -138 -53s-51 -84 -51 -146z" />
    <glyph glyph-name="colon" unicode=":" horiz-adv-x="199" 
d="M126 477c0 -18 -8.66699 -27 -26 -27c-8 0 -14.5 2.5 -19.5 7.5s-7.5 11.5 -7.5 19.5s2.5 14.5 7.5 19.5s11.5 7.5 19.5 7.5c17.333 0 26 -9 26 -27zM126 24c0 -17.333 -8.66699 -26 -26 -26c-18 0 -27 8.66699 -27 26c0 18 9 27 27 27c17.333 0 26 -9 26 -27z" />
    <glyph glyph-name="semicolon" unicode=";" horiz-adv-x="229" 
d="M80 -107h-15.002c-4.66699 0 -6.66699 2.33301 -6 7l45 168c1.33301 3.33301 3.33301 5 6 5h25c4.66699 0 6.33398 -2.33301 5.00098 -7l-53 -168c-1.33301 -3.33301 -3.66602 -5 -6.99902 -5zM149.998 477c0 -8 -2.5 -14.5 -7.5 -19.5s-11.5 -7.5 -19.5 -7.5
s-14.5 2.5 -19.5 7.5s-7.5 11.5 -7.5 19.5s2.5 14.5 7.5 19.5s11.5 7.5 19.5 7.5s14.5 -2.5 19.5 -7.5s7.5 -11.5 7.5 -19.5z" />
    <glyph glyph-name="less" unicode="&#x3c;" 
d="M473 139v-21.001c0 -2 -0.833008 -3.66699 -2.5 -5s-3.5 -1.33301 -5.5 0l-411 197c-3.33301 2 -5 4.66699 -5 8v22c0 3.33301 1.66699 6 5 8l411 198c5.33301 2.66699 8 1 8 -5v-22c0 -3.33301 -1.66699 -5.66602 -5 -6.99902l-383 -183l383 -182
c3.33301 -2 5 -4.66699 5 -8z" />
    <glyph glyph-name="equal" unicode="=" 
d="M480 406h-412c-4 0 -6 2 -6 6v19c0 4 2 6 6 6h412c4 0 6 -2 6 -6v-19c0 -4 -2 -6 -6 -6zM480 228h-412c-4 0 -6 2 -6 6v19c0 4 2 6 6 6h412c4 0 6 -2 6 -6v-19c0 -4 -2 -6 -6 -6z" />
    <glyph glyph-name="greater" unicode="&#x3e;" 
d="M494 310l-411 -196.999c-2 -1.33301 -3.83301 -1.33301 -5.5 0s-2.5 3 -2.5 5v21c0 3.33301 1.66699 6 5 8l383 182l-383 183c-3.33301 1.33301 -5 3.66602 -5 6.99902v22c0 6 2.66699 7.66699 8 5l411 -198c3.33301 -2 5 -4.66699 5 -8v-22
c0 -3.33301 -1.66699 -6 -5 -8z" />
    <glyph glyph-name="question" unicode="?" horiz-adv-x="447" 
d="M215 148l-18.998 -0.000976562c-4.66699 0 -7 2 -7 6v67c0 29.333 6.33301 55.333 19 78s27.834 41.834 45.501 57.501l53.5 46.5c18 15.333 33.333 34.5 46 57.5s19 48.833 19 77.5c0 44 -12.833 81.333 -38.5 112s-64.834 46 -117.501 46
c-62.667 0 -118.334 -25.667 -167.001 -77c-3.33301 -4.66699 -6 -4.33398 -8 0.999023l-11 14c-2 3.33301 -1.66699 6 1 8c49.333 55.333 111 83 185 83c59.333 0 105.5 -17.167 138.5 -51.5s49.5 -79.5 49.5 -135.5c0 -32 -6.33301 -60.333 -19 -85s-28 -45 -46 -61
l-53.5 -46.5c-17.667 -15 -32.834 -33.167 -45.501 -54.5s-19 -45.666 -19 -72.999v-64c0 -4 -2 -6 -6 -6zM232.002 24.999c0 -8 -2.5 -14.5 -7.5 -19.5s-11.5 -7.5 -19.5 -7.5c-17.333 0 -26 9 -26 27s8.66699 27 26 27c8 0 14.5 -2.5 19.5 -7.5s7.5 -11.5 7.5 -19.5z" />
    <glyph glyph-name="at" unicode="@" horiz-adv-x="942" 
d="M669 -55c-29.333 -16.667 -66.3359 -30.168 -111.003 -40.501s-89 -15.5 -133 -15.5c-115.333 0 -204.166 33.167 -266.499 99.5s-93.5 158.166 -93.5 275.499v96c0 124.667 32.167 216.667 96.5 276s164.833 89 301.5 89c163.333 0 297 -56.333 401 -169
c2 -2 3 -4.66699 3 -8v-308c0 -106.667 -40.667 -160 -122 -160c-28 0 -53.333 8 -76 24s-38.334 38.667 -47.001 68c-12 -30 -31.833 -53.167 -59.5 -69.5s-59.167 -24.5 -94.5 -24.5c-50.667 0 -93.5 17 -128.5 51s-52.5 77.333 -52.5 130v88
c0 52.667 16 94.834 48 126.501s74.667 47.5 128 47.5c64.667 0 122 -9.66699 172 -29c3.33301 -0.666992 5 -2.66699 5 -6v-256c0 -37.333 10.333 -67 31 -89s45.334 -33 74.001 -33c61.333 0.666992 92 44 92 130v307c-48.667 47.333 -102.5 84.5 -161.5 111.5
s-129.5 40.5 -211.5 40.5c-127.333 0 -220.666 -27 -279.999 -81s-89 -139.333 -89 -256v-96c0 -110 28.5 -195.167 85.5 -255.5s139.167 -90.5 246.5 -90.5c92 0 169.333 17.667 232 53c4.66699 2.66699 7.33398 1.66699 8.00098 -3l5 -16
c1.33301 -3.33301 0.333008 -5.66602 -3 -6.99902zM317.997 259.999c0 -46 14.668 -83 44.001 -111s64.666 -42 105.999 -42c38.667 0 71.667 11 99 33s41.333 49.667 42 83v248c-40 14 -88.333 21 -145 21c-44.667 0 -80.167 -13 -106.5 -39s-39.5 -61.333 -39.5 -106v-87z
" />
    <glyph glyph-name="A" unicode="A" horiz-adv-x="589" 
d="M39 0h-22.9971c-4.66699 -0 -6.33398 2.33301 -5.00098 7l263 703c1.33301 3.33301 3.33301 5 6 5h28c3.33301 0 5.66602 -1.66699 6.99902 -5l263 -703c1.33301 -4.66699 -0.333984 -7 -5.00098 -7h-23c-2.66699 0 -5 1.66699 -7 5l-81 219h-335l-82 -219
c-1.33301 -3.33301 -3.33301 -5 -6 -5zM293.003 674l-155 -419h313l-155 419h-3z" />
    <glyph glyph-name="B" unicode="B" horiz-adv-x="620" 
d="M535 542c0 -40 -10.5 -73.667 -31.5 -101s-50.167 -46.333 -87.5 -57c48 -9.33301 84.667 -30.166 110 -62.499s38 -73.5 38 -123.5c0 -62.667 -21.333 -111.334 -64 -146.001s-103.667 -52 -183 -52h-213c-4.66699 0 -7 2 -7 6v703c0 4 2.33301 6 7 6h213
c76 0 131.333 -16 166 -48s52 -73.667 52 -125zM131 31h186c70.667 0 124 14.5 160 43.5s54 70.167 54 123.5s-16.167 95 -48.5 125s-81.5 45 -147.5 45h-204v-337zM501 542c0 42 -14.167 76.167 -42.5 102.5s-75.5 39.5 -141.5 39.5h-186v-285h204
c52 0 92.667 12.5 122 37.5s44 60.167 44 105.5z" />
    <glyph glyph-name="C" unicode="C" horiz-adv-x="574" 
d="M539 72c-61.333 -54.667 -136.001 -81.999 -224.001 -81.999c-76 0 -135.333 21.667 -178 65s-64 100.666 -64 171.999v261c0 71.333 21.333 128.666 64 171.999s101.334 65 176.001 65c79.333 0 149.666 -24.667 210.999 -74c4.66699 -2.66699 5 -5.33398 1 -8.00098
l-11 -16c-2 -3.33301 -5 -3.66602 -9 -0.999023c-56.667 45.333 -121 68 -193 68c-66.667 0 -117.667 -18.833 -153 -56.5s-53 -87.5 -53 -149.5v-261c0 -62 18 -111.833 54 -149.5s87.333 -56.5 154 -56.5c78.667 0 147.667 25.667 207 77
c2.66699 2.66699 5.33398 2.33398 8.00098 -0.999023l12 -16c2 -3.33301 1.33301 -6.33301 -2 -9z" />
    <glyph glyph-name="D" unicode="D" horiz-adv-x="658" 
d="M341 0l-237 -0.00195312c-4.66699 0 -7 2 -7 6v703c0 4 2.33301 6 7 6h237c75.333 0 135 -22.167 179 -66.5s66 -105.166 66 -182.499v-220c0 -77.333 -22 -137.666 -66 -180.999s-103.667 -65 -179 -65zM131 683.998v-652h209c66.667 0 118.667 18.5 156 55.5
s56 89.833 56 158.5v220c0 68.667 -18.833 122.167 -56.5 160.5s-89.5 57.5 -155.5 57.5h-209z" />
    <glyph glyph-name="E" unicode="E" horiz-adv-x="563" 
d="M131 349v-318h378c4 0 6 -2 6 -6v-19c0 -4 -2 -6 -6 -6h-405c-4.66699 0 -7 2 -7 6v703c0 4 2.33301 6 7 6h390c4 0 6 -2 6 -6v-19c0 -4 -2 -6 -6 -6h-363v-304h342c4.66699 0 7 -2 7 -6v-19c0 -4 -2.33301 -6 -7 -6h-342z" />
    <glyph glyph-name="F" unicode="F" horiz-adv-x="545" 
d="M511 709v-19c0 -4 -2.33301 -6 -7 -6h-373v-315h345c4 0 6 -2 6 -6v-19c0 -4 -2 -6 -6 -6h-345v-332c0 -4 -2 -6 -6 -6h-21c-4.66699 0 -7 2 -7 6v703c0 4 2.33301 6 7 6h400c4.66699 0 7 -2 7 -6z" />
    <glyph glyph-name="G" unicode="G" horiz-adv-x="634" 
d="M564 86c-66.667 -64 -147.668 -95.999 -243.001 -95.999c-77.333 0 -138.166 21.833 -182.499 65.5s-66.5 101.167 -66.5 172.5v260c0 71.333 21.833 128.666 65.5 171.999s103.834 65 180.501 65c87.333 0 164 -26 230 -78c4.66699 -2 5 -5 1 -9l-11 -15
c-2 -3.33301 -5 -4 -9 -2c-60 48.667 -130.333 73 -211 73c-68 0 -120.5 -18.833 -157.5 -56.5s-55.5 -87.5 -55.5 -149.5v-260c0 -62 18.667 -111.833 56 -149.5s90.666 -56.5 159.999 -56.5c82.667 0 153.667 26.667 213 80v236h-210c-4 0 -6 2 -6 6v19c0 4 2 6 6 6h237
c4 0 6 -2 6 -6v-269c0 -3.33301 -1 -6 -3 -8z" />
    <glyph glyph-name="H" unicode="H" horiz-adv-x="673" 
d="M542 380v329c0 4 2.33301 6 7 6h20c4.66699 0 7 -2 7 -6v-703c0 -4 -2.33301 -6 -7 -6h-20c-4.66699 0 -7 2 -7 6v343h-411v-343c0 -4 -2 -6 -6 -6h-21c-4.66699 0 -7 2 -7 6v703c0 4 2.33301 6 7 6h21c4 0 6 -2 6 -6v-329h411z" />
    <glyph glyph-name="I" unicode="I" horiz-adv-x="228" 
d="M131 709v-703c0 -4 -2 -6 -6 -6h-21c-4.66699 0 -7 2 -7 6v703c0 4 2.33301 6 7 6h21c4 0 6 -2 6 -6z" />
    <glyph glyph-name="J" unicode="J" horiz-adv-x="490" 
d="M398 204c0 -142.667 -63.001 -214 -189.001 -214c-67.333 0 -130 27 -188 81c-3.33301 2 -3.66602 5 -0.999023 9l11 15c2 4 5 4.33301 9 1c53.333 -49.333 109.666 -74 168.999 -74c52.667 0 91.834 14.667 117.501 44s38.5 75.333 38.5 138v505c0 4 2 6 6 6h21
c4 0 6 -2 6 -6v-505z" />
    <glyph glyph-name="K" unicode="K" horiz-adv-x="603" 
d="M125 0h-21c-4.66699 0 -7 2 -7 6v703c0 4 2.33301 6 7 6h21c4 0 6 -2 6 -6v-393l399 395c2.66699 2.66699 5.66699 4 9 4h28c2.66699 0 4.5 -0.833008 5.5 -2.5s0.5 -3.5 -1.5 -5.5l-318 -315l337 -384c4 -5.33301 2.66699 -8 -4 -8h-28c-3.33301 -0 -6 1.33301 -8 4
l-320 365l-99 -97v-266c0 -4 -2 -6 -6 -6z" />
    <glyph glyph-name="L" unicode="L" horiz-adv-x="494" 
d="M475 0h-371c-4.66699 0 -7 2 -7 6v703c0 4 2.33301 6 7 6h21c4 0 6 -2 6 -6v-678h344c4 0 6 -2 6 -6v-19c0 -4 -2 -6 -6 -6z" />
    <glyph glyph-name="M" unicode="M" horiz-adv-x="840" 
d="M125 0h-20.999c-4.66699 0 -7 2 -7 6v703c0 4 2.33301 6 7 6h28c3.33301 0 6 -1.33301 8 -4l280 -495l281 495c0.666992 2.66699 3 4 7 4h28c4.66699 0 7 -2 7 -6v-703c0 -4 -2.33301 -6 -7 -6h-21c-4 0 -6 2 -6 6l1 657v1l-274 -485c-1.33301 -2.66699 -4 -4 -8 -4h-16
c-2.66699 0 -5.33398 1.33301 -8.00098 4l-274 485v-1l1 -657c0 -4 -2 -6 -6 -6z" />
    <glyph glyph-name="N" unicode="N" horiz-adv-x="699" 
d="M125 0h-20.999c-4.66699 0 -7 2 -7 6v703c0 4 2.33301 6 7 6h25c4 0 6.33301 -1.33301 7 -4l433 -659l-1 657c0 4 2.33301 6 7 6h20c4.66699 0 7 -2 7 -6v-703c0 -4 -2.33301 -6 -7 -6h-24c-4.66699 -0 -7.33398 1.33301 -8.00098 4l-433 657l1 -655c0 -4 -2 -6 -6 -6z
" />
    <glyph glyph-name="O" unicode="O" horiz-adv-x="665" 
d="M593 224c0 -68 -24.001 -124 -72.001 -168s-110.667 -66 -188 -66c-78 0 -141 22 -189 66s-72 100 -72 168v259c0 72 23.833 130.333 71.5 175s110.834 67 189.501 67c78 0 140.833 -22.333 188.5 -67s71.5 -103 71.5 -175v-259zM104.999 224
c0 -59.333 20.8311 -107.833 62.498 -145.5s96.834 -56.5 165.501 -56.5c68 0 122.833 18.833 164.5 56.5s62.5 86.167 62.5 145.5v259c0 63.333 -20.5 114.333 -61.5 153s-96.167 58 -165.5 58s-124.666 -19.333 -165.999 -58s-62 -89.667 -62 -153v-259z" />
    <glyph glyph-name="P" unicode="P" horiz-adv-x="611" 
d="M103 715l222 0.000976562c78 0 138.167 -19.333 180.5 -58s63.5 -92.334 63.5 -161.001c0 -69.333 -21.167 -123 -63.5 -161s-102.5 -57 -180.5 -57h-195v-272c0 -4 -2 -6 -6 -6h-21c-4 0 -6 2 -6 6v703c0 4 2 6 6 6zM130 310.001h192c70 0 123.167 16 159.5 48
s54.5 78 54.5 138c0 60.667 -18.167 107.167 -54.5 139.5s-89.5 48.5 -159.5 48.5h-192v-374z" />
    <glyph glyph-name="Q" unicode="Q" horiz-adv-x="666" 
d="M594 -21l-12.0029 -11.998c-2.66699 -2.66699 -5.66699 -2.33398 -9 0.999023l-71 74c-49.333 -34.667 -105.666 -52 -168.999 -52c-77.333 0 -140.166 22.5 -188.499 67.5s-72.5 101.167 -72.5 168.5v257c0 71.333 23.833 129.5 71.5 174.5s110.834 67.5 189.501 67.5
c78 0 140.833 -22.5 188.5 -67.5s71.5 -103.167 71.5 -174.5v-257c0 -66.667 -23 -121.334 -69 -164.001l70 -74c2.66699 -2.66699 2.66699 -5.66699 0 -9zM104.997 226.002c0 -58.667 20.999 -107.5 62.999 -146.5s97 -58.5 165 -58.5c54 0 102.667 15.333 146 46l-117 122
c-2 3.33301 -2 6.33301 0 9l12 12c2.66699 2.66699 5.66699 2.66699 9 0l118 -124c39.333 38 59 84.667 59 140v257c0 62.667 -20.667 113.5 -62 152.5s-96.333 58.5 -165 58.5c-69.333 0 -124.666 -19.5 -165.999 -58.5s-62 -89.833 -62 -152.5v-257z" />
    <glyph glyph-name="R" unicode="R" horiz-adv-x="618" 
d="M568 0h-27c-4.66699 -0 -7.33398 1.33301 -8.00098 4l-231 300h-171v-298c0 -4 -2 -6 -6 -6h-21c-4.66699 0 -7 2 -7 6v703c0 4 2.33301 6 7 6h219c74 0 132.167 -18.167 174.5 -54.5s63.5 -86.833 63.5 -151.5c0 -60.667 -19.333 -109 -58 -145
s-92.667 -55.667 -162 -59l231 -297c2.66699 -5.33301 1.33398 -8 -3.99902 -8zM323 684h-192v-349h192c65.333 0 115.833 15 151.5 45s53.5 73 53.5 129s-18 99.167 -54 129.5s-86.333 45.5 -151 45.5z" />
    <glyph glyph-name="S" unicode="S" horiz-adv-x="593" 
d="M546 179c0 -60 -22.1689 -106.5 -66.502 -139.5s-103.833 -49.5 -178.5 -49.5c-49.333 0 -92.833 7.33301 -130.5 22s-76.167 38.667 -115.5 72c-2.66699 2.66699 -3 5.66699 -1 9l12 15c3.33301 3.33301 6.33301 4 9 2c70.667 -58.667 146 -88 226 -88
c64 0 115.167 13.5 153.5 40.5s57.5 65.833 57.5 116.5c0 45.333 -16 80.333 -48 105s-88.667 46.334 -170 65.001c-79.333 18 -138.666 43.167 -177.999 75.5s-59 74.833 -59 127.5c0 56.667 22.167 99.667 66.5 129s100.5 44 168.5 44c88 0 165.667 -26.667 233 -80
c4 -2 4.33301 -4.66699 1 -8l-10 -16c-2.66699 -3.33301 -5.66699 -4 -9 -2c-60.667 48.667 -133.667 73.667 -219 75c-56.667 0 -103.667 -12.333 -141 -37s-56 -60.334 -56 -107.001c0 -44 16.833 -78.833 50.5 -104.5s86.834 -47.167 159.501 -64.5
c89.333 -21.333 152.5 -47 189.5 -77s55.5 -71.667 55.5 -125z" />
    <glyph glyph-name="T" unicode="T" horiz-adv-x="534" 
d="M18 715h497c4.66699 0 7 -2 7 -6v-19c0 -4 -2.33301 -6 -7 -6h-233v-678c0 -4 -2 -6 -6 -6h-21c-4.66699 0 -7 2 -7 6v678h-230c-4 0 -6 2 -6 6v19c0 4 2 6 6 6z" />
    <glyph glyph-name="U" unicode="U" horiz-adv-x="673" 
d="M582 241c0 -75.333 -21.832 -135.666 -65.499 -180.999s-103.834 -68 -180.501 -68s-136.667 22.667 -180 68s-65 105.666 -65 180.999v468c0 4 2.33301 6 7 6h21c4 0 6 -2 6 -6v-467c0 -67.333 18.333 -120.666 55 -159.999s88.667 -59 156 -59s119.5 19.667 156.5 59
s55.5 92.666 55.5 159.999v467c0 4 2 6 6 6h21c4.66699 0 7 -2 7 -6v-468z" />
    <glyph glyph-name="V" unicode="V" horiz-adv-x="602" 
d="M317 0h-31.002c-3.33301 0 -6 1.66699 -8 5l-268 703c-1.33301 4.66699 0.333984 7 5.00098 7h22c3.33301 0 6 -1.66699 8 -5l255 -672h2l256 672c1.33301 3.33301 3.66602 5 6.99902 5h22c4.66699 0 6.33398 -2.33301 5.00098 -7l-268 -703
c-1.33301 -3.33301 -3.66602 -5 -6.99902 -5z" />
    <glyph glyph-name="W" unicode="W" horiz-adv-x="932" 
d="M253 0h-27.001c-2.66699 0 -5 1.66699 -7 5l-204 703c-1.33301 4.66699 0.333984 7 5.00098 7h23c2.66699 0 4.66699 -1.66699 6 -5l190 -668h1l208 654c1.33301 4 3.33301 6 6 6h23c2 0 4.33301 -2 7 -6l208 -654l190 668c1.33301 3.33301 3.66602 5 6.99902 5h22
c5.33301 0 7.33301 -2.33301 6 -7l-205 -703c-1.33301 -3.33301 -3.33301 -5 -6 -5h-27c-3.33301 0 -5.66602 1.66699 -6.99902 5l-206 648h-1c-16 -55.333 -84.667 -271.333 -206 -648c-1.33301 -3.33301 -3.33301 -5 -6 -5z" />
    <glyph glyph-name="X" unicode="X" horiz-adv-x="572" 
d="M307 361l241 -353c4 -5.33301 3 -8 -3 -8h-27c-4 -0 -6.33301 1.33301 -7 4l-224 331l-226 -331c-0.666992 -2.66699 -3 -4 -7 -4h-26c-6.66699 0 -8 2.66699 -4 8l242 353l-231 346c-4 5.33301 -2.66699 8 4 8h26c4 0 6.33301 -1.33301 7 -4l215 -324l213 324
c2 2.66699 4.66699 4 8 4h26c6 0 7 -2.66699 3 -8z" />
    <glyph glyph-name="Y" unicode="Y" horiz-adv-x="536" 
d="M278 0h-21.001c-4 0 -6 2 -6 6v277l-241 424c-2 5.33301 -0.333008 8 5 8h24c4 0 6.33301 -1.33301 7 -4l222 -395l222 395c0.666992 2.66699 3.33398 4 8.00098 4h23c5.33301 0 7 -2.66699 5 -8l-241 -424v-277c0 -4 -2.33301 -6 -7 -6z" />
    <glyph glyph-name="Z" unicode="Z" horiz-adv-x="553" 
d="M513 0h-475c-4 0 -6 2 -6 6v12c0 2.66699 1 5 3 7l433 659h-415c-4 0 -6 2 -6 6v19c0 4 2 6 6 6h453c4 0 6 -2 6 -6v-13c0 -1.33301 -0.666992 -4 -2 -8l-432 -657h435c4 0 6 -2 6 -6v-19c0 -4 -2 -6 -6 -6z" />
    <glyph glyph-name="bracketleft" unicode="[" horiz-adv-x="248" 
d="M123 798v-885h89c4 0 6 -2 6 -6v-18c0 -4 -2 -6 -6 -6h-114c-4.66699 0 -7 2 -7 6v933c0 4 2.33301 6 7 6h114c4 0 6 -2 6 -6v-18c0 -4 -2 -6 -6 -6h-89z" />
    <glyph glyph-name="backslash" unicode="\" horiz-adv-x="396" 
d="M335 5l-306 703c-1.33301 4.66699 0 7 4 7h20c3.33301 0 5.66602 -1.66699 6.99902 -5l307 -703c1.33301 -4.66699 0 -7 -4 -7h-21c-3.33301 0 -5.66602 1.66699 -6.99902 5z" />
    <glyph glyph-name="bracketright" unicode="]" horiz-adv-x="248" 
d="M125 -87v885h-89c-4 0 -6 2 -6 6v18c0 4 2 6 6 6h114c4.66699 0 7 -2 7 -6v-933c0 -4 -2.33301 -6 -7 -6h-114c-4 0 -6 2 -6 6v18c0 4 2 6 6 6h89z" />
    <glyph glyph-name="asciicircum" unicode="^" 
d="M87 578h-28.002c-6 0 -7 2.66699 -3 8l200 232c2 2.66699 4.66699 4 8 4h20c3.33301 0 6 -1.33301 8 -4l200 -232c4 -5.33301 3 -8 -3 -8h-28c-3.33301 0 -5.66602 1.33301 -6.99902 4l-180 211l-180 -211c-1.33301 -2.66699 -3.66602 -4 -6.99902 -4z" />
    <glyph glyph-name="underscore" unicode="_" horiz-adv-x="554" 
d="M528 -17v-17c0 -4 -2 -6 -6 -6h-490c-4 0 -6 2 -6 6v17c0 4.66699 2 7 6 7h490c4 0 6 -2.33301 6 -7z" />
    <glyph glyph-name="grave" unicode="`" horiz-adv-x="128" 
d="M95 599h-14.9971c-2.66699 0 -5.33398 1.33301 -8.00098 4l-90 134c-3.33301 5.33301 -2.33301 8 3 8h25c3.33301 0 5.66602 -1.33301 6.99902 -4l83 -134c3.33301 -5.33301 1.66602 -8 -5.00098 -8z" />
    <glyph glyph-name="a" unicode="a" horiz-adv-x="500" 
d="M66 473c48.667 34 108.333 51 179 51c61.333 0 107.5 -16.167 138.5 -48.5s46.5 -77.5 46.5 -135.5v-308c0 -4 -1.66699 -6.33301 -5 -7c-54.667 -23.333 -115 -35 -181 -35c-60 0 -109.167 14.333 -147.5 43s-57.5 67.667 -57.5 117c0 50 18 88.5 54 115.5
s86.333 40.5 151 40.5c46.667 0 98 -6.33301 154 -19v52c0 103.333 -51.333 155 -154 155c-60 0 -113.333 -14.667 -160 -44c-3.33301 -2 -6.33301 -1.66699 -9 1l-9 14c-1.33301 4 -1.33301 6.66699 0 8zM70.999 150c0 -39.333 16.001 -71 48.001 -95s73.667 -36 125 -36
c53.333 0 104.666 9.33301 153.999 28v212c-52 12 -103.333 18 -154 18c-56 0 -98.833 -11 -128.5 -33s-44.5 -53.333 -44.5 -94z" />
    <glyph glyph-name="b" unicode="b" horiz-adv-x="532" 
d="M108 478c47.333 30.667 99.333 46 156 46c67.333 0 119.333 -17.833 156 -53.5s55 -89.167 55 -160.5v-107c0 -71.333 -18.5 -124.666 -55.5 -159.999s-89.167 -53 -156.5 -53c-64 0 -124.667 11.667 -182 35c-3.33301 1.33301 -5 3.66602 -5 6.99902v677c0 4 2 6 6 6h20
c4 0 6 -2 6 -6v-231zM263 19c119.333 0 179 61.333 179 184v107c0 122.667 -59.667 184 -179 184c-56.667 0 -108.334 -16 -155.001 -48v-400c50.667 -18 102.334 -27 155.001 -27z" />
    <glyph glyph-name="c" unicode="c" horiz-adv-x="463" 
d="M431 52c-52.667 -41.333 -110.667 -62 -174 -62c-60.667 0 -109 17.5 -145 52.5s-54 79.167 -54 132.5v164c0 53.333 18 97.5 54 132.5s84.333 52.5 145 52.5c57.333 0 110.666 -17.667 159.999 -53c3.33301 -2.66699 4 -5.66699 2 -9l-9 -14
c-3.33301 -2.66699 -6.33301 -3 -9 -1c-44 31.333 -92.333 47 -145 47c-52 0 -92.667 -14.667 -122 -44s-44 -66.333 -44 -111v-164c0 -44.667 14.833 -81.834 44.5 -111.501s70.167 -44.5 121.5 -44.5c54.667 0 107.334 18.667 158.001 56c4 2.66699 7 2.33398 9 -0.999023
l10 -13c2.66699 -4 2 -7 -2 -9z" />
    <glyph glyph-name="d" unicode="d" horiz-adv-x="532" 
d="M424 478v231c0 4 2 6 6 6h19c4.66699 0 7 -2 7 -6v-677c0 -3.33301 -1.66699 -5.66602 -5 -6.99902c-57.333 -23.333 -118 -35 -182 -35c-67.333 0 -119.5 17.667 -156.5 53s-55.5 88.666 -55.5 159.999v107c0 71.333 18.333 124.833 55 160.5s88.667 53.5 156 53.5
c56.667 0 108.667 -15.333 156 -46zM89 203c0 -122.667 60 -184 180 -184c52.667 0 104.334 9 155.001 27v400c-46.667 32 -98.334 48 -155.001 48c-120 0 -180 -61.333 -180 -184v-107z" />
    <glyph glyph-name="e" unicode="e" horiz-adv-x="507" 
d="M456 334l0.000976562 -89.999c0 -4 -2 -6 -6 -6h-360v-66c0 -46.667 16.167 -83.834 48.5 -111.501s72.166 -41.5 119.499 -41.5c61.333 0 118 23.333 170 70c3.33301 2 6 1.66699 8 -1l11 -13c3.33301 -3.33301 3 -6 -1 -8c-55.333 -51.333 -118.333 -77 -189 -77
c-55.333 0 -102.333 16.5 -141 49.5s-58 77.167 -58 132.5v162c0 59.333 18.167 105.833 54.5 139.5s84.5 50.5 144.5 50.5s108.167 -16.833 144.5 -50.5s54.5 -80.167 54.5 -139.5zM424.001 334.001c0 50 -15.167 89.167 -45.5 117.5s-70.833 42.5 -121.5 42.5
c-51.333 0 -92 -14 -122 -42s-45 -67.333 -45 -118v-68h334v68z" />
    <glyph glyph-name="f" unicode="f" horiz-adv-x="306" 
d="M289 693c-18.667 2 -37.666 3 -56.999 3c-40 0 -70.5 -11.667 -91.5 -35s-31.5 -56.333 -31.5 -99v-49h175c4 0 6 -2 6 -6v-17c0 -4.66699 -2 -7 -6 -7h-175v-477c0 -4 -2 -6 -6 -6h-20c-4 0 -6 2 -6 6v556c0 50.667 13.667 90.5 41 119.5s64.666 43.5 111.999 43.5
c20.667 0 41 -1 61 -3c4 -1.33301 6 -3.66602 6 -6.99902v-17c0 -4.66699 -2.66699 -6.33398 -8 -5.00098z" />
    <glyph glyph-name="g" unicode="g" horiz-adv-x="530" 
d="M454 -15c0 -56.667 -16.334 -101.668 -49.001 -135.001s-81.667 -50 -147 -50c-70 0 -132.667 26.667 -188 80c-2 2 -2 4.66699 0 8l10 14c2.66699 3.33301 5.33398 3.66602 8.00098 0.999023c52 -48.667 108.667 -73 170 -73c56 0 97.5 13.833 124.5 41.5
s40.167 65.834 39.5 114.501v70c-48 -24.667 -99.333 -37 -154 -37c-66 0 -117.667 17 -155 51s-56 83.333 -56 148v108c0 66.667 18.667 116.334 56 149.001s89 49 155 49s126.333 -12 181 -36c3.33301 -0.666992 5 -3 5 -7v-496zM88.999 217.999
c0 -112.667 60 -169 180 -169c54.667 0 105.667 12.667 153 38v381c-50 17.333 -101.667 26 -155 26c-118.667 0 -178 -56 -178 -168v-108z" />
    <glyph glyph-name="h" unicode="h" 
d="M109 486c52 25.333 104.332 38 156.999 38c66.667 0 118.334 -17 155.001 -51s55 -84.667 55 -152v-315c0 -4 -2 -6 -6 -6h-19c-4.66699 0 -7 2 -7 6v315c0 115.333 -59.667 173 -179 173c-55.333 0 -107.333 -13 -156 -39v-449c0 -4 -2 -6 -6 -6h-20c-4 0 -6 2 -6 6v703
c0 4 2 6 6 6h20c4 0 6 -2 6 -6v-223z" />
    <glyph glyph-name="i" unicode="i" horiz-adv-x="186" 
d="M103 0h-20c-4 0 -6 2 -6 6v501c0 4.66699 2 7 6 7h20c4 0 6 -2.33301 6 -7v-501c0 -4 -2 -6 -6 -6zM119 652c0 -7.33301 -2.5 -13.333 -7.5 -18s-11.167 -7 -18.5 -7s-13.5 2.33301 -18.5 7s-7.5 10.667 -7.5 18c0 8 2.5 14.333 7.5 19s11.167 7 18.5 7
s13.5 -2.33301 18.5 -7s7.5 -11 7.5 -19z" />
    <glyph glyph-name="j" unicode="j" horiz-adv-x="194" 
d="M117 -35c0 -110 -41.999 -165 -125.999 -165c-20 0 -37 1.33301 -51 4c-4 1.33301 -6 4 -6 8v16c0 4 1.33301 6 4 6h2c15.333 -2.66699 31.666 -4 48.999 -4c64 0 96 45 96 135v542c0 4.66699 2 7 6 7h20c4 0 6 -2.33301 6 -7v-542zM127.001 652
c0 -7.33301 -2.5 -13.333 -7.5 -18s-11.167 -7 -18.5 -7s-13.5 2.33301 -18.5 7s-7.5 10.667 -7.5 18c0 8 2.5 14.333 7.5 19s11.167 7 18.5 7s13.5 -2.33301 18.5 -7s7.5 -11 7.5 -19z" />
    <glyph glyph-name="k" unicode="k" horiz-adv-x="476" 
d="M459 0h-26c-3.33301 -0 -6 1.33301 -8 4l-237 267l-79 -69v-196c0 -4 -2 -6 -6 -6h-20c-4 0 -6 2 -6 6v703c0 4 2 6 6 6h20c4 0 6 -2 6 -6v-467l304 269c1.33301 2 4 3 8 3h27c6 0 7 -2.66699 3 -8l-240 -214l251 -284c4 -5.33301 3 -8 -3 -8z" />
    <glyph glyph-name="l" unicode="l" horiz-adv-x="270" 
d="M258 -6c-22.667 -2.66699 -42 -4 -58 -4c-84.667 0 -127 55 -127 165v554c0 4 2 6 6 6h20c4 0 6 -2 6 -6v-557c0 -88 32 -132 96 -132c20 0 39 1.33301 57 4c4 0 6 -1.66699 6 -5v-17c0 -4 -2 -6.66699 -6 -8z" />
    <glyph glyph-name="m" unicode="m" horiz-adv-x="803" 
d="M377 474c48.667 33.333 102 49.999 160 49.999c60 0 107.333 -16.5 142 -49.5s52 -79.5 52 -139.5v-329c0 -4 -2.33301 -6 -7 -6h-19c-4 0 -6 2 -6 6v330c0 50.667 -14.333 89.667 -43 117s-68.667 41 -120 41c-53.333 0 -100.666 -14.333 -141.999 -43
c18.667 -31.333 28 -69.666 28 -114.999v-330c0 -4 -2 -6 -6 -6h-20c-4 0 -6 2 -6 6v330c0 105.333 -49.333 158 -148 158c-43.333 0 -88 -9.33301 -134 -28v-460c0 -4 -2 -6 -6 -6h-20c-4 0 -6 2 -6 6v473c0 3.33301 1.66699 6 5 8c53.333 24.667 106.666 37 159.999 37
c58.667 0 104 -16.667 136 -50z" />
    <glyph glyph-name="n" unicode="n" horiz-adv-x="547" 
d="M102 0h-20.001c-4 0 -6 2 -6 6v472c0 3.33301 1.66699 6 5 8c56.667 25.333 117.334 38 182.001 38c67.333 0 119.5 -17 156.5 -51s55.5 -84.333 55.5 -151v-316c0 -4 -2 -6 -6 -6h-19c-4.66699 0 -7 2 -7 6v315c0 57.333 -15.5 100.5 -46.5 129.5
s-75.5 43.5 -133.5 43.5c-53.333 0 -105 -9.66699 -155 -29v-459c0 -4 -2 -6 -6 -6z" />
    <glyph glyph-name="o" unicode="o" horiz-adv-x="532" 
d="M474 178c0 -55.333 -18.167 -100.5 -54.5 -135.5s-87.5 -52.5 -153.5 -52.5c-65.333 0 -116.333 17.667 -153 53s-55 80.333 -55 135v158c0 54.667 18.333 99.667 55 135s87.667 53 153 53c66 0 117.167 -17.667 153.5 -53s54.5 -80.333 54.5 -135v-158zM90 178
c0 -46.667 15.167 -84.834 45.5 -114.501s73.833 -44.5 130.5 -44.5s100.167 14.833 130.5 44.5s45.5 67.834 45.5 114.501v158c0 46 -15.167 83.833 -45.5 113.5s-73.833 44.5 -130.5 44.5c-56 0 -99.333 -14.833 -130 -44.5s-46 -67.5 -46 -113.5v-158z" />
    <glyph glyph-name="p" unicode="p" horiz-adv-x="532" 
d="M80 488c57.333 24 118.333 36.001 183 36.001c67.333 0 119.5 -17.667 156.5 -53s55.5 -89 55.5 -161v-106c0 -71.333 -18.333 -124.833 -55 -160.5s-88.667 -53.5 -156 -53.5c-58.667 0 -110.667 15 -156 45v-219c0 -4 -2 -6 -6 -6h-20c-4 0 -6 2 -6 6v665
c0 3.33301 1.33301 5.66602 4 6.99902zM263 19.001c119.333 0 179 61.667 179 185v106c0 123.333 -59.667 185 -179 185c-54 0 -105.667 -9.33301 -155 -28v-399c48 -32.667 99.667 -49 155 -49z" />
    <glyph glyph-name="q" unicode="q" horiz-adv-x="532" 
d="M57 310c0 72 18.5 125.667 55.5 161s89.167 53 156.5 53c64 0 124.667 -11.667 182 -35c3.33301 -1.33301 5 -4 5 -8v-665c0 -4 -2.33301 -6 -7 -6h-19c-4 0 -6 2 -6 6v219c-48 -30 -100 -45 -156 -45c-67.333 0 -119.333 17.833 -156 53.5s-55 89.167 -55 160.5v106z
M89 204c0 -123.333 60 -185 180 -185c54.667 0 106.334 16 155.001 48v401c-50.667 18 -102.334 27 -155.001 27c-120 0 -180 -61.667 -180 -185v-106z" />
    <glyph glyph-name="r" unicode="r" horiz-adv-x="373" 
d="M102 0l-20.001 0.00195312c-4 0 -6 2 -6 6v476c0 3.33301 1.66699 5.66602 5 6.99902c48.667 23.333 104.667 35 168 35c28.667 0 62.334 -3 101.001 -9c4 -0.666992 6 -3 6 -7v-17c0 -4.66699 -2 -6.33398 -6 -5.00098c-33.333 5.33301 -66.333 8 -99 8
c-51.333 0 -99 -8.66699 -143 -26v-462c0 -4 -2 -6 -6 -6z" />
    <glyph glyph-name="s" unicode="s" horiz-adv-x="461" 
d="M422 134c0 -43.333 -16.4961 -78.1621 -49.4961 -104.495s-79.5 -39.5 -139.5 -39.5c-72 0 -135.333 21.333 -190 64c-4 2 -4.66699 5 -2 9l10 15c2.66699 3.33301 5.33398 3.66602 8.00098 0.999023c53.333 -40 111.333 -60 174 -60c47.333 0 85.333 10 114 30
s43 48 43 84c0 16 -3.33301 30 -10 42s-14.334 21.667 -23.001 29s-21.334 14 -38.001 20s-30.167 10.333 -40.5 13s-25.5 6 -45.5 10c-19.333 4 -36.333 8 -51 12s-30.834 10 -48.501 18s-32.167 17 -43.5 27s-21 22.667 -29 38s-12 32.666 -12 51.999
c0 40 16.5 71.667 49.5 95s75.167 35 126.5 35c61.333 0 120 -16.333 176 -49c3.33301 -2 4 -4.66699 2 -8l-9 -15c-1.33301 -4 -4 -4.66699 -8 -2c-52 29.333 -106 44 -162 44c-42.667 0 -77.334 -9 -104.001 -27s-40 -42.333 -40 -73
c0 -18.667 4.33301 -34.834 13 -48.501s21.5 -24.834 38.5 -33.501s33.333 -15.5 49 -20.5s35.167 -9.83301 58.5 -14.5c22.667 -4.66699 40.834 -8.83398 54.501 -12.501s29.667 -9.33398 48 -17.001s32.666 -16 42.999 -25s19.166 -21.167 26.499 -36.5
s11 -32.666 11 -51.999z" />
    <glyph glyph-name="t" unicode="t" horiz-adv-x="303" 
d="M105 155c0 -42.667 10.5 -75.499 31.5 -98.499s51.167 -34.5 90.5 -34.5c20 0 40 1 60 3c4 0 6 -2 6 -6v-17c0 -4 -2 -6.33301 -6 -7c-19.333 -2 -39.333 -3 -60 -3c-48 0 -85.667 14.167 -113 42.5s-41 68.166 -41 119.499v483c0 4 2 6 6 6h19c4 0 6.33301 -2 7 -6v-124
h169c4 0 6 -2 6 -6v-17c0 -4.66699 -2 -7 -6 -7h-169v-328z" />
    <glyph glyph-name="u" unicode="u" horiz-adv-x="540" 
d="M439 514l19 0.000976562c4 0 6 -2.33301 6 -7v-471c0 -4.66699 -1.66699 -7.33398 -5 -8.00098c-54.667 -25.333 -114 -38 -178 -38c-65.333 0 -116.333 17.167 -153 51.5s-55 84.5 -55 150.5v315c0 4.66699 2 7 6 7h20c4 0 6 -2.33301 6 -7v-315
c0 -57.333 15.167 -100.5 45.5 -129.5s73.833 -43.5 130.5 -43.5c48.667 0 99 10 151 30v458c0 4.66699 2.33301 7 7 7z" />
    <glyph glyph-name="v" unicode="v" horiz-adv-x="474" 
d="M248 0h-25.002c-3.33301 0 -5.66602 1.66699 -6.99902 5l-196 501c-2.66699 5.33301 -1 8 5 8h21c2.66699 0 5 -1.66699 7 -5l183 -471l182 471c1.33301 3.33301 4 5 8 5h21c4.66699 0 6.33398 -2.66699 5.00098 -8l-196 -501c-2 -3.33301 -4.66699 -5 -8 -5z" />
    <glyph glyph-name="w" unicode="w" horiz-adv-x="740" 
d="M214 0h-26.001c-2.66699 0 -4.66699 1.66699 -6 5l-160 501c-1.33301 5.33301 0.333984 8 5.00098 8h21c3.33301 0 5.66602 -1.66699 6.99902 -5l146 -468h1l150 456c1.33301 3.33301 3.33301 5 6 5h24c3.33301 0 5.66602 -1.66699 6.99902 -5l150 -456l147 468
c1.33301 3.33301 3.33301 5 6 5h21c5.33301 0 7 -2.66699 5 -8l-159 -501c-1.33301 -3.33301 -3.66602 -5 -6.99902 -5h-25c-3.33301 0 -5.66602 1.66699 -6.99902 5l-149 455h-1l-150 -455c-1.33301 -3.33301 -3.33301 -5 -6 -5z" />
    <glyph glyph-name="x" unicode="x" horiz-adv-x="469" 
d="M254 263l193.002 -255c4 -5.33301 2.66699 -8 -4 -8h-25c-4 -0 -6.33301 1.33301 -7 4l-177 235l-177 -235c-0.666992 -2.66699 -3 -4 -7 -4h-25c-5.33301 0 -6.66602 2.66699 -3.99902 8l193 255l-181 243c-2.66699 5.33301 -1.33398 8 3.99902 8h24
c3.33301 0 5.66602 -1.33301 6.99902 -4l166 -224l166 224c1.33301 2.66699 3.66602 4 6.99902 4h24c6.66699 0 8 -2.66699 4 -8z" />
    <glyph glyph-name="y" unicode="y" horiz-adv-x="540" 
d="M431 86l-0.00292969 421c0 4.66699 2 7 6 7h20c4 0 6 -2.33301 6 -7v-522c0 -56.667 -16.167 -101.667 -48.5 -135s-80.5 -50 -144.5 -50c-67.333 0 -129.666 26 -186.999 78c-2.66699 2.66699 -2.66699 5.66699 0 9l11 13
c2.66699 3.33301 5.33398 3.66602 8.00098 0.999023c54.667 -47.333 110.667 -71 168 -71c54 0 94.5 13.833 121.5 41.5s40.167 65.834 39.5 114.501v69c-46 -24 -96.667 -36 -152 -36c-63.333 0 -113.666 16.333 -150.999 49s-56 80.667 -56 144v295c0 4.66699 2 7 6 7h19
c4.66699 0 7 -2.33301 7 -7v-294c0 -54.667 15.667 -95.667 47 -123s75 -41 131 -41c52 0 101.667 12.333 149 37z" />
    <glyph glyph-name="z" unicode="z" horiz-adv-x="447" 
d="M411 0h-376c-4 0 -6 2 -6 6v12c0 2.66699 1 5 3 7l332 459h-314c-4 0 -6 2 -6 6v17c0 4.66699 2 7 6 7h352c4 0 6 -2.33301 6 -7v-10c0 -2 -0.666992 -4.33301 -2 -7l-333 -461h338c4 0 6 -2 6 -6v-17c0 -4 -2 -6 -6 -6z" />
    <glyph glyph-name="braceleft" unicode="{" horiz-adv-x="246" 
d="M207 -117l-6.00098 -0.00195312c-34 0.666992 -58.667 9.83398 -74 27.501s-23 45.5 -23 83.5v239c0 36 -4.16699 61.5 -12.5 76.5s-23.5 24.833 -45.5 29.5c-3.33301 0.666992 -5 3 -5 7v20c0 4 1.66699 6.33301 5 7c22 4.66699 37.167 14.5 45.5 29.5
s12.5 40.5 12.5 76.5v239c0 37.333 7.66699 65 23 83s39.333 27.333 72 28h8c4 0 6 -2 6 -6v-18c0 -4 -2 -6 -6 -6h-6c-23.333 -0.666992 -40.166 -7.5 -50.499 -20.5s-15.5 -33.5 -15.5 -61.5v-241c0 -72 -22 -112 -66 -120c44 -8 66 -48 66 -120v-241
c0 -29.333 5.16699 -50.166 15.5 -62.499s27.5 -18.833 51.5 -19.5h5c4 0 6 -2 6 -6v-18c0 -4 -2 -6 -6 -6z" />
    <glyph glyph-name="bar" unicode="|" horiz-adv-x="214" 
d="M116 -139h-18c-4.66699 0 -7 2 -7 6v988c0 4 2.33301 6 7 6h18c4.66699 0 7 -2 7 -6v-988c0 -4 -2.33301 -6 -7 -6z" />
    <glyph glyph-name="braceright" unicode="}" horiz-adv-x="246" 
d="M45 -117l-6.00098 0.00195312c-4 0 -6 2 -6 6v18c0 4 2 6 6 6h5c24 0.666992 41.167 7.16699 51.5 19.5s15.5 33.166 15.5 62.499v241c0 72 22 112 66 120c-44 8 -66 48 -66 120v241c0 28 -5.16699 48.5 -15.5 61.5s-27.166 19.833 -50.499 20.5h-6c-4 0 -6 2 -6 6v18
c0 4 2 6 6 6h8c32.667 -0.666992 56.667 -10 72 -28s23 -45.667 23 -83v-239c0 -36 4.16699 -61.5 12.5 -76.5s23.5 -24.833 45.5 -29.5c3.33301 -0.666992 5 -3 5 -7v-20c0 -4 -1.66699 -6.33301 -5 -7c-22 -4.66699 -37.167 -14.5 -45.5 -29.5s-12.5 -40.5 -12.5 -76.5
v-239c0 -38 -7.66699 -65.833 -23 -83.5s-40 -26.834 -74 -27.501z" />
    <glyph glyph-name="asciitilde" unicode="~" 
d="M472 348c-30.667 -26 -63.667 -39 -99 -39c-20 0 -53.333 8 -100 24c-45.333 14 -77 21 -95 21c-28.667 0 -53.667 -10 -75 -30c-3.33301 -2.66699 -6.33301 -2.66699 -9 0l-13 12c-3.33301 3.33301 -3.33301 6 0 8c28 26 59.667 39 95 39
c25.333 0 60.333 -7.66699 105 -23c42 -14 72.333 -21 91 -21c30 0 55.667 9.66699 77 29c3.33301 2.66699 6.33301 2.66699 9 0l13 -11c4 -2.66699 4.33301 -5.66699 1 -9z" />
    <glyph glyph-name="exclamdown" unicode="&#xa1;" horiz-adv-x="201" 
d="M91 374h18c4.66699 0 7 -2 7 -6l1 -396v-159c0 -4 -2 -6 -6 -6h-21c-4 0 -6 2 -6 6v159l1 396c0 4 2 6 6 6zM73 498c0 8 2.5 14.5 7.5 19.5s11.5 7.5 19.5 7.5s14.5 -2.5 19.5 -7.5s7.5 -11.5 7.5 -19.5s-2.5 -14.667 -7.5 -20s-11.5 -8 -19.5 -8s-14.5 2.66699 -19.5 8
s-7.5 12 -7.5 20z" />
    <glyph glyph-name="cent" unicode="&#xa2;" horiz-adv-x="500" 
d="M433 75l10 -14.002c2.66699 -4 2 -7 -2 -9c-48.667 -39.333 -102.667 -60 -162 -62v-63c0 -4 -2 -6 -6 -6h-14c-4 0 -6 2 -6 6v63c-56.667 2.66699 -101.667 21.5 -135 56.5s-50 77.833 -50 128.5v164c0 50.667 16.667 93.334 50 128.001s78.333 53.334 135 56.001v71
c0 4 2 6 6 6h14c4 0 6 -2 6 -6v-70c53.333 -2 102.666 -19.667 147.999 -53c3.33301 -2.66699 4 -5.66699 2 -9l-9 -15c-3.33301 -2 -6.33301 -2.33301 -9 -1c-43.333 32 -91.666 48 -144.999 48c-52 0 -92.667 -14.667 -122 -44s-44 -66.333 -44 -111v-164
c0 -44.667 14.833 -81.834 44.5 -111.501s70.167 -44.5 121.5 -44.5c55.333 0 108 19 158 57c4 2.66699 7 2.33398 9 -0.999023z" />
    <glyph glyph-name="sterling" unicode="&#xa3;" horiz-adv-x="543" 
d="M483 0l-425.999 -0.000976562c-4 0 -6 2 -6 6v17c0 4 2 6 6 6c45.333 2.66699 68 38.334 68 107.001v233h-68c-4 0 -6 2 -6 6v17c0 4 2 6 6 6h68v151c0 50.667 16.167 92.667 48.5 126s76.833 50 133.5 50c66 0 123 -20 171 -60c2.66699 -2.66699 3 -5.66699 1 -9l-9 -13
c-2.66699 -2.66699 -5.66699 -3 -9 -1c-50.667 36 -102.334 54 -155.001 54c-48.667 0 -86 -14 -112 -42s-39 -63 -39 -105v-151h231c4 0 6 -2 6 -6v-17c0 -4 -2 -6 -6 -6h-231v-233c0 -56 -13.667 -91.667 -41 -107h369c4.66699 0 7 -2 7 -6v-17c0 -4 -2.33301 -6 -7 -6z
" />
    <glyph glyph-name="currency" unicode="&#xa4;" horiz-adv-x="637" 
d="M481 161c-44.667 -38 -98.665 -57.001 -161.998 -57.001c-64.667 0 -119 19 -163 57l-49 -49c-2.66699 -4 -6 -4 -10 0l-11 11c-2 3.33301 -2 6.66602 0 9.99902l49 49c-37.333 42.667 -56 97 -56 163c0 64.667 18.667 118.334 56 161.001l-49 50
c-2.66699 2.66699 -2.66699 5.66699 0 9l11 11c4 4 7.33301 4 10 0l49 -49c45.333 38.667 99.666 58 162.999 58c64 0 118 -19.333 162 -58l49 49c3.33301 3.33301 6.66602 3.33301 9.99902 0l11 -11c0.666992 -0.666992 1 -2 1 -4s-0.333008 -3.66699 -1 -5l-49 -50
c38 -43.333 57 -97 57 -161c0 -64.667 -19 -119 -57 -163l49 -49c2.66699 -3.33301 2.66699 -6.66602 0 -9.99902l-11 -11c-4 -4 -7.33301 -4 -10 0zM108.002 344.999c0 -63.333 19.668 -114.5 59.001 -153.5s90 -58.5 152 -58.5c61.333 0 111.833 19.833 151.5 59.5
s59.167 90.5 58.5 152.5c-0.666992 60.667 -20.834 111 -60.501 151s-89.5 60 -149.5 60c-62 0 -112.667 -19.833 -152 -59.5s-59 -90.167 -59 -151.5z" />
    <glyph glyph-name="yen" unicode="&#xa5;" horiz-adv-x="550" 
d="M495 715h23c6 0 7.33301 -2.66699 4 -8l-220 -404h123c4.66699 0 7 -2.33301 7 -7v-15c0 -4 -2.33301 -6 -7 -6h-134v-85h134c4.66699 0 7 -2 7 -6v-15c0 -4 -2.33301 -6 -7 -6h-134v-157c0 -4 -2 -6 -6 -6h-20c-4 0 -6 2 -6 6v157h-133c-4 0 -6 2 -6 6v15c0 4 2 6 6 6
h133v85h-133c-4 0 -6 2 -6 6v15c0 4.66699 2 7 6 7h122l-220 404c-2 5.33301 -0.333008 8 5 8h23c3.33301 0 6 -1.66699 8 -5l211 -395l212 395c1.33301 3.33301 4 5 8 5z" />
    <glyph glyph-name="brokenbar" unicode="&#xa6;" horiz-adv-x="218" 
d="M118 442h-18c-4.66699 0 -7 2 -7 6v407c0 4 2.33301 6 7 6h18c4.66699 0 7 -2 7 -6v-407c0 -4 -2.33301 -6 -7 -6zM118 -139h-18c-4.66699 0 -7 2 -7 6v407c0 4 2.33301 6 7 6h18c4.66699 0 7 -2 7 -6v-407c0 -4 -2.33301 -6 -7 -6z" />
    <glyph glyph-name="section" unicode="&#xa7;" horiz-adv-x="503" 
d="M427 -26c0 -46 -16.5029 -83.665 -49.5029 -112.998s-76.5 -44 -130.5 -44c-69.333 0 -129.666 27.667 -180.999 83c-2 3.33301 -1.66699 6.33301 1 9l11 13c2.66699 2.66699 5.66699 2.33398 9 -0.999023c24 -23.333 47.833 -41.5 71.5 -54.5s52.834 -19.5 87.501 -19.5
c45.333 0 81.666 11.5 108.999 34.5s41 54.167 41 93.5c0 29.333 -8.5 54.166 -25.5 74.499s-38 35.666 -63 45.999l-82 33c-29.667 11.667 -57 23.167 -82 34.5s-46 28.166 -63 50.499s-25.5 49.5 -25.5 81.5c0 40.667 13.167 73.334 39.5 98.001s62.5 39.667 108.5 45
c-76 37.333 -114 86.666 -114 147.999c0 42 15.833 75.667 47.5 101s71.834 38 120.501 38c51.333 0 103 -16.333 155 -49c4.66699 -2 5.33398 -4.66699 2.00098 -8l-9 -14c-2 -3.33301 -5 -4 -9 -2c-54 29.333 -100.333 44 -139 44c-42 0 -75.167 -10.167 -99.5 -30.5
s-36.5 -46.833 -36.5 -79.5c0 -30.667 11.5 -57 34.5 -79s50.833 -40.167 83.5 -54.5l97.5 -44.5c32.333 -15.333 60 -35.833 83 -61.5s34.5 -56.167 34.5 -91.5s-10.833 -66.333 -32.5 -93s-49.834 -42.667 -84.501 -48c26.667 -12.667 48.334 -31.167 65.001 -55.5
s25 -52.5 25 -84.5zM86.9971 296.002c0 -17.333 3.50195 -32.999 10.502 -46.999s15.167 -25.667 24.5 -35s25.166 -19.166 47.499 -29.499s41.5 -18.5 57.5 -24.5s41.667 -15 77 -27c36.667 3.33301 65.667 15.666 87 36.999s32 49.666 32 84.999
c0 19.333 -3.5 36.333 -10.5 51s-20.333 28.834 -40 42.501s-37.334 24.334 -53.001 32.001l-77.5 36.5c-44 1.33301 -80.833 -8.83398 -110.5 -30.501s-44.5 -51.834 -44.5 -90.501z" />
    <glyph glyph-name="dieresis" unicode="&#xa8;" horiz-adv-x="235" 
d="M58 652c0 -16.667 -8.33301 -25 -25 -25s-25 8.33301 -25 25c0 17.333 8.33301 26 25 26s25 -8.66699 25 -26zM231 652c0 -16.667 -8.33301 -25 -25 -25c-7.33301 0 -13.5 2.33301 -18.5 7s-7.5 10.667 -7.5 18c0 8 2.5 14.333 7.5 19s11.167 7 18.5 7
c16.667 0 25 -8.66699 25 -26z" />
    <glyph glyph-name="copyright" unicode="&#xa9;" horiz-adv-x="848" 
d="M788 353c0 -112 -34.499 -200.5 -103.499 -265.5s-155.5 -97.5 -259.5 -97.5s-190.833 32.5 -260.5 97.5s-104.5 153.5 -104.5 265.5c0 114 34.833 204.5 104.5 271.5s156.5 100.5 260.5 100.5c103.333 0 189.666 -33.5 258.999 -100.5s104 -157.5 104 -271.5z
M84.001 353c0 -107.333 32.333 -190.833 97 -250.5s146 -89.5 244 -89.5c97.333 0 178.166 29.833 242.499 89.5s96.5 143.167 96.5 250.5c0 110.667 -32.167 196.5 -96.5 257.5s-145.166 91.5 -242.499 91.5c-96.667 0 -177.667 -30.667 -243 -92s-98 -147 -98 -257z
M549.001 204c-34.667 -36 -77.332 -53.668 -127.999 -53.001c-41.333 0.666992 -74.833 13.5 -100.5 38.5s-38.5 55.167 -38.5 90.5v144c0 35.333 12.833 65.5 38.5 90.5s58.5 37.5 98.5 37.5c48 0.666992 88.333 -16 121 -50c2 -3.33301 2.33301 -6.33301 1 -9l-10 -10
c-2.66699 -3.33301 -5.66699 -3.66602 -9 -0.999023c-28 29.333 -62.333 43.666 -103 42.999c-32 -0.666992 -58.167 -11 -78.5 -31s-30.5 -43.333 -30.5 -70v-144c0 -27.333 10.167 -51 30.5 -71s47.166 -30 80.499 -30c44 0 81 15 111 45
c3.33301 2.66699 6.33301 2.33398 9 -0.999023l8 -11c2 -3.33301 2 -6 0 -8z" />
    <glyph glyph-name="guillemotleft" unicode="&#xab;" horiz-adv-x="473" 
d="M214 71l-23 -0.000976562c-4 0 -6.33301 1.33301 -7 4l-144 212c-0.666992 2.66699 -0.666992 5.33398 0 8.00098l144 212c0.666992 2.66699 3 4 7 4h23c6 0 7 -2.66699 3 -8l-144 -212l144 -212c4 -5.33301 3 -8 -3 -8zM420 70.999l-23 -0.000976562
c-4 0 -6.33301 1.33301 -7 4l-144 212c-0.666992 2.66699 -0.666992 5.33398 0 8.00098l144 212c0.666992 2.66699 3 4 7 4h23c6 0 7 -2.66699 3 -8l-144 -212l144 -212c4 -5.33301 3 -8 -3 -8z" />
    <glyph glyph-name="logicalnot" unicode="&#xac;" 
d="M480 215h-18c-4.66699 0 -7 2 -7 6v154h-387c-4 0 -6 2 -6 6v19c0 4 2 6 6 6h412c4 0 6 -2 6 -6v-179c0 -4 -2 -6 -6 -6z" />
    <glyph glyph-name="registered" unicode="&#xae;" horiz-adv-x="532" 
d="M474 517c0 -64 -19.833 -114.667 -59.5 -152s-89.167 -56 -148.5 -56s-108.833 18.667 -148.5 56s-59.5 88 -59.5 152c0 63.333 19.833 113.833 59.5 151.5s89.167 56.5 148.5 56.5s108.833 -18.833 148.5 -56.5s59.5 -88.167 59.5 -151.5zM78 517
c0 -59.333 17.833 -105.5 53.5 -138.5s80.834 -49.5 135.501 -49.5c54 0 98.667 16.5 134 49.5s53 79.167 53 138.5c0 60 -17.667 106.5 -53 139.5s-80 49.5 -134 49.5c-54.667 0 -99.834 -16.5 -135.501 -49.5s-53.5 -79.5 -53.5 -139.5zM213 421h-7c-4 0 -6 2 -6 6v189
c0 4.66699 2 7 6 7h69c22 0 39.333 -5.5 52 -16.5s19 -26.167 19 -45.5c0 -36.667 -21 -56 -63 -58l61 -75c3.33301 -4.66699 2.33301 -7 -3 -7h-11c-4 0 -6.33301 1.33301 -7 4l-64 77h-40v-75c0 -4 -2 -6 -6 -6zM219 603v-82h56c34 0 51 13.333 51 40c0 28 -17 42 -51 42
h-56z" />
    <glyph glyph-name="macron" unicode="&#xaf;" horiz-adv-x="249" 
d="M0 656v14c0 4.66699 2 7 6 7h234c4.66699 0 7 -2.33301 7 -7v-14c0 -4.66699 -2.33301 -7 -7 -7h-234c-4 0 -6 2.33301 -6 7z" />
    <glyph glyph-name="degree" unicode="&#xb0;" horiz-adv-x="327" 
d="M276 613c0 -33.333 -10.667 -60.167 -32 -80.5s-48 -30.5 -80 -30.5c-33.333 0 -60.5 10 -81.5 30s-31.5 47 -31.5 81c0 34.667 10.5 62 31.5 82s48.167 30 81.5 30c32.667 0 59.5 -10 80.5 -30s31.5 -47.333 31.5 -82zM78 612.999c0 -28 8 -49.5 24 -64.5
s36.667 -22.5 62 -22.5s45.833 7.5 61.5 22.5s23.5 36.5 23.5 64.5s-7.83301 49.5 -23.5 64.5s-36.167 22.5 -61.5 22.5s-46 -7.5 -62 -22.5s-24 -36.5 -24 -64.5z" />
    <glyph glyph-name="plusminus" unicode="&#xb1;" 
d="M284 170h-19c-4.66699 0 -7 2 -7 6v191h-190c-4 0 -6 2 -6 6v18c0 4.66699 2 7 6 7h190v188c0 4.66699 2.33301 7 7 7h19c4 0 6 -2.33301 6 -7v-188h190c4 0 6 -2.33301 6 -7v-18c0 -4 -2 -6 -6 -6h-190v-191c0 -4 -2 -6 -6 -6zM480 67h-412c-4 0 -6 2 -6 6v19
c0 4 2 6 6 6h412c4 0 6 -2 6 -6v-19c0 -4 -2 -6 -6 -6z" />
    <glyph glyph-name="two.sups" unicode="&#xb2;" horiz-adv-x="308" 
d="M268 410h-230.998c-4 0 -6 2 -6 6v8c0 4 1 7 3 9l84 88c46 48.667 78 85.834 96 111.501s27 51.5 27 77.5c0 21.333 -7.83301 38.333 -23.5 51s-37.167 19 -64.5 19c-35.333 0 -68.333 -16.667 -99 -50c-2.66699 -2.66699 -5.66699 -2.66699 -9 0l-6 7
c-2 3.33301 -2 6.66602 0 9.99902c33.333 37.333 71.666 56 114.999 56c35.333 0 62.666 -9 81.999 -27s29 -39.667 29 -65c0 -30 -10 -59.5 -30 -88.5s-53.333 -67.833 -100 -116.5l-69 -73h202c4 0 6 -2 6 -6v-11c0 -4 -2 -6 -6 -6z" />
    <glyph glyph-name="three.sups" unicode="&#xb3;" horiz-adv-x="312" 
d="M275 529c0 -34 -11.5 -63.166 -34.5 -87.499s-51.5 -36.5 -85.5 -36.5c-49.333 0 -91 20.667 -125 62c-2 3.33301 -2 6 0 8l7 7c3.33301 2.66699 6.33301 2.66699 9 0c30 -36 66 -54 108 -54c28.667 0 52.167 10 70.5 30s27.5 44.333 27.5 73
c0 26 -8.33301 47.5 -25 64.5s-41 25.5 -73 25.5c-12 0 -24.667 -0.666992 -38 -2c-4 0 -6.33301 1 -7 3l-3 6c-0.666992 2.66699 0 5.66699 2 9l125 139h-182c-4 0 -6 2 -6 6v10c0 4 2 6 6 6h213c3.33301 0 5 -1.66699 5 -5v-6c0 -2 -1.33301 -4.33301 -4 -7l-126 -141
c6 0.666992 14 1 24 1c33.333 0 60.333 -10.333 81 -31s31 -47.334 31 -80.001z" />
    <glyph glyph-name="acute" unicode="&#xb4;" horiz-adv-x="148" 
d="M22 599h-14.9971c-6.66699 0 -8.33398 2.66699 -5.00098 8l83 134c1.33301 2.66699 3.66602 4 6.99902 4h25c5.33301 0 6.33301 -2.66699 3 -8l-90 -134c-2.66699 -2.66699 -5.33398 -4 -8.00098 -4z" />
    <glyph glyph-name="paragraph" unicode="&#xb6;" horiz-adv-x="602" 
d="M242 -139h-17.998c-4 0 -6 2 -6 6v480c-56.667 0 -101.834 17.5 -135.501 52.5s-50.5 78.833 -50.5 131.5c0 54 17.667 98.167 53 132.5s83.666 51.5 144.999 51.5h268c4 0 6 -2 6 -6v-842c0 -4 -2 -6 -6 -6h-19c-4 0 -6 2 -6 6v817h-224v-817c0 -4 -2.33301 -6 -7 -6z
" />
    <glyph glyph-name="periodcentered" unicode="&#xb7;" horiz-adv-x="194" 
d="M124 309c0 -8 -2.5 -14.5 -7.5 -19.5s-11.5 -7.5 -19.5 -7.5s-14.5 2.5 -19.5 7.5s-7.5 11.5 -7.5 19.5s2.5 14.5 7.5 19.5s11.5 7.5 19.5 7.5s14.5 -2.5 19.5 -7.5s7.5 -11.5 7.5 -19.5z" />
    <glyph glyph-name="cedilla" unicode="&#xb8;" horiz-adv-x="166" 
d="M164 -127c0 -22.667 -8.83301 -41.001 -26.5 -55.001s-41.5 -21 -71.5 -21c-20 0 -39.667 3 -59 9c-3.33301 1.33301 -5 4 -5 8v11c0 4 2.33301 5.66699 7 5c18.667 -6 37 -9 55 -9c47.333 0 71 17.667 71 53c0 16.667 -6.33301 28.834 -19 36.501
s-33.667 11.834 -63 12.501c-3.33301 0 -6 1.33301 -8 4c-1.33301 1.33301 -1.33301 3.66602 0 6.99902l24 64c1.33301 3.33301 3.33301 5 6 5h13c5.33301 0 7 -2.33301 5 -7l-20 -55c28.667 0 51 -5.83301 67 -17.5s24 -28.5 24 -50.5z" />
    <glyph glyph-name="one.sups" unicode="&#xb9;" horiz-adv-x="196" 
d="M130 410h-10.999c-4 0 -6 2 -6 6v357l-76 -53c-3.33301 -3.33301 -6.33301 -3 -9 1l-6 8c-1.33301 3.33301 -0.333008 6 3 8l84 59c1.33301 1.33301 3.66602 2 6.99902 2h14c4.66699 0 7 -2 7 -6v-376c0 -4 -2.33301 -6 -7 -6z" />
    <glyph glyph-name="guillemotright" unicode="&#xbb;" horiz-adv-x="473" 
d="M76 71l-23 0.000976562c-6 0 -7 2.66699 -3 8l144 212l-144 212c-4 5.33301 -3 8 3 8h23c4 0 6.33301 -1.33301 7 -4l144 -212c0.666992 -2.66699 0.666992 -5.33398 0 -8.00098l-144 -212c-0.666992 -2.66699 -3 -4 -7 -4zM282 71.001l-23 0.000976562
c-6 0 -7 2.66699 -3 8l144 212l-144 212c-4 5.33301 -3 8 3 8h23c4 0 6.33301 -1.33301 7 -4l144 -212c0.666992 -2.66699 0.666992 -5.33398 0 -8.00098l-144 -212c-0.666992 -2.66699 -3 -4 -7 -4z" />
    <glyph glyph-name="onequarter" unicode="&#xbc;" horiz-adv-x="788" 
d="M148 326h-10.999c-4 0 -6 2 -6 6v357l-76 -53c-3.33301 -3.33301 -6.33301 -3 -9 1l-6 8c-1.33301 3.33301 -0.333008 6.33301 3 9l84 58c1.33301 1.33301 3.66602 2 6.99902 2h14c4.66699 0 7 -2 7 -6v-376c0 -4 -2.33301 -6 -7 -6zM659.001 707l-576.002 -703
c-0.666992 -2.66699 -3 -4 -7 -4h-14c-5.33301 0 -6.66602 2.66699 -3.99902 8l576 703c0.666992 2.66699 3.33398 4 8.00098 4h13c6.66699 0 8 -2.66699 4 -8zM707.999 0h-11.001c-4 0 -6 2 -6 6v93h-187c-4 0 -6 2.33301 -6 7v5c0 1.33301 0.666992 4 2 8l150 265
c0.666992 2.66699 3 4 7 4h11c6.66699 0 8.33398 -2.66699 5.00098 -8l-146 -258h164v93c0 4.66699 2 7 6 7h11c4 0 6 -2.33301 6 -7v-93h35c4 0 6 -2 6 -6v-10c0 -4.66699 -2 -7 -6 -7h-35v-93c0 -4 -2 -6 -6 -6z" />
    <glyph glyph-name="onehalf" unicode="&#xbd;" horiz-adv-x="838" 
d="M144 326h-10.999c-4 0 -6 2 -6 6v357l-76 -53c-3.33301 -3.33301 -6.33301 -3 -9 1l-6 8c-1.33301 3.33301 -0.333008 6.33301 3 9l84 58c1.33301 1.33301 3.66602 2 6.99902 2h14c4.66699 0 7 -2 7 -6v-376c0 -4 -2.33301 -6 -7 -6zM671.001 707l-576.002 -703
c-0.666992 -2.66699 -3 -4 -7 -4h-14c-5.33301 0 -6.66602 2.66699 -3.99902 8l576 703c0.666992 2.66699 3.33398 4 8.00098 4h13c6.66699 0 8 -2.66699 4 -8zM787.999 0h-230.998c-4 0 -6 2 -6 6v8c0 4 1 7 3 9l84 88c46 48.667 78 85.834 96 111.501s27 51.5 27 77.5
c0 21.333 -7.83301 38.333 -23.5 51s-37.167 19 -64.5 19c-35.333 0 -68.333 -16.667 -99 -50c-2.66699 -2.66699 -5.66699 -2.66699 -9 0l-6 7c-2 3.33301 -2 6.66602 0 9.99902c33.333 37.333 71.666 56 114.999 56c35.333 0 62.666 -9 81.999 -27s29 -39.667 29 -65
c0 -30 -10 -59.5 -30 -88.5s-53.333 -67.833 -100 -116.5l-69 -73h202c4 0 6 -2 6 -6v-11c0 -4 -2 -6 -6 -6z" />
    <glyph glyph-name="threequarters" unicode="&#xbe;" horiz-adv-x="862" 
d="M291 446c0 -34 -11.5 -63.166 -34.5 -87.499s-51.5 -36.5 -85.5 -36.5c-49.333 0 -91 20.667 -125 62c-2 3.33301 -2 6 0 8l7 7c3.33301 2.66699 6.33301 2.66699 9 0c30 -36 66 -54 108 -54c28.667 0 52.167 10 70.5 30s27.5 44.333 27.5 73
c0 26 -8.33301 47.5 -25 64.5s-41 25.5 -73 25.5c-12 0 -24.667 -0.666992 -38 -2c-4 0 -6.33301 1 -7 3l-3 6c-0.666992 2.66699 0 5.66699 2 9l125 139h-182c-4 0 -6 2 -6 6v10c0 4 2 6 6 6h213c3.33301 0 5 -1.66699 5 -5v-6c0 -2 -1.33301 -4.33301 -4 -7l-126 -141
c6 0.666992 14 1 24 1c33.333 0 60.333 -10.333 81 -31s31 -47.334 31 -80.001zM737 707.001l-576.002 -703c-0.666992 -2.66699 -3 -4 -7 -4h-14c-5.33301 0 -6.66602 2.66699 -3.99902 8l576 703c0.666992 2.66699 3.33398 4 8.00098 4h13c6.66699 0 8 -2.66699 4 -8z
M780.998 0.000976562h-11.001c-4 0 -6 2 -6 6v93h-187c-4 0 -6 2.33301 -6 7v5c0 1.33301 0.666992 4 2 8l150 265c0.666992 2.66699 3 4 7 4h11c6.66699 0 8.33398 -2.66699 5.00098 -8l-146 -258h164v93c0 4.66699 2 7 6 7h11c4 0 6 -2.33301 6 -7v-93h35c4 0 6 -2 6 -6
v-10c0 -4.66699 -2 -7 -6 -7h-35v-93c0 -4 -2 -6 -6 -6z" />
    <glyph glyph-name="questiondown" unicode="&#xbf;" horiz-adv-x="441" 
d="M229 375l18.998 0.000976562c4.66699 0 7 -2 7 -6v-67c0 -29.333 -6.33301 -55.333 -19 -78s-27.834 -41.834 -45.501 -57.501l-53.5 -46.5c-18 -15.333 -33.333 -34.5 -46 -57.5s-19 -48.833 -19 -77.5c0 -44 12.833 -81.333 38.5 -112s64.834 -46 117.501 -46
c62.667 0 118.334 25.667 167.001 77c3.33301 4.66699 6 4.33398 8 -0.999023l11 -14c2 -3.33301 1.66699 -6 -1 -8c-49.333 -55.333 -111 -83 -185 -83c-59.333 0 -105.5 17.167 -138.5 51.5s-49.5 79.5 -49.5 135.5c0 32 6.33301 60.333 19 85s28 45 46 61l53.5 46.5
c17.667 15 32.834 33.167 45.501 54.5s19 45.666 19 72.999v64c0 4 2 6 6 6zM211.998 498.001c0 8 2.5 14.5 7.5 19.5s11.5 7.5 19.5 7.5c17.333 0 26 -9 26 -27s-8.66699 -27 -26 -27c-8 0 -14.5 2.5 -19.5 7.5s-7.5 11.5 -7.5 19.5z" />
    <glyph glyph-name="Agrave" unicode="&#xc0;" horiz-adv-x="589" 
d="M39 0h-22.9971c-4.66699 -0 -6.33398 2.33301 -5.00098 7l263 703c1.33301 3.33301 3.33301 5 6 5h28c3.33301 0 5.66602 -1.66699 6.99902 -5l263 -703c1.33301 -4.66699 -0.333984 -7 -5.00098 -7h-23c-2.66699 0 -5 1.66699 -7 5l-81 219h-335l-82 -219
c-1.33301 -3.33301 -3.33301 -5 -6 -5zM293.003 674l-155 -419h313l-155 419h-3zM302.003 793l-116 134c-4.66699 4.66699 -3.66699 7 3 7h28c4 0 6.33301 -1.33301 7 -4l107 -133c4 -5.33301 3 -8 -3 -8h-18c-3.33301 0 -6 1.33301 -8 4z" />
    <glyph glyph-name="Aacute" unicode="&#xc1;" horiz-adv-x="589" 
d="M39 0h-22.9971c-4.66699 -0 -6.33398 2.33301 -5.00098 7l263 703c1.33301 3.33301 3.33301 5 6 5h28c3.33301 0 5.66602 -1.66699 6.99902 -5l263 -703c1.33301 -4.66699 -0.333984 -7 -5.00098 -7h-23c-2.66699 0 -5 1.66699 -7 5l-81 219h-335l-82 -219
c-1.33301 -3.33301 -3.33301 -5 -6 -5zM293.003 674l-155 -419h313l-155 419h-3zM407.003 927l-116 -134c-2 -2.66699 -4.66699 -4 -8 -4h-18c-6 0 -7 2.66699 -3 8l107 133c0.666992 2.66699 3 4 7 4h28c6.66699 0 7.66699 -2.33301 3 -7z" />
    <glyph glyph-name="Acircumflex" unicode="&#xc2;" horiz-adv-x="589" 
d="M39 0h-22.9971c-4.66699 -0 -6.33398 2.33301 -5.00098 7l263 703c1.33301 3.33301 3.33301 5 6 5h28c3.33301 0 5.66602 -1.66699 6.99902 -5l263 -703c1.33301 -4.66699 -0.333984 -7 -5.00098 -7h-23c-2.66699 0 -5 1.66699 -7 5l-81 219h-335l-82 -219
c-1.33301 -3.33301 -3.33301 -5 -6 -5zM293.003 674l-155 -419h313l-155 419h-3zM170.003 789h-21c-6.66699 0 -8 2.66699 -4 8l130 133c2 2.66699 4.66699 4 8 4h22c2.66699 0 5.33398 -1.33301 8.00098 -4l129 -133c2 -2 2.66699 -3.83301 2 -5.5
s-2.33398 -2.5 -5.00098 -2.5h-21c-3.33301 0 -6.33301 1.33301 -9 4l-115 114l-115 -114c-2.66699 -2.66699 -5.66699 -4 -9 -4z" />
    <glyph glyph-name="Atilde" unicode="&#xc3;" horiz-adv-x="589" 
d="M39 0h-22.9971c-4.66699 -0 -6.33398 2.33301 -5.00098 7l263 703c1.33301 3.33301 3.33301 5 6 5h28c3.33301 0 5.66602 -1.66699 6.99902 -5l263 -703c1.33301 -4.66699 -0.333984 -7 -5.00098 -7h-23c-2.66699 0 -5 1.66699 -7 5l-81 219h-335l-82 -219
c-1.33301 -3.33301 -3.33301 -5 -6 -5zM293.003 674l-155 -419h313l-155 419h-3zM430.003 875c-4.66699 -14 -13.3311 -26.333 -25.998 -37s-26.667 -16 -42 -16c-17.333 0 -40 7.66699 -68 23s-49.667 23 -65 23c-19.333 0 -35 -12 -47 -36
c-1.33301 -3.33301 -4 -4.33301 -8 -3l-12 6c-4 2 -5.33301 5 -4 9c5.33301 14 14.166 26 26.499 36s26.833 15 43.5 15c14.667 0 38 -8 70 -24c30.667 -14.667 51 -22 61 -22c19.333 0 35 12.333 47 37c2 2.66699 4.66699 3.66699 8 3l12 -6
c3.33301 -2 4.66602 -4.66699 3.99902 -8z" />
    <glyph glyph-name="Adieresis" unicode="&#xc4;" horiz-adv-x="589" 
d="M39 0h-22.9971c-4.66699 -0 -6.33398 2.33301 -5.00098 7l263 703c1.33301 3.33301 3.33301 5 6 5h28c3.33301 0 5.66602 -1.66699 6.99902 -5l263 -703c1.33301 -4.66699 -0.333984 -7 -5.00098 -7h-23c-2.66699 0 -5 1.66699 -7 5l-81 219h-335l-82 -219
c-1.33301 -3.33301 -3.33301 -5 -6 -5zM293.003 674l-155 -419h313l-155 419h-3zM220.003 861c0 -17.333 -8.66699 -26 -26 -26c-16.667 0 -25 8.66699 -25 26c0 16.667 8.33301 25 25 25c17.333 0 26 -8.33301 26 -25zM419.003 861c0 -17.333 -8.66699 -26 -26 -26
c-16.667 0 -25 8.66699 -25 26c0 16.667 8.33301 25 25 25c17.333 0 26 -8.33301 26 -25z" />
    <glyph glyph-name="Aring" unicode="&#xc5;" horiz-adv-x="589" 
d="M39 0h-22.9971c-4.66699 -0 -6.33398 2.33301 -5.00098 7l263 703c1.33301 3.33301 3.33301 5 6 5h28c3.33301 0 5.66602 -1.66699 6.99902 -5l263 -703c1.33301 -4.66699 -0.333984 -7 -5.00098 -7h-23c-2.66699 0 -5 1.66699 -7 5l-81 219h-335l-82 -219
c-1.33301 -3.33301 -3.33301 -5 -6 -5zM293.003 674l-155 -419h313l-155 419h-3zM391.003 864c0 -28.667 -8.83301 -51.167 -26.5 -67.5s-41.167 -24.5 -70.5 -24.5c-28.667 0 -52 8.33301 -70 25s-27 39 -27 67c0 28.667 9 51.334 27 68.001s41.333 25 70 25
c29.333 0 52.833 -8.33301 70.5 -25s26.5 -39.334 26.5 -68.001zM222.003 864c0 -21.333 6.33301 -38 19 -50s30.667 -18 54 -18c22.667 0 40.167 6 52.5 18s18.5 28.667 18.5 50s-6.16699 38.166 -18.5 50.499s-29.833 18.5 -52.5 18.5s-40.5 -6.16699 -53.5 -18.5
s-19.5 -29.166 -19.5 -50.499z" />
    <glyph glyph-name="AE" unicode="&#xc6;" horiz-adv-x="832" 
d="M446 348l-0.000976562 -317h325c4.66699 0 7 -2 7 -6v-19c0 -4 -2.33301 -6 -7 -6h-352c-4 0 -6 2 -6 6v215h-254l-117 -216c-1.33301 -3.33301 -3.66602 -5 -6.99902 -5h-23c-5.33301 0 -7 2.66699 -5 8l384 703c2 2.66699 4.66699 4 8 4h366c4 0 6 -2 6 -6v-19
c0 -4 -2 -6 -6 -6h-319v-305h303c4 0 6 -2 6 -6v-19c0 -4 -2 -6 -6 -6h-303zM413.999 686l-238 -434h237v399z" />
    <glyph glyph-name="Ccedilla" unicode="&#xc7;" horiz-adv-x="574" 
d="M400 -127c0 -23.333 -9 -42.002 -27 -56.002s-42.333 -21 -73 -21c-22 0 -42 3.33301 -60 10c-3.33301 0.666992 -5 3 -5 7v12c0 4 2.33301 5.66699 7 5c19.333 -6.66699 38.333 -10 57 -10c47.333 0 71.666 18 72.999 54c0 16 -6.66699 27.833 -20 35.5
s-35.333 11.834 -66 12.501c-4 0 -6.33301 1.33301 -7 4c-2 2 -2.33301 4.33301 -1 7l22 57c-72 2.66699 -127.833 25.5 -167.5 68.5s-59.5 99.167 -59.5 168.5v261c0 71.333 21.333 128.666 64 171.999s101.334 65 176.001 65c79.333 0 149.666 -24.667 210.999 -74
c4.66699 -2.66699 5 -5.33398 1 -8.00098l-11 -16c-2 -3.33301 -5 -3.66602 -9 -0.999023c-56.667 45.333 -121 68 -193 68c-66.667 0 -117.667 -18.833 -153 -56.5s-53 -87.5 -53 -149.5v-261c0 -62 18 -111.833 54 -149.5s87.333 -56.5 154 -56.5
c78.667 0 147.667 25.667 207 77c2.66699 2.66699 5.33398 2.33398 8.00098 -0.999023l12 -16c2 -3.33301 1.33301 -6.33301 -2 -9c-58 -51.333 -128.667 -78.666 -212 -81.999l-20 -50c62 0 93 -22.333 93 -67z" />
    <glyph glyph-name="Egrave" unicode="&#xc8;" horiz-adv-x="563" 
d="M131 349v-318h378c4 0 6 -2 6 -6v-19c0 -4 -2 -6 -6 -6h-405c-4.66699 0 -7 2 -7 6v703c0 4 2.33301 6 7 6h390c4 0 6 -2 6 -6v-19c0 -4 -2 -6 -6 -6h-363v-304h342c4.66699 0 7 -2 7 -6v-19c0 -4 -2.33301 -6 -7 -6h-342zM313 793l-116 134
c-4.66699 4.66699 -3.66699 7 3 7h28c4 0 6.33301 -1.33301 7 -4l107 -133c4 -5.33301 3 -8 -3 -8h-18c-3.33301 0 -6 1.33301 -8 4z" />
    <glyph glyph-name="Eacute" unicode="&#xc9;" horiz-adv-x="563" 
d="M131 349v-318h378c4 0 6 -2 6 -6v-19c0 -4 -2 -6 -6 -6h-405c-4.66699 0 -7 2 -7 6v703c0 4 2.33301 6 7 6h390c4 0 6 -2 6 -6v-19c0 -4 -2 -6 -6 -6h-363v-304h342c4.66699 0 7 -2 7 -6v-19c0 -4 -2.33301 -6 -7 -6h-342zM408 927l-116 -134
c-2 -2.66699 -4.66699 -4 -8 -4h-18c-6 0 -7 2.66699 -3 8l107 133c0.666992 2.66699 3 4 7 4h28c6.66699 0 7.66699 -2.33301 3 -7z" />
    <glyph glyph-name="Ecircumflex" unicode="&#xca;" horiz-adv-x="563" 
d="M131 349v-318h378c4 0 6 -2 6 -6v-19c0 -4 -2 -6 -6 -6h-405c-4.66699 0 -7 2 -7 6v703c0 4 2.33301 6 7 6h390c4 0 6 -2 6 -6v-19c0 -4 -2 -6 -6 -6h-363v-304h342c4.66699 0 7 -2 7 -6v-19c0 -4 -2.33301 -6 -7 -6h-342zM182 789h-21c-6.66699 0 -8 2.66699 -4 8
l130 133c2 2.66699 4.66699 4 8 4h22c2.66699 0 5.33398 -1.33301 8.00098 -4l129 -133c2 -2 2.66699 -3.83301 2 -5.5s-2.33398 -2.5 -5.00098 -2.5h-21c-3.33301 0 -6.33301 1.33301 -9 4l-115 114l-115 -114c-2.66699 -2.66699 -5.66699 -4 -9 -4z" />
    <glyph glyph-name="Edieresis" unicode="&#xcb;" horiz-adv-x="563" 
d="M131 349v-318h378c4 0 6 -2 6 -6v-19c0 -4 -2 -6 -6 -6h-405c-4.66699 0 -7 2 -7 6v703c0 4 2.33301 6 7 6h390c4 0 6 -2 6 -6v-19c0 -4 -2 -6 -6 -6h-363v-304h342c4.66699 0 7 -2 7 -6v-19c0 -4 -2.33301 -6 -7 -6h-342zM234 861c0 -17.333 -8.66699 -26 -26 -26
c-16.667 0 -25 8.66699 -25 26c0 16.667 8.33301 25 25 25c17.333 0 26 -8.33301 26 -25zM433 861c0 -17.333 -8.66699 -26 -26 -26c-16.667 0 -25 8.66699 -25 26c0 16.667 8.33301 25 25 25c17.333 0 26 -8.33301 26 -25z" />
    <glyph glyph-name="Igrave" unicode="&#xcc;" horiz-adv-x="228" 
d="M131 709v-703c0 -4 -2 -6 -6 -6h-21c-4.66699 0 -7 2 -7 6v703c0 4 2.33301 6 7 6h21c4 0 6 -2 6 -6zM123 793l-116 134c-4.66699 4.66699 -3.66699 7 3 7h28c4 0 6.33301 -1.33301 7 -4l107 -133c4 -5.33301 3 -8 -3 -8h-18c-3.33301 0 -6 1.33301 -8 4z" />
    <glyph glyph-name="Iacute" unicode="&#xcd;" horiz-adv-x="228" 
d="M131 709v-703c0 -4 -2 -6 -6 -6h-21c-4.66699 0 -7 2 -7 6v703c0 4 2.33301 6 7 6h21c4 0 6 -2 6 -6zM228 927l-116 -134c-2 -2.66699 -4.66699 -4 -8 -4h-18c-6 0 -7 2.66699 -3 8l107 133c0.666992 2.66699 3 4 7 4h28c6.66699 0 7.66699 -2.33301 3 -7z" />
    <glyph glyph-name="Icircumflex" unicode="&#xce;" horiz-adv-x="228" 
d="M14 789h-20.001c-6.66699 0 -8 2.66699 -4 8l103 133c0.666992 2.66699 3 4 7 4h22c4.66699 0 7.33398 -1.33301 8.00098 -4l112 -133c3.33301 -5.33301 2 -8 -4 -8h-20c-3.33301 0 -6 1.33301 -8 4l-99 116l-90 -116c-0.666992 -2.66699 -3 -4 -7 -4zM129.999 709v-703
c0 -4 -2 -6 -6 -6h-21c-4.66699 0 -7 2 -7 6v703c0 4 2.33301 6 7 6h21c4 0 6 -2 6 -6z" />
    <glyph glyph-name="Idieresis" unicode="&#xcf;" horiz-adv-x="227" 
d="M124 0h-21c-4 0 -6 2 -6 6v703c0 4 2 6 6 6h21c4 0 6 -2 6 -6v-703c0 -4 -2 -6 -6 -6zM58 861c0 -8 -2.5 -14.333 -7.5 -19s-11.167 -7 -18.5 -7c-16.667 0 -25 8.66699 -25 26c0 16.667 8.33301 25 25 25c7.33301 0 13.5 -2.33301 18.5 -7s7.5 -10.667 7.5 -18zM221 861
c0 -17.333 -8.66699 -26 -26 -26c-16.667 0 -25 8.66699 -25 26c0 16.667 8.33301 25 25 25c17.333 0 26 -8.33301 26 -25z" />
    <glyph glyph-name="Eth" unicode="&#xd0;" horiz-adv-x="680" 
d="M125 715l237 -0.00195312c76 0 136 -22.167 180 -66.5s66 -105.166 66 -182.499v-220c0 -77.333 -22 -137.666 -66 -180.999s-104 -65 -180 -65h-237c-4 0 -6 2 -6 6v355h-100c-4 0 -6 2 -6 6v16c0 4 2 6 6 6h100v320c0 4 2 6 6 6zM362 31.998
c66 0 117.833 18.667 155.5 56s56.5 90 56.5 158v220c0 68.667 -18.833 122.167 -56.5 160.5s-89.5 57.5 -155.5 57.5h-209v-295h199c4 0 6 -2 6 -6v-16c0 -4 -2 -6 -6 -6h-199v-329h209z" />
    <glyph glyph-name="Ntilde" unicode="&#xd1;" horiz-adv-x="699" 
d="M125 0h-20.999c-4.66699 0 -7 2 -7 6v703c0 4 2.33301 6 7 6h25c4 0 6.33301 -1.33301 7 -4l433 -659l-1 657c0 4 2.33301 6 7 6h20c4.66699 0 7 -2 7 -6v-703c0 -4 -2.33301 -6 -7 -6h-24c-4.66699 -0 -7.33398 1.33301 -8.00098 4l-433 657l1 -655c0 -4 -2 -6 -6 -6z
M486.001 875c-4.66699 -14 -13.3311 -26.333 -25.998 -37s-26.667 -16 -42 -16c-17.333 0 -40 7.66699 -68 23s-49.667 23 -65 23c-19.333 0 -35 -12 -47 -36c-1.33301 -3.33301 -4 -4.33301 -8 -3l-12 6c-4 2 -5.33301 5 -4 9c5.33301 14 14.166 26 26.499 36
s26.833 15 43.5 15c14.667 0 38 -8 70 -24c30.667 -14.667 51 -22 61 -22c19.333 0 35 12.333 47 37c2 2.66699 4.66699 3.66699 8 3l12 -6c3.33301 -2 4.66602 -4.66699 3.99902 -8z" />
    <glyph glyph-name="Ograve" unicode="&#xd2;" horiz-adv-x="665" 
d="M593 224c0 -68 -24.001 -124 -72.001 -168s-110.667 -66 -188 -66c-78 0 -141 22 -189 66s-72 100 -72 168v259c0 72 23.833 130.333 71.5 175s110.834 67 189.501 67c78 0 140.833 -22.333 188.5 -67s71.5 -103 71.5 -175v-259zM104.999 224
c0 -59.333 20.8311 -107.833 62.498 -145.5s96.834 -56.5 165.501 -56.5c68 0 122.833 18.833 164.5 56.5s62.5 86.167 62.5 145.5v259c0 63.333 -20.5 114.333 -61.5 153s-96.167 58 -165.5 58s-124.666 -19.333 -165.999 -58s-62 -89.667 -62 -153v-259zM340.997 793
l-116 134c-4.66699 4.66699 -3.66699 7 3 7h28c4 0 6.33301 -1.33301 7 -4l107 -133c4 -5.33301 3 -8 -3 -8h-18c-3.33301 0 -6 1.33301 -8 4z" />
    <glyph glyph-name="Oacute" unicode="&#xd3;" horiz-adv-x="665" 
d="M593 224c0 -68 -24.001 -124 -72.001 -168s-110.667 -66 -188 -66c-78 0 -141 22 -189 66s-72 100 -72 168v259c0 72 23.833 130.333 71.5 175s110.834 67 189.501 67c78 0 140.833 -22.333 188.5 -67s71.5 -103 71.5 -175v-259zM104.999 224
c0 -59.333 20.8311 -107.833 62.498 -145.5s96.834 -56.5 165.501 -56.5c68 0 122.833 18.833 164.5 56.5s62.5 86.167 62.5 145.5v259c0 63.333 -20.5 114.333 -61.5 153s-96.167 58 -165.5 58s-124.666 -19.333 -165.999 -58s-62 -89.667 -62 -153v-259zM445.997 927
l-116 -134c-2 -2.66699 -4.66699 -4 -8 -4h-18c-6 0 -7 2.66699 -3 8l107 133c0.666992 2.66699 3 4 7 4h28c6.66699 0 7.66699 -2.33301 3 -7z" />
    <glyph glyph-name="Ocircumflex" unicode="&#xd4;" horiz-adv-x="665" 
d="M593 224c0 -68 -24.001 -124 -72.001 -168s-110.667 -66 -188 -66c-78 0 -141 22 -189 66s-72 100 -72 168v259c0 72 23.833 130.333 71.5 175s110.834 67 189.501 67c78 0 140.833 -22.333 188.5 -67s71.5 -103 71.5 -175v-259zM104.999 224
c0 -59.333 20.8311 -107.833 62.498 -145.5s96.834 -56.5 165.501 -56.5c68 0 122.833 18.833 164.5 56.5s62.5 86.167 62.5 145.5v259c0 63.333 -20.5 114.333 -61.5 153s-96.167 58 -165.5 58s-124.666 -19.333 -165.999 -58s-62 -89.667 -62 -153v-259zM208.997 789h-21
c-6.66699 0 -8 2.66699 -4 8l130 133c2 2.66699 4.66699 4 8 4h22c2.66699 0 5.33398 -1.33301 8.00098 -4l129 -133c2 -2 2.66699 -3.83301 2 -5.5s-2.33398 -2.5 -5.00098 -2.5h-21c-3.33301 0 -6.33301 1.33301 -9 4l-115 114l-115 -114
c-2.66699 -2.66699 -5.66699 -4 -9 -4z" />
    <glyph glyph-name="Otilde" unicode="&#xd5;" horiz-adv-x="665" 
d="M593 224c0 -68 -24.001 -124 -72.001 -168s-110.667 -66 -188 -66c-78 0 -141 22 -189 66s-72 100 -72 168v259c0 72 23.833 130.333 71.5 175s110.834 67 189.501 67c78 0 140.833 -22.333 188.5 -67s71.5 -103 71.5 -175v-259zM104.999 224
c0 -59.333 20.8311 -107.833 62.498 -145.5s96.834 -56.5 165.501 -56.5c68 0 122.833 18.833 164.5 56.5s62.5 86.167 62.5 145.5v259c0 63.333 -20.5 114.333 -61.5 153s-96.167 58 -165.5 58s-124.666 -19.333 -165.999 -58s-62 -89.667 -62 -153v-259zM468.997 875
c-4.66699 -14 -13.3311 -26.333 -25.998 -37s-26.667 -16 -42 -16c-17.333 0 -40 7.66699 -68 23s-49.667 23 -65 23c-19.333 0 -35 -12 -47 -36c-1.33301 -3.33301 -4 -4.33301 -8 -3l-12 6c-4 2 -5.33301 5 -4 9c5.33301 14 14.166 26 26.499 36s26.833 15 43.5 15
c14.667 0 38 -8 70 -24c30.667 -14.667 51 -22 61 -22c19.333 0 35 12.333 47 37c2 2.66699 4.66699 3.66699 8 3l12 -6c3.33301 -2 4.66602 -4.66699 3.99902 -8z" />
    <glyph glyph-name="Odieresis" unicode="&#xd6;" horiz-adv-x="665" 
d="M593 224c0 -68 -24.001 -124 -72.001 -168s-110.667 -66 -188 -66c-78 0 -141 22 -189 66s-72 100 -72 168v259c0 72 23.833 130.333 71.5 175s110.834 67 189.501 67c78 0 140.833 -22.333 188.5 -67s71.5 -103 71.5 -175v-259zM104.999 224
c0 -59.333 20.8311 -107.833 62.498 -145.5s96.834 -56.5 165.501 -56.5c68 0 122.833 18.833 164.5 56.5s62.5 86.167 62.5 145.5v259c0 63.333 -20.5 114.333 -61.5 153s-96.167 58 -165.5 58s-124.666 -19.333 -165.999 -58s-62 -89.667 -62 -153v-259zM258.997 861
c0 -17.333 -8.66699 -26 -26 -26c-16.667 0 -25 8.66699 -25 26c0 16.667 8.33301 25 25 25c17.333 0 26 -8.33301 26 -25zM457.997 861c0 -17.333 -8.66699 -26 -26 -26c-16.667 0 -25 8.66699 -25 26c0 16.667 8.33301 25 25 25c17.333 0 26 -8.33301 26 -25z" />
    <glyph glyph-name="multiply" unicode="&#xd7;" 
d="M275 311l-174.001 -175c-3.33301 -2 -6.66602 -2 -9.99902 0l-12 13c-1.33301 0.666992 -2 2 -2 4s0.666992 3.66699 2 5l174 175l-174 173c-3.33301 3.33301 -3.33301 6.66602 0 9.99902l12 12c2.66699 2.66699 6 2.66699 10 0l174 -174l174 174
c3.33301 2.66699 6.33301 2.66699 9 0l12 -12c3.33301 -3.33301 3.33301 -6.66602 0 -9.99902l-173 -173l173 -175c1.33301 -1.33301 2 -3 2 -5s-0.666992 -3.33301 -2 -4l-12 -13c-2.66699 -2.66699 -5.66699 -2.66699 -9 0z" />
    <glyph glyph-name="Oslash" unicode="&#xd8;" horiz-adv-x="673" 
d="M135 -52h-18.001c-5.33301 0 -7 2.66699 -5 8l47 90c-58 44.667 -87 104.667 -87 180v257c0 72 24 130.333 72 175s112 67 192 67c59.333 0 111 -13 155 -39l41 78c0.666992 3.33301 3 5 7 5h18c6 0 7.33301 -2.66699 4 -8l-47 -91c58 -44.667 87 -107 87 -187v-257
c0 -68 -24.5 -124.167 -73.5 -168.5s-112.833 -66.5 -191.5 -66.5c-56.667 0 -108 13.333 -154 40l-40 -78c-1.33301 -3.33301 -3.66602 -5 -6.99902 -5zM105.999 226c0 -60.667 23.001 -110.332 69.001 -148.999l301 580c-38.667 24 -85.334 36 -140.001 36
c-70 0 -125.833 -19.333 -167.5 -58s-62.5 -89.334 -62.5 -152.001v-257zM198 60.002c40 -24.667 86.001 -37 138.001 -37c69.333 0 125.166 19.167 167.499 57.5s63.5 86.833 63.5 145.5v257c0 65.333 -23 117.333 -69 156z" />
    <glyph glyph-name="Ugrave" unicode="&#xd9;" horiz-adv-x="673" 
d="M582 241c0 -75.333 -21.832 -135.666 -65.499 -180.999s-103.834 -68 -180.501 -68s-136.667 22.667 -180 68s-65 105.666 -65 180.999v468c0 4 2.33301 6 7 6h21c4 0 6 -2 6 -6v-467c0 -67.333 18.333 -120.666 55 -159.999s88.667 -59 156 -59s119.5 19.667 156.5 59
s55.5 92.666 55.5 159.999v467c0 4 2 6 6 6h21c4.66699 0 7 -2 7 -6v-468zM350.001 793l-116 134c-4.66699 4.66699 -3.66699 7 3 7h28c4 0 6.33301 -1.33301 7 -4l107 -133c4 -5.33301 3 -8 -3 -8h-18c-3.33301 0 -6 1.33301 -8 4z" />
    <glyph glyph-name="Uacute" unicode="&#xda;" horiz-adv-x="673" 
d="M582 241c0 -75.333 -21.832 -135.666 -65.499 -180.999s-103.834 -68 -180.501 -68s-136.667 22.667 -180 68s-65 105.666 -65 180.999v468c0 4 2.33301 6 7 6h21c4 0 6 -2 6 -6v-467c0 -67.333 18.333 -120.666 55 -159.999s88.667 -59 156 -59s119.5 19.667 156.5 59
s55.5 92.666 55.5 159.999v467c0 4 2 6 6 6h21c4.66699 0 7 -2 7 -6v-468zM436.001 927l-116 -134c-2 -2.66699 -4.66699 -4 -8 -4h-18c-6 0 -7 2.66699 -3 8l107 133c0.666992 2.66699 3 4 7 4h28c6.66699 0 7.66699 -2.33301 3 -7z" />
    <glyph glyph-name="Ucircumflex" unicode="&#xdb;" horiz-adv-x="673" 
d="M582 241c0 -75.333 -21.832 -135.666 -65.499 -180.999s-103.834 -68 -180.501 -68s-136.667 22.667 -180 68s-65 105.666 -65 180.999v468c0 4 2.33301 6 7 6h21c4 0 6 -2 6 -6v-467c0 -67.333 18.333 -120.666 55 -159.999s88.667 -59 156 -59s119.5 19.667 156.5 59
s55.5 92.666 55.5 159.999v467c0 4 2 6 6 6h21c4.66699 0 7 -2 7 -6v-468zM213.001 789h-21c-6.66699 0 -8 2.66699 -4 8l130 133c2 2.66699 4.66699 4 8 4h22c2.66699 0 5.33398 -1.33301 8.00098 -4l129 -133c2 -2 2.66699 -3.83301 2 -5.5s-2.33398 -2.5 -5.00098 -2.5
h-21c-3.33301 0 -6.33301 1.33301 -9 4l-115 114l-115 -114c-2.66699 -2.66699 -5.66699 -4 -9 -4z" />
    <glyph glyph-name="Udieresis" unicode="&#xdc;" horiz-adv-x="673" 
d="M582 241c0 -75.333 -21.832 -135.666 -65.499 -180.999s-103.834 -68 -180.501 -68s-136.667 22.667 -180 68s-65 105.666 -65 180.999v468c0 4 2.33301 6 7 6h21c4 0 6 -2 6 -6v-467c0 -67.333 18.333 -120.666 55 -159.999s88.667 -59 156 -59s119.5 19.667 156.5 59
s55.5 92.666 55.5 159.999v467c0 4 2 6 6 6h21c4.66699 0 7 -2 7 -6v-468zM263.001 861c0 -17.333 -8.66699 -26 -26 -26c-16.667 0 -25 8.66699 -25 26c0 16.667 8.33301 25 25 25c17.333 0 26 -8.33301 26 -25zM462.001 861c0 -17.333 -8.66699 -26 -26 -26
c-16.667 0 -25 8.66699 -25 26c0 16.667 8.33301 25 25 25c17.333 0 26 -8.33301 26 -25z" />
    <glyph glyph-name="Yacute" unicode="&#xdd;" horiz-adv-x="536" 
d="M278 0h-21.001c-4 0 -6 2 -6 6v277l-241 424c-2 5.33301 -0.333008 8 5 8h24c4 0 6.33301 -1.33301 7 -4l222 -395l222 395c0.666992 2.66699 3.33398 4 8.00098 4h23c5.33301 0 7 -2.66699 5 -8l-241 -424v-277c0 -4 -2.33301 -6 -7 -6zM370.999 927l-116 -134
c-2 -2.66699 -4.66699 -4 -8 -4h-18c-6 0 -7 2.66699 -3 8l107 133c0.666992 2.66699 3 4 7 4h28c6.66699 0 7.66699 -2.33301 3 -7z" />
    <glyph glyph-name="Thorn" unicode="&#xde;" horiz-adv-x="625" 
d="M125 0h-21c-4.66699 0 -7 2 -7 6v703c0 4 2.33301 6 7 6h21c4 0 6 -2 6 -6v-120h194c78 0 138.167 -19.333 180.5 -58s63.5 -92 63.5 -160c0 -69.333 -21.333 -123 -64 -161s-102.667 -57 -180 -57h-194v-147c0 -4 -2 -6 -6 -6zM131 557v-372h192c69.333 0 122 16 158 48
s54 78 54 138s-18 106 -54 138s-88.667 48 -158 48h-192z" />
    <glyph glyph-name="germandbls" unicode="&#xdf;" horiz-adv-x="536" 
d="M458 538c0 -82.667 -35.667 -135.333 -107 -158c90 -22 135 -84 135 -186c0 -64.667 -19 -114.667 -57 -150s-91.667 -53 -161 -53c-37.333 0 -73.333 7.66699 -108 23c-3.33301 0.666992 -5 3 -5 7v19c0 4.66699 2.33301 6 7 4c35.333 -14.667 70 -22 104 -22
c61.333 0 108 14.667 140 44s48 72.333 48 129c0 49.333 -13.667 89.833 -41 121.5s-72.333 47.5 -135 47.5h-106c-4 0 -6 2 -6 6v17c0 4 2 6 6 6h106c52.667 0 90.5 14.167 113.5 42.5s34.5 62.5 34.5 102.5c0 105.333 -54 158 -162 158
c-50.667 0 -89.167 -14.333 -115.5 -43s-39.5 -71 -39.5 -127v-520c0 -4 -2 -6 -6 -6h-20c-4 0 -6 2 -6 6v520c0 64.667 16.333 114 49 148s78.667 51 138 51c61.333 0 109 -16 143 -48s51 -78.333 51 -139z" />
    <glyph glyph-name="agrave" unicode="&#xe0;" horiz-adv-x="500" 
d="M66 473c48.667 34 108.333 51 179 51c61.333 0 107.5 -16.167 138.5 -48.5s46.5 -77.5 46.5 -135.5v-308c0 -4 -1.66699 -6.33301 -5 -7c-54.667 -23.333 -115 -35 -181 -35c-60 0 -109.167 14.333 -147.5 43s-57.5 67.667 -57.5 117c0 50 18 88.5 54 115.5
s86.333 40.5 151 40.5c46.667 0 98 -6.33301 154 -19v52c0 103.333 -51.333 155 -154 155c-60 0 -113.333 -14.667 -160 -44c-3.33301 -2 -6.33301 -1.66699 -9 1l-9 14c-1.33301 4 -1.33301 6.66699 0 8zM70.999 150c0 -39.333 16.001 -71 48.001 -95s73.667 -36 125 -36
c53.333 0 104.666 9.33301 153.999 28v212c-52 12 -103.333 18 -154 18c-56 0 -98.833 -11 -128.5 -33s-44.5 -53.333 -44.5 -94zM277 599h-14.9971c-2.66699 0 -5.33398 1.33301 -8.00098 4l-90 134c-3.33301 5.33301 -2.33301 8 3 8h25
c3.33301 0 5.66602 -1.33301 6.99902 -4l83 -134c3.33301 -5.33301 1.66602 -8 -5.00098 -8z" />
    <glyph glyph-name="aacute" unicode="&#xe1;" horiz-adv-x="500" 
d="M66 473c48.667 34 108.333 51 179 51c61.333 0 107.5 -16.167 138.5 -48.5s46.5 -77.5 46.5 -135.5v-308c0 -4 -1.66699 -6.33301 -5 -7c-54.667 -23.333 -115 -35 -181 -35c-60 0 -109.167 14.333 -147.5 43s-57.5 67.667 -57.5 117c0 50 18 88.5 54 115.5
s86.333 40.5 151 40.5c46.667 0 98 -6.33301 154 -19v52c0 103.333 -51.333 155 -154 155c-60 0 -113.333 -14.667 -160 -44c-3.33301 -2 -6.33301 -1.66699 -9 1l-9 14c-1.33301 4 -1.33301 6.66699 0 8zM70.999 150c0 -39.333 16.001 -71 48.001 -95s73.667 -36 125 -36
c53.333 0 104.666 9.33301 153.999 28v212c-52 12 -103.333 18 -154 18c-56 0 -98.833 -11 -128.5 -33s-44.5 -53.333 -44.5 -94zM223 599h-14.9971c-6.66699 0 -8.33398 2.66699 -5.00098 8l83 134c1.33301 2.66699 3.66602 4 6.99902 4h25
c5.33301 0 6.33301 -2.66699 3 -8l-90 -134c-2.66699 -2.66699 -5.33398 -4 -8.00098 -4z" />
    <glyph glyph-name="acircumflex" unicode="&#xe2;" horiz-adv-x="500" 
d="M66 473c48.667 34 108.333 51 179 51c61.333 0 107.5 -16.167 138.5 -48.5s46.5 -77.5 46.5 -135.5v-308c0 -4 -1.66699 -6.33301 -5 -7c-54.667 -23.333 -115 -35 -181 -35c-60 0 -109.167 14.333 -147.5 43s-57.5 67.667 -57.5 117c0 50 18 88.5 54 115.5
s86.333 40.5 151 40.5c46.667 0 98 -6.33301 154 -19v52c0 103.333 -51.333 155 -154 155c-60 0 -113.333 -14.667 -160 -44c-3.33301 -2 -6.33301 -1.66699 -9 1l-9 14c-1.33301 4 -1.33301 6.66699 0 8zM70.999 150c0 -39.333 16.001 -71 48.001 -95s73.667 -36 125 -36
c53.333 0 104.666 9.33301 153.999 28v212c-52 12 -103.333 18 -154 18c-56 0 -98.833 -11 -128.5 -33s-44.5 -53.333 -44.5 -94zM144 599h-20.002c-6 0 -7.33301 2.66699 -4 8l114 134c2.66699 2.66699 5.33398 4 8.00098 4h16c2.66699 0 5.33398 -1.33301 8.00098 -4
l113 -134c4 -5.33301 3 -8 -3 -8h-21c-3.33301 0 -5.66602 1.33301 -6.99902 4l-98 117l-98 -117c-2.66699 -2.66699 -5.33398 -4 -8.00098 -4z" />
    <glyph glyph-name="atilde" unicode="&#xe3;" horiz-adv-x="500" 
d="M66 473c48.667 34 108.333 51 179 51c61.333 0 107.5 -16.167 138.5 -48.5s46.5 -77.5 46.5 -135.5v-308c0 -4 -1.66699 -6.33301 -5 -7c-54.667 -23.333 -115 -35 -181 -35c-60 0 -109.167 14.333 -147.5 43s-57.5 67.667 -57.5 117c0 50 18 88.5 54 115.5
s86.333 40.5 151 40.5c46.667 0 98 -6.33301 154 -19v52c0 103.333 -51.333 155 -154 155c-60 0 -113.333 -14.667 -160 -44c-3.33301 -2 -6.33301 -1.66699 -9 1l-9 14c-1.33301 4 -1.33301 6.66699 0 8zM70.999 150c0 -39.333 16.001 -71 48.001 -95s73.667 -36 125 -36
c53.333 0 104.666 9.33301 153.999 28v212c-52 12 -103.333 18 -154 18c-56 0 -98.833 -11 -128.5 -33s-44.5 -53.333 -44.5 -94zM380 675c-4.66699 -14.667 -13.1621 -27.167 -25.4951 -37.5s-26.5 -15.5 -42.5 -15.5c-14.667 0 -37.334 7.66699 -68.001 23
c-28 15.333 -49.667 23 -65 23c-21.333 0 -37 -12 -47 -36c-1.33301 -3.33301 -4 -4.33301 -8 -3l-12 6c-3.33301 2.66699 -4.33301 5.66699 -3 9c5.33301 14 14.166 26 26.499 36s26.5 15 42.5 15c14 0 37.667 -8 71 -24c29.333 -14.667 49.666 -22 60.999 -22
c20 0 35.667 12.333 47 37c1.33301 4 3.66602 5 6.99902 3l12 -6c3.33301 -2 4.66602 -4.66699 3.99902 -8z" />
    <glyph glyph-name="adieresis" unicode="&#xe4;" horiz-adv-x="500" 
d="M66 473c48.667 34 108.333 51 179 51c61.333 0 107.5 -16.167 138.5 -48.5s46.5 -77.5 46.5 -135.5v-308c0 -4 -1.66699 -6.33301 -5 -7c-54.667 -23.333 -115 -35 -181 -35c-60 0 -109.167 14.333 -147.5 43s-57.5 67.667 -57.5 117c0 50 18 88.5 54 115.5
s86.333 40.5 151 40.5c46.667 0 98 -6.33301 154 -19v52c0 103.333 -51.333 155 -154 155c-60 0 -113.333 -14.667 -160 -44c-3.33301 -2 -6.33301 -1.66699 -9 1l-9 14c-1.33301 4 -1.33301 6.66699 0 8zM70.999 150c0 -39.333 16.001 -71 48.001 -95s73.667 -36 125 -36
c53.333 0 104.666 9.33301 153.999 28v212c-52 12 -103.333 18 -154 18c-56 0 -98.833 -11 -128.5 -33s-44.5 -53.333 -44.5 -94zM185 652c0 -16.667 -8.33301 -25 -25 -25s-25 8.33301 -25 25c0 17.333 8.33301 26 25 26s25 -8.66699 25 -26zM358 652
c0 -16.667 -8.33301 -25 -25 -25c-7.33301 0 -13.5 2.33301 -18.5 7s-7.5 10.667 -7.5 18c0 8 2.5 14.333 7.5 19s11.167 7 18.5 7c16.667 0 25 -8.66699 25 -26z" />
    <glyph glyph-name="aring" unicode="&#xe5;" horiz-adv-x="500" 
d="M66 473c48.667 34 108.333 51 179 51c61.333 0 107.5 -16.167 138.5 -48.5s46.5 -77.5 46.5 -135.5v-308c0 -4 -1.66699 -6.33301 -5 -7c-54.667 -23.333 -115 -35 -181 -35c-60 0 -109.167 14.333 -147.5 43s-57.5 67.667 -57.5 117c0 50 18 88.5 54 115.5
s86.333 40.5 151 40.5c46.667 0 98 -6.33301 154 -19v52c0 103.333 -51.333 155 -154 155c-60 0 -113.333 -14.667 -160 -44c-3.33301 -2 -6.33301 -1.66699 -9 1l-9 14c-1.33301 4 -1.33301 6.66699 0 8zM70.999 150c0 -39.333 16.001 -71 48.001 -95s73.667 -36 125 -36
c53.333 0 104.666 9.33301 153.999 28v212c-52 12 -103.333 18 -154 18c-56 0 -98.833 -11 -128.5 -33s-44.5 -53.333 -44.5 -94zM342 669c0 -28 -8.83203 -50.333 -26.499 -67s-40.834 -25 -69.501 -25s-52 8.33301 -70 25s-27 39 -27 67s9 50.333 27 67s41.333 25 70 25
c28 0 51 -8.33301 69 -25s27 -39 27 -67zM174.001 669c0 -20 6.66699 -36.333 20 -49s30.666 -19 51.999 -19c20.667 0 37.667 6.33301 51 19s20 29 20 49s-6.66699 36.333 -20 49s-30.333 19 -51 19c-21.333 0 -38.666 -6.33301 -51.999 -19s-20 -29 -20 -49z" />
    <glyph glyph-name="ae" unicode="&#xe6;" horiz-adv-x="835" 
d="M579 -9c-63.333 0 -113.665 22 -150.998 66c-52 -44.667 -114.333 -67 -187 -67c-58.667 0 -107 14.5 -145 43.5s-57 67.833 -57 116.5c0 48 18 85.333 54 112s85.333 40 148 40c40.667 0 91 -6 151 -18v58c0 101.333 -50.333 152 -151 152
c-60 0 -113.667 -14.667 -161 -44c-2.66699 -2 -5.33398 -1.66699 -8.00098 1l-8 14c-1.33301 4 -1 7 1 9c49.333 33.333 108.666 50 177.999 50c88.667 0 144.667 -37.333 168 -112c12.667 35.333 34.667 62.833 66 82.5s68.666 29.5 111.999 29.5
c58 0 105 -16.667 141 -50s54 -79.333 54 -138v-77c0 -4 -2.33301 -6 -7 -6h-353v-89c0 -46 14.333 -81.333 43 -106s66.334 -37 113.001 -37c68.667 0 127 23.333 175 70c3.33301 3.33301 6.33301 3 9 -1l11 -13c3.33301 -3.33301 3 -6 -1 -8
c-54.667 -52 -119.667 -78 -195 -78zM72.001 150c0 -39.333 15.832 -71.001 47.499 -95.001s72.167 -36 121.5 -36c62.667 0 119.334 20.333 170.001 61c-12.667 25.333 -19 53 -19 83v92c-52 12 -102 18 -150 18c-55.333 0 -97.5 -10.667 -126.5 -32
s-43.5 -51.666 -43.5 -90.999zM424 333.999v-53h328v54c0 50 -14.833 89 -44.5 117s-69.5 42 -119.5 42s-89.833 -14 -119.5 -42s-44.5 -67.333 -44.5 -118z" />
    <glyph glyph-name="ccedilla" unicode="&#xe7;" horiz-adv-x="463" 
d="M433 61c2.66699 -4 2 -6.99805 -2 -8.99805c-48 -38.667 -102 -59.334 -162 -62.001l-18 -49c28.667 0 51 -5.83301 67 -17.5s24 -28.5 24 -50.5c0 -22.667 -8.83301 -41 -26.5 -55s-41.5 -21 -71.5 -21c-20 0 -39.667 3 -59 9c-3.33301 1.33301 -5 4 -5 8v11
c0 4 2.33301 5.66699 7 5c19.333 -6 37.666 -9 54.999 -9c47.333 0 71 17.667 71 53c0 16.667 -6.33301 29 -19 37s-33.667 12 -63 12c-3.33301 0 -6 1.33301 -8 4c-1.33301 1.33301 -1.33301 3.66602 0 6.99902l21 56c-57.333 2.66699 -102.666 21.5 -135.999 56.5
s-50 77.833 -50 128.5v164c0 53.333 18 97.5 54 132.5s84.333 52.5 145 52.5c57.333 0 110.666 -17.667 159.999 -53c3.33301 -2.66699 4 -5.66699 2 -9l-9 -14c-3.33301 -2.66699 -6.33301 -3 -9 -1c-44 31.333 -92.333 47 -145 47c-52 0 -92.667 -14.667 -122 -44
s-44 -66.333 -44 -111v-164c0 -44.667 14.833 -81.834 44.5 -111.501s70.167 -44.5 121.5 -44.5c54.667 0 107.334 18.667 158.001 56c4 2.66699 7 2.33398 9 -0.999023z" />
    <glyph glyph-name="egrave" unicode="&#xe8;" horiz-adv-x="507" 
d="M456 334l0.000976562 -89.999c0 -4 -2 -6 -6 -6h-360v-66c0 -46.667 16.167 -83.834 48.5 -111.501s72.166 -41.5 119.499 -41.5c61.333 0 118 23.333 170 70c3.33301 2 6 1.66699 8 -1l11 -13c3.33301 -3.33301 3 -6 -1 -8c-55.333 -51.333 -118.333 -77 -189 -77
c-55.333 0 -102.333 16.5 -141 49.5s-58 77.167 -58 132.5v162c0 59.333 18.167 105.833 54.5 139.5s84.5 50.5 144.5 50.5s108.167 -16.833 144.5 -50.5s54.5 -80.167 54.5 -139.5zM424.001 334.001c0 50 -15.167 89.167 -45.5 117.5s-70.833 42.5 -121.5 42.5
c-51.333 0 -92 -14 -122 -42s-45 -67.333 -45 -118v-68h334v68zM285.001 599.001h-14.9971c-2.66699 0 -5.33398 1.33301 -8.00098 4l-90 134c-3.33301 5.33301 -2.33301 8 3 8h25c3.33301 0 5.66602 -1.33301 6.99902 -4l83 -134c3.33301 -5.33301 1.66602 -8 -5.00098 -8z
" />
    <glyph glyph-name="eacute" unicode="&#xe9;" horiz-adv-x="507" 
d="M456 334l0.000976562 -89.999c0 -4 -2 -6 -6 -6h-360v-66c0 -46.667 16.167 -83.834 48.5 -111.501s72.166 -41.5 119.499 -41.5c61.333 0 118 23.333 170 70c3.33301 2 6 1.66699 8 -1l11 -13c3.33301 -3.33301 3 -6 -1 -8c-55.333 -51.333 -118.333 -77 -189 -77
c-55.333 0 -102.333 16.5 -141 49.5s-58 77.167 -58 132.5v162c0 59.333 18.167 105.833 54.5 139.5s84.5 50.5 144.5 50.5s108.167 -16.833 144.5 -50.5s54.5 -80.167 54.5 -139.5zM424.001 334.001c0 50 -15.167 89.167 -45.5 117.5s-70.833 42.5 -121.5 42.5
c-51.333 0 -92 -14 -122 -42s-45 -67.333 -45 -118v-68h334v68zM230.001 599.001h-14.9971c-6.66699 0 -8.33398 2.66699 -5.00098 8l83 134c1.33301 2.66699 3.66602 4 6.99902 4h25c5.33301 0 6.33301 -2.66699 3 -8l-90 -134c-2.66699 -2.66699 -5.33398 -4 -8.00098 -4z
" />
    <glyph glyph-name="ecircumflex" unicode="&#xea;" horiz-adv-x="507" 
d="M456 334l0.000976562 -89.999c0 -4 -2 -6 -6 -6h-360v-66c0 -46.667 16.167 -83.834 48.5 -111.501s72.166 -41.5 119.499 -41.5c61.333 0 118 23.333 170 70c3.33301 2 6 1.66699 8 -1l11 -13c3.33301 -3.33301 3 -6 -1 -8c-55.333 -51.333 -118.333 -77 -189 -77
c-55.333 0 -102.333 16.5 -141 49.5s-58 77.167 -58 132.5v162c0 59.333 18.167 105.833 54.5 139.5s84.5 50.5 144.5 50.5s108.167 -16.833 144.5 -50.5s54.5 -80.167 54.5 -139.5zM424.001 334.001c0 50 -15.167 89.167 -45.5 117.5s-70.833 42.5 -121.5 42.5
c-51.333 0 -92 -14 -122 -42s-45 -67.333 -45 -118v-68h334v68zM151.001 599.001h-20.002c-6 0 -7.33301 2.66699 -4 8l114 134c2.66699 2.66699 5.33398 4 8.00098 4h16c2.66699 0 5.33398 -1.33301 8.00098 -4l113 -134c4 -5.33301 3 -8 -3 -8h-21
c-3.33301 0 -5.66602 1.33301 -6.99902 4l-98 117l-98 -117c-2.66699 -2.66699 -5.33398 -4 -8.00098 -4z" />
    <glyph glyph-name="edieresis" unicode="&#xeb;" horiz-adv-x="507" 
d="M456 334l0.000976562 -89.999c0 -4 -2 -6 -6 -6h-360v-66c0 -46.667 16.167 -83.834 48.5 -111.501s72.166 -41.5 119.499 -41.5c61.333 0 118 23.333 170 70c3.33301 2 6 1.66699 8 -1l11 -13c3.33301 -3.33301 3 -6 -1 -8c-55.333 -51.333 -118.333 -77 -189 -77
c-55.333 0 -102.333 16.5 -141 49.5s-58 77.167 -58 132.5v162c0 59.333 18.167 105.833 54.5 139.5s84.5 50.5 144.5 50.5s108.167 -16.833 144.5 -50.5s54.5 -80.167 54.5 -139.5zM424.001 334.001c0 50 -15.167 89.167 -45.5 117.5s-70.833 42.5 -121.5 42.5
c-51.333 0 -92 -14 -122 -42s-45 -67.333 -45 -118v-68h334v68zM196.001 652.001c0 -16.667 -8.33301 -25 -25 -25s-25 8.33301 -25 25c0 17.333 8.33301 26 25 26s25 -8.66699 25 -26zM369.001 652.001c0 -16.667 -8.33301 -25 -25 -25c-7.33301 0 -13.5 2.33301 -18.5 7
s-7.5 10.667 -7.5 18c0 8 2.5 14.333 7.5 19s11.167 7 18.5 7c16.667 0 25 -8.66699 25 -26z" />
    <glyph glyph-name="igrave" unicode="&#xec;" horiz-adv-x="186" 
d="M103 0h-20c-4 0 -6 2 -6 6v501c0 4.66699 2 7 6 7h20c4 0 6 -2.33301 6 -7v-501c0 -4 -2 -6 -6 -6zM117 599h-14.9971c-2.66699 0 -5.33398 1.33301 -8.00098 4l-90 134c-3.33301 5.33301 -2.33301 8 3 8h25c3.33301 0 5.66602 -1.33301 6.99902 -4l83 -134
c3.33301 -5.33301 1.66602 -8 -5.00098 -8z" />
    <glyph glyph-name="iacute" unicode="&#xed;" horiz-adv-x="186" 
d="M103 0h-20c-4 0 -6 2 -6 6v501c0 4.66699 2 7 6 7h20c4 0 6 -2.33301 6 -7v-501c0 -4 -2 -6 -6 -6zM89 599h-14.9971c-6.66699 0 -8.33398 2.66699 -5.00098 8l83 134c1.33301 2.66699 3.66602 4 6.99902 4h25c5.33301 0 6.33301 -2.66699 3 -8l-90 -134
c-2.66699 -2.66699 -5.33398 -4 -8.00098 -4z" />
    <glyph glyph-name="icircumflex" unicode="&#xee;" horiz-adv-x="186" 
d="M102 0h-19c-4 0 -6 2 -6 6v501c0 4.66699 2 7 6 7h19c4.66699 0 7 -2.33301 7 -7v-501c0 -4 -2.33301 -6 -7 -6zM-1 599h-19.001c-5.33301 0 -6.66602 2.66699 -3.99902 8l100 134c1.33301 2.66699 3.66602 4 6.99902 4h20c2.66699 0 5.33398 -1.33301 8.00098 -4
l100 -134c2.66699 -5.33301 1.33398 -8 -3.99902 -8h-19c-4 0 -6.66699 1.33301 -8 4l-87 120l-86 -120c-2.66699 -2.66699 -5.33398 -4 -8.00098 -4z" />
    <glyph glyph-name="idieresis" unicode="&#xef;" horiz-adv-x="186" 
d="M102 0h-19c-4 0 -6 2 -6 6v501c0 4.66699 2 7 6 7h19c4.66699 0 7 -2.33301 7 -7v-501c0 -4 -2.33301 -6 -7 -6zM54 652c0 -7.33301 -2.33301 -13.333 -7 -18s-10.667 -7 -18 -7s-13.333 2.33301 -18 7s-7 10.667 -7 18s2.33301 13.5 7 18.5s10.667 7.5 18 7.5
s13.333 -2.5 18 -7.5s7 -11.167 7 -18.5zM181 652c0 -7.33301 -2.33301 -13.333 -7 -18s-10.667 -7 -18 -7s-13.333 2.33301 -18 7s-7 10.667 -7 18s2.33301 13.5 7 18.5s10.667 7.5 18 7.5s13.333 -2.5 18 -7.5s7 -11.167 7 -18.5z" />
    <glyph glyph-name="eth" unicode="&#xf0;" horiz-adv-x="536" 
d="M448 706l-82.001 -64.002c67.333 -62 101 -159.667 101 -293v-171c0 -55.333 -18 -100.5 -54 -135.5s-86.333 -52.5 -151 -52.5s-115 17.667 -151 53s-54 80.333 -54 135v134c0 54 18 98.667 54 134s85.333 53 148 53c83.333 0 142 -29.333 176 -88
c-7.33301 94.667 -38 165.334 -92 212.001l-112 -87c-4 -2.66699 -6.66699 -2.66699 -8 0l-8 10c-2.66699 2.66699 -2.66699 5.66699 0 9l107 84c-36.667 26 -86.667 46.667 -150 62c-4 1.33301 -5.66699 3.66602 -5 6.99902l2 16c1.33301 4.66699 4 6.33398 8 5.00098
c72.667 -16 129.334 -39.667 170.001 -71l86 67c4 2.66699 6.66699 2.33398 8 -0.999023l7 -9c2.66699 -3.33301 2.66699 -6.33301 0 -9zM88.999 177.998c0 -46.667 15.001 -84.834 45.001 -114.501s72.667 -44.5 128 -44.5c56 0 98.833 14.833 128.5 44.5
s44.5 67.834 44.5 114.501v134c0.666992 47.333 -13.833 85.5 -43.5 114.5s-72.834 43.5 -129.501 43.5c-55.333 0 -98 -14.833 -128 -44.5s-45 -67.5 -45 -113.5v-134z" />
    <glyph glyph-name="ntilde" unicode="&#xf1;" horiz-adv-x="547" 
d="M102 0h-20.001c-4 0 -6 2 -6 6v472c0 3.33301 1.66699 6 5 8c56.667 25.333 117.334 38 182.001 38c67.333 0 119.5 -17 156.5 -51s55.5 -84.333 55.5 -151v-316c0 -4 -2 -6 -6 -6h-19c-4.66699 0 -7 2 -7 6v315c0 57.333 -15.5 100.5 -46.5 129.5
s-75.5 43.5 -133.5 43.5c-53.333 0 -105 -9.66699 -155 -29v-459c0 -4 -2 -6 -6 -6zM407.999 675c-4.66699 -14.667 -13.1621 -27.167 -25.4951 -37.5s-26.5 -15.5 -42.5 -15.5c-14.667 0 -37.334 7.66699 -68.001 23c-28 15.333 -49.667 23 -65 23
c-21.333 0 -37 -12 -47 -36c-1.33301 -3.33301 -4 -4.33301 -8 -3l-12 6c-3.33301 2.66699 -4.33301 5.66699 -3 9c5.33301 14 14.166 26 26.499 36s26.5 15 42.5 15c14 0 37.667 -8 71 -24c29.333 -14.667 49.666 -22 60.999 -22c20 0 35.667 12.333 47 37
c1.33301 4 3.66602 5 6.99902 3l12 -6c3.33301 -2 4.66602 -4.66699 3.99902 -8z" />
    <glyph glyph-name="ograve" unicode="&#xf2;" horiz-adv-x="532" 
d="M474 178c0 -55.333 -18.167 -100.5 -54.5 -135.5s-87.5 -52.5 -153.5 -52.5c-65.333 0 -116.333 17.667 -153 53s-55 80.333 -55 135v158c0 54.667 18.333 99.667 55 135s87.667 53 153 53c66 0 117.167 -17.667 153.5 -53s54.5 -80.333 54.5 -135v-158zM90 178
c0 -46.667 15.167 -84.834 45.5 -114.501s73.833 -44.5 130.5 -44.5s100.167 14.833 130.5 44.5s45.5 67.834 45.5 114.501v158c0 46 -15.167 83.833 -45.5 113.5s-73.833 44.5 -130.5 44.5c-56 0 -99.333 -14.833 -130 -44.5s-46 -67.5 -46 -113.5v-158zM290 599h-14.9971
c-2.66699 0 -5.33398 1.33301 -8.00098 4l-90 134c-3.33301 5.33301 -2.33301 8 3 8h25c3.33301 0 5.66602 -1.33301 6.99902 -4l83 -134c3.33301 -5.33301 1.66602 -8 -5.00098 -8z" />
    <glyph glyph-name="oacute" unicode="&#xf3;" horiz-adv-x="532" 
d="M474 178c0 -55.333 -18.167 -100.5 -54.5 -135.5s-87.5 -52.5 -153.5 -52.5c-65.333 0 -116.333 17.667 -153 53s-55 80.333 -55 135v158c0 54.667 18.333 99.667 55 135s87.667 53 153 53c66 0 117.167 -17.667 153.5 -53s54.5 -80.333 54.5 -135v-158zM90 178
c0 -46.667 15.167 -84.834 45.5 -114.501s73.833 -44.5 130.5 -44.5s100.167 14.833 130.5 44.5s45.5 67.834 45.5 114.501v158c0 46 -15.167 83.833 -45.5 113.5s-73.833 44.5 -130.5 44.5c-56 0 -99.333 -14.833 -130 -44.5s-46 -67.5 -46 -113.5v-158zM239 599h-14.9971
c-6.66699 0 -8.33398 2.66699 -5.00098 8l83 134c1.33301 2.66699 3.66602 4 6.99902 4h25c5.33301 0 6.33301 -2.66699 3 -8l-90 -134c-2.66699 -2.66699 -5.33398 -4 -8.00098 -4z" />
    <glyph glyph-name="ocircumflex" unicode="&#xf4;" horiz-adv-x="532" 
d="M474 178c0 -55.333 -18.167 -100.5 -54.5 -135.5s-87.5 -52.5 -153.5 -52.5c-65.333 0 -116.333 17.667 -153 53s-55 80.333 -55 135v158c0 54.667 18.333 99.667 55 135s87.667 53 153 53c66 0 117.167 -17.667 153.5 -53s54.5 -80.333 54.5 -135v-158zM90 178
c0 -46.667 15.167 -84.834 45.5 -114.501s73.833 -44.5 130.5 -44.5s100.167 14.833 130.5 44.5s45.5 67.834 45.5 114.501v158c0 46 -15.167 83.833 -45.5 113.5s-73.833 44.5 -130.5 44.5c-56 0 -99.333 -14.833 -130 -44.5s-46 -67.5 -46 -113.5v-158zM160 599h-20.002
c-6 0 -7.33301 2.66699 -4 8l114 134c2.66699 2.66699 5.33398 4 8.00098 4h16c2.66699 0 5.33398 -1.33301 8.00098 -4l113 -134c4 -5.33301 3 -8 -3 -8h-21c-3.33301 0 -5.66602 1.33301 -6.99902 4l-98 117l-98 -117c-2.66699 -2.66699 -5.33398 -4 -8.00098 -4z" />
    <glyph glyph-name="otilde" unicode="&#xf5;" horiz-adv-x="532" 
d="M474 178c0 -55.333 -18.167 -100.5 -54.5 -135.5s-87.5 -52.5 -153.5 -52.5c-65.333 0 -116.333 17.667 -153 53s-55 80.333 -55 135v158c0 54.667 18.333 99.667 55 135s87.667 53 153 53c66 0 117.167 -17.667 153.5 -53s54.5 -80.333 54.5 -135v-158zM90 178
c0 -46.667 15.167 -84.834 45.5 -114.501s73.833 -44.5 130.5 -44.5s100.167 14.833 130.5 44.5s45.5 67.834 45.5 114.501v158c0 46 -15.167 83.833 -45.5 113.5s-73.833 44.5 -130.5 44.5c-56 0 -99.333 -14.833 -130 -44.5s-46 -67.5 -46 -113.5v-158zM402 675
c-4.66699 -14.667 -13.1621 -27.167 -25.4951 -37.5s-26.5 -15.5 -42.5 -15.5c-14.667 0 -37.334 7.66699 -68.001 23c-28 15.333 -49.667 23 -65 23c-21.333 0 -37 -12 -47 -36c-1.33301 -3.33301 -4 -4.33301 -8 -3l-12 6c-3.33301 2.66699 -4.33301 5.66699 -3 9
c5.33301 14 14.166 26 26.499 36s26.5 15 42.5 15c14 0 37.667 -8 71 -24c29.333 -14.667 49.666 -22 60.999 -22c20 0 35.667 12.333 47 37c1.33301 4 3.66602 5 6.99902 3l12 -6c3.33301 -2 4.66602 -4.66699 3.99902 -8z" />
    <glyph glyph-name="odieresis" unicode="&#xf6;" horiz-adv-x="532" 
d="M474 178c0 -55.333 -18.167 -100.5 -54.5 -135.5s-87.5 -52.5 -153.5 -52.5c-65.333 0 -116.333 17.667 -153 53s-55 80.333 -55 135v158c0 54.667 18.333 99.667 55 135s87.667 53 153 53c66 0 117.167 -17.667 153.5 -53s54.5 -80.333 54.5 -135v-158zM90 178
c0 -46.667 15.167 -84.834 45.5 -114.501s73.833 -44.5 130.5 -44.5s100.167 14.833 130.5 44.5s45.5 67.834 45.5 114.501v158c0 46 -15.167 83.833 -45.5 113.5s-73.833 44.5 -130.5 44.5c-56 0 -99.333 -14.833 -130 -44.5s-46 -67.5 -46 -113.5v-158zM205 652
c0 -16.667 -8.33301 -25 -25 -25s-25 8.33301 -25 25c0 17.333 8.33301 26 25 26s25 -8.66699 25 -26zM378 652c0 -16.667 -8.33301 -25 -25 -25c-7.33301 0 -13.5 2.33301 -18.5 7s-7.5 10.667 -7.5 18c0 8 2.5 14.333 7.5 19s11.167 7 18.5 7c16.667 0 25 -8.66699 25 -26
z" />
    <glyph glyph-name="divide" unicode="&#xf7;" 
d="M480 318h-412c-4 0 -6 2 -6 6v19c0 4 2 6 6 6h412c4 0 6 -2 6 -6v-19c0 -4 -2 -6 -6 -6zM301 164c0 -8 -2.5 -14.5 -7.5 -19.5s-11.5 -7.5 -19.5 -7.5c-17.333 0 -26 9 -26 27s8.66699 27 26 27c8 0 14.5 -2.5 19.5 -7.5s7.5 -11.5 7.5 -19.5zM301 494
c0 -8 -2.5 -14.5 -7.5 -19.5s-11.5 -7.5 -19.5 -7.5c-17.333 0 -26 9 -26 27s8.66699 27 26 27c8 0 14.5 -2.5 19.5 -7.5s7.5 -11.5 7.5 -19.5z" />
    <glyph glyph-name="oslash" unicode="&#xf8;" horiz-adv-x="532" 
d="M83 -53h-18.001c-4.66699 0 -6 2.66699 -4 8l54 87c-38 34.667 -57 80 -57 136v158c0 54.667 18.333 99.667 55 135s87.667 53 153 53c49.333 0 91 -10.667 125 -32l51 83c2.66699 2.66699 5.33398 4 8.00098 4h18c4.66699 0 6 -2.66699 4 -8l-59 -95
c40.667 -34 61 -80.667 61 -140v-158c0 -55.333 -18.167 -100.5 -54.5 -135.5s-87.5 -52.5 -153.5 -52.5c-52.667 0 -95.667 12 -129 36l-47 -75c-0.666992 -2.66699 -3 -4 -7 -4zM90.999 178c0 -44.667 13.334 -80.667 40.001 -108l245 395
c-28.667 19.333 -65.334 29 -110.001 29c-56 0 -99.167 -14.833 -129.5 -44.5s-45.5 -67.5 -45.5 -113.5v-158zM266 19c57.333 0 101 14.832 131 44.499s45 67.834 45 114.501v158c0 46.667 -15 84 -45 112l-245 -396c30.667 -22 68.667 -33 114 -33z" />
    <glyph glyph-name="ugrave" unicode="&#xf9;" horiz-adv-x="540" 
d="M439 514l19 0.000976562c4 0 6 -2.33301 6 -7v-471c0 -4.66699 -1.66699 -7.33398 -5 -8.00098c-54.667 -25.333 -114 -38 -178 -38c-65.333 0 -116.333 17.167 -153 51.5s-55 84.5 -55 150.5v315c0 4.66699 2 7 6 7h20c4 0 6 -2.33301 6 -7v-315
c0 -57.333 15.167 -100.5 45.5 -129.5s73.833 -43.5 130.5 -43.5c48.667 0 99 10 151 30v458c0 4.66699 2.33301 7 7 7zM298 599.001h-14.9971c-2.66699 0 -5.33398 1.33301 -8.00098 4l-90 134c-3.33301 5.33301 -2.33301 8 3 8h25c3.33301 0 5.66602 -1.33301 6.99902 -4
l83 -134c3.33301 -5.33301 1.66602 -8 -5.00098 -8z" />
    <glyph glyph-name="uacute" unicode="&#xfa;" horiz-adv-x="540" 
d="M439 514l19 0.000976562c4 0 6 -2.33301 6 -7v-471c0 -4.66699 -1.66699 -7.33398 -5 -8.00098c-54.667 -25.333 -114 -38 -178 -38c-65.333 0 -116.333 17.167 -153 51.5s-55 84.5 -55 150.5v315c0 4.66699 2 7 6 7h20c4 0 6 -2.33301 6 -7v-315
c0 -57.333 15.167 -100.5 45.5 -129.5s73.833 -43.5 130.5 -43.5c48.667 0 99 10 151 30v458c0 4.66699 2.33301 7 7 7zM242 599.001h-14.9971c-6.66699 0 -8.33398 2.66699 -5.00098 8l83 134c1.33301 2.66699 3.66602 4 6.99902 4h25c5.33301 0 6.33301 -2.66699 3 -8
l-90 -134c-2.66699 -2.66699 -5.33398 -4 -8.00098 -4z" />
    <glyph glyph-name="ucircumflex" unicode="&#xfb;" horiz-adv-x="540" 
d="M439 514l19 0.000976562c4 0 6 -2.33301 6 -7v-471c0 -4.66699 -1.66699 -7.33398 -5 -8.00098c-54.667 -25.333 -114 -38 -178 -38c-65.333 0 -116.333 17.167 -153 51.5s-55 84.5 -55 150.5v315c0 4.66699 2 7 6 7h20c4 0 6 -2.33301 6 -7v-315
c0 -57.333 15.167 -100.5 45.5 -129.5s73.833 -43.5 130.5 -43.5c48.667 0 99 10 151 30v458c0 4.66699 2.33301 7 7 7zM163 599.001h-20.002c-6 0 -7.33301 2.66699 -4 8l114 134c2.66699 2.66699 5.33398 4 8.00098 4h16c2.66699 0 5.33398 -1.33301 8.00098 -4l113 -134
c4 -5.33301 3 -8 -3 -8h-21c-3.33301 0 -5.66602 1.33301 -6.99902 4l-98 117l-98 -117c-2.66699 -2.66699 -5.33398 -4 -8.00098 -4z" />
    <glyph glyph-name="udieresis" unicode="&#xfc;" horiz-adv-x="540" 
d="M439 514l19 0.000976562c4 0 6 -2.33301 6 -7v-471c0 -4.66699 -1.66699 -7.33398 -5 -8.00098c-54.667 -25.333 -114 -38 -178 -38c-65.333 0 -116.333 17.167 -153 51.5s-55 84.5 -55 150.5v315c0 4.66699 2 7 6 7h20c4 0 6 -2.33301 6 -7v-315
c0 -57.333 15.167 -100.5 45.5 -129.5s73.833 -43.5 130.5 -43.5c48.667 0 99 10 151 30v458c0 4.66699 2.33301 7 7 7zM208 652.001c0 -16.667 -8.33301 -25 -25 -25s-25 8.33301 -25 25c0 17.333 8.33301 26 25 26s25 -8.66699 25 -26zM381 652.001
c0 -16.667 -8.33301 -25 -25 -25c-7.33301 0 -13.5 2.33301 -18.5 7s-7.5 10.667 -7.5 18c0 8 2.5 14.333 7.5 19s11.167 7 18.5 7c16.667 0 25 -8.66699 25 -26z" />
    <glyph glyph-name="yacute" unicode="&#xfd;" horiz-adv-x="540" 
d="M431 86l-0.00292969 421c0 4.66699 2 7 6 7h20c4 0 6 -2.33301 6 -7v-522c0 -56.667 -16.167 -101.667 -48.5 -135s-80.5 -50 -144.5 -50c-67.333 0 -129.666 26 -186.999 78c-2.66699 2.66699 -2.66699 5.66699 0 9l11 13
c2.66699 3.33301 5.33398 3.66602 8.00098 0.999023c54.667 -47.333 110.667 -71 168 -71c54 0 94.5 13.833 121.5 41.5s40.167 65.834 39.5 114.501v69c-46 -24 -96.667 -36 -152 -36c-63.333 0 -113.666 16.333 -150.999 49s-56 80.667 -56 144v295c0 4.66699 2 7 6 7h19
c4.66699 0 7 -2.33301 7 -7v-294c0 -54.667 15.667 -95.667 47 -123s75 -41 131 -41c52 0 101.667 12.333 149 37zM243.997 599h-14.9971c-6.66699 0 -8.33398 2.66699 -5.00098 8l83 134c1.33301 2.66699 3.66602 4 6.99902 4h25c5.33301 0 6.33301 -2.66699 3 -8l-90 -134
c-2.66699 -2.66699 -5.33398 -4 -8.00098 -4z" />
    <glyph glyph-name="thorn" unicode="&#xfe;" horiz-adv-x="533" 
d="M109 492c48 21.333 100.332 32.001 156.999 32.001c64.667 0 115.667 -16.333 153 -49s56 -80.334 56 -143.001v-150c0 -62 -18.667 -109.5 -56 -142.5s-88.333 -49.5 -153 -49.5c-55.333 0 -107.666 10.667 -156.999 32v-206c0 -4.66699 -2 -7 -6 -7h-20
c-4 0 -6 2.33301 -6 7v892c0 4 2 6 6 6h20c4 0 6 -2 6 -6v-216zM264.999 19.001c56.667 0 100.499 14.001 131.499 42.001s46.5 69.333 46.5 124v143c0 55.333 -15.5 97.166 -46.5 125.499s-75.5 41.833 -133.5 40.5c-53.333 0 -104.666 -10.667 -153.999 -32v-410
c50.667 -22 102.667 -33 156 -33z" />
    <glyph glyph-name="ydieresis" unicode="&#xff;" horiz-adv-x="540" 
d="M431 86l-0.00292969 421c0 4.66699 2 7 6 7h20c4 0 6 -2.33301 6 -7v-522c0 -56.667 -16.167 -101.667 -48.5 -135s-80.5 -50 -144.5 -50c-67.333 0 -129.666 26 -186.999 78c-2.66699 2.66699 -2.66699 5.66699 0 9l11 13
c2.66699 3.33301 5.33398 3.66602 8.00098 0.999023c54.667 -47.333 110.667 -71 168 -71c54 0 94.5 13.833 121.5 41.5s40.167 65.834 39.5 114.501v69c-46 -24 -96.667 -36 -152 -36c-63.333 0 -113.666 16.333 -150.999 49s-56 80.667 -56 144v295c0 4.66699 2 7 6 7h19
c4.66699 0 7 -2.33301 7 -7v-294c0 -54.667 15.667 -95.667 47 -123s75 -41 131 -41c52 0 101.667 12.333 149 37zM209.997 652c0 -16.667 -8.33301 -25 -25 -25s-25 8.33301 -25 25c0 17.333 8.33301 26 25 26s25 -8.66699 25 -26zM382.997 652
c0 -16.667 -8.33301 -25 -25 -25c-7.33301 0 -13.5 2.33301 -18.5 7s-7.5 10.667 -7.5 18c0 8 2.5 14.333 7.5 19s11.167 7 18.5 7c16.667 0 25 -8.66699 25 -26z" />
    <glyph glyph-name="Amacron" unicode="&#x100;" horiz-adv-x="589" 
d="M39 0h-22.9971c-4.66699 -0 -6.33398 2.33301 -5.00098 7l263 703c1.33301 3.33301 3.33301 5 6 5h28c3.33301 0 5.66602 -1.66699 6.99902 -5l263 -703c1.33301 -4.66699 -0.333984 -7 -5.00098 -7h-23c-2.66699 0 -5 1.66699 -7 5l-81 219h-335l-82 -219
c-1.33301 -3.33301 -3.33301 -5 -6 -5zM293.003 674l-155 -419h313l-155 419h-3zM420.003 840h-254c-4 0 -6 2.33301 -6 7v16c0 4.66699 2 7 6 7h254c4 0 6 -2.33301 6 -7v-16c0 -4.66699 -2 -7 -6 -7z" />
    <glyph glyph-name="amacron" unicode="&#x101;" horiz-adv-x="500" 
d="M66 473c48.667 34 108.333 51 179 51c61.333 0 107.5 -16.167 138.5 -48.5s46.5 -77.5 46.5 -135.5v-308c0 -4 -1.66699 -6.33301 -5 -7c-54.667 -23.333 -115 -35 -181 -35c-60 0 -109.167 14.333 -147.5 43s-57.5 67.667 -57.5 117c0 50 18 88.5 54 115.5
s86.333 40.5 151 40.5c46.667 0 98 -6.33301 154 -19v52c0 103.333 -51.333 155 -154 155c-60 0 -113.333 -14.667 -160 -44c-3.33301 -2 -6.33301 -1.66699 -9 1l-9 14c-1.33301 4 -1.33301 6.66699 0 8zM70.999 150c0 -39.333 16.001 -71 48.001 -95s73.667 -36 125 -36
c53.333 0 104.666 9.33301 153.999 28v212c-52 12 -103.333 18 -154 18c-56 0 -98.833 -11 -128.5 -33s-44.5 -53.333 -44.5 -94zM121 656v14c0 4.66699 2 7 6 7h234c4.66699 0 7 -2.33301 7 -7v-14c0 -4.66699 -2.33301 -7 -7 -7h-234c-4 0 -6 2.33301 -6 7z" />
    <glyph glyph-name="Abreve" unicode="&#x102;" horiz-adv-x="589" 
d="M39 0h-22.9971c-4.66699 -0 -6.33398 2.33301 -5.00098 7l263 703c1.33301 3.33301 3.33301 5 6 5h28c3.33301 0 5.66602 -1.66699 6.99902 -5l263 -703c1.33301 -4.66699 -0.333984 -7 -5.00098 -7h-23c-2.66699 0 -5 1.66699 -7 5l-81 219h-335l-82 -219
c-1.33301 -3.33301 -3.33301 -5 -6 -5zM293.003 674l-155 -419h313l-155 419h-3zM446.003 929c-5.33301 -42 -21.3301 -76.167 -47.9971 -102.5s-61.334 -39.5 -104.001 -39.5c-42 0 -76.333 13.167 -103 39.5s-42.667 60.5 -48 102.5
c-1.33301 3.33301 0.666992 5.66602 6 6.99902l15 4c4 1.33301 6.66699 -0.333984 8 -5.00098c4 -36.667 16.5 -65.834 37.5 -87.501s49.167 -32.5 84.5 -32.5s63.666 10.833 84.999 32.5s34 50.834 38 87.501c1.33301 4.66699 3.66602 6.33398 6.99902 5.00098l16 -4
c4 -1.33301 6 -3.66602 6 -6.99902z" />
    <glyph glyph-name="abreve" unicode="&#x103;" horiz-adv-x="500" 
d="M66 473c48.667 34 108.333 51 179 51c61.333 0 107.5 -16.167 138.5 -48.5s46.5 -77.5 46.5 -135.5v-308c0 -4 -1.66699 -6.33301 -5 -7c-54.667 -23.333 -115 -35 -181 -35c-60 0 -109.167 14.333 -147.5 43s-57.5 67.667 -57.5 117c0 50 18 88.5 54 115.5
s86.333 40.5 151 40.5c46.667 0 98 -6.33301 154 -19v52c0 103.333 -51.333 155 -154 155c-60 0 -113.333 -14.667 -160 -44c-3.33301 -2 -6.33301 -1.66699 -9 1l-9 14c-1.33301 4 -1.33301 6.66699 0 8zM70.999 150c0 -39.333 16.001 -71 48.001 -95s73.667 -36 125 -36
c53.333 0 104.666 9.33301 153.999 28v212c-52 12 -103.333 18 -154 18c-56 0 -98.833 -11 -128.5 -33s-44.5 -53.333 -44.5 -94zM397 735c-4.66699 -40 -19.834 -72.666 -45.501 -97.999s-58.834 -38 -99.501 -38s-73.667 12.667 -99 38s-40.333 58 -45 98
c-0.666992 3.33301 1 5.66602 5 6.99902l16 2c4 0 6.33301 -1.66699 7 -5c4.66699 -34.667 16.834 -62.167 36.501 -82.5s46.167 -30.5 79.5 -30.5s59.833 10.167 79.5 30.5s31.834 47.833 36.501 82.5c1.33301 4 4 5.66699 8 5l15 -2c5.33301 0 7.33301 -2.33301 6 -7z" />
    <glyph glyph-name="Aogonek" unicode="&#x104;" horiz-adv-x="589" 
d="M600 -181c-21.333 -11.333 -45.9961 -17.002 -73.9961 -17.002c-22 0 -39.833 6.33301 -53.5 19s-20.5 29.334 -20.5 50.001c0 24.667 9.16699 49.334 27.5 74.001s40.166 44.334 65.499 59.001c-2.66699 5.33301 -6.66699 14.333 -12 27l-71 193h-335l-82 -219
c-1.33301 -3.33301 -3.33301 -5 -6 -5h-23c-4.66699 0 -6.33398 2.33301 -5.00098 7l263 703c1.33301 3.33301 3.33301 5 6 5h28c3.33301 0 5.66602 -1.66699 6.99902 -5l263 -704c1.33301 -4.66699 0.333008 -7.33398 -3 -8.00098c-28.667 -17.333 -51.167 -37 -67.5 -59
s-24.5 -41.667 -24.5 -59c0 -32 15.333 -48 46 -48c24.667 0 44.667 4.33301 60 13c4 2 6.66699 1 8 -3l5 -15c1.33301 -3.33301 0.666016 -6 -2.00098 -8zM293.004 673.998l-155 -419h313l-155 419h-3z" />
    <glyph glyph-name="aogonek" unicode="&#x105;" horiz-adv-x="500" 
d="M430 341l0.000976562 -308.001c0 -3.33301 -1.66699 -6 -5 -8c-30.667 -13.333 -58 -34.5 -82 -63.5s-36 -56.167 -36 -81.5c0 -32.667 16.333 -49 49 -49c24 0 42.667 4.66699 56 14c4 2 6.66699 0.666992 8 -4l6 -14c1.33301 -4 0 -6.66699 -4 -8
c-19.333 -11.333 -42.666 -17 -69.999 -17c-50 0 -75 24.667 -75 74c0 20.667 7.5 43.167 22.5 67.5s35.167 45.5 60.5 63.5c-38.667 -11.333 -77.334 -17 -116.001 -17c-60 0 -109.167 14.167 -147.5 42.5s-57.5 67.5 -57.5 117.5s18 88.5 54 115.5s86.333 40.5 151 40.5
c44.667 0 96 -6.33301 154 -19v53c0 102.667 -51.333 154 -154 154c-62 0 -116.667 -14.667 -164 -44c-2.66699 -2 -5.33398 -1.66699 -8.00098 1l-9 14c-2.66699 4 -2.33398 7 0.999023 9c50.667 33.333 111.334 50 182.001 50c60.667 0 106.5 -16.167 137.5 -48.5
s46.5 -77.166 46.5 -134.499zM71.001 149.999c0 -40 16 -71.833 48 -95.5s73.667 -35.5 125 -35.5c58 0 109.333 9 154 27v213c-46.667 12 -98 18 -154 18c-56.667 0 -99.667 -10.833 -129 -32.5s-44 -53.167 -44 -94.5z" />
    <glyph glyph-name="Cacute" unicode="&#x106;" horiz-adv-x="574" 
d="M539 72c-61.333 -54.667 -136.001 -81.999 -224.001 -81.999c-76 0 -135.333 21.667 -178 65s-64 100.666 -64 171.999v261c0 71.333 21.333 128.666 64 171.999s101.334 65 176.001 65c79.333 0 149.666 -24.667 210.999 -74c4.66699 -2.66699 5 -5.33398 1 -8.00098
l-11 -16c-2 -3.33301 -5 -3.66602 -9 -0.999023c-56.667 45.333 -121 68 -193 68c-66.667 0 -117.667 -18.833 -153 -56.5s-53 -87.5 -53 -149.5v-261c0 -62 18 -111.833 54 -149.5s87.333 -56.5 154 -56.5c78.667 0 147.667 25.667 207 77
c2.66699 2.66699 5.33398 2.33398 8.00098 -0.999023l12 -16c2 -3.33301 1.33301 -6.33301 -2 -9zM428.999 927.001l-116 -134c-2 -2.66699 -4.66699 -4 -8 -4h-18c-6 0 -7 2.66699 -3 8l107 133c0.666992 2.66699 3 4 7 4h28c6.66699 0 7.66699 -2.33301 3 -7z" />
    <glyph glyph-name="cacute" unicode="&#x107;" horiz-adv-x="463" 
d="M431 52c-52.667 -41.333 -110.667 -62 -174 -62c-60.667 0 -109 17.5 -145 52.5s-54 79.167 -54 132.5v164c0 53.333 18 97.5 54 132.5s84.333 52.5 145 52.5c57.333 0 110.666 -17.667 159.999 -53c3.33301 -2.66699 4 -5.66699 2 -9l-9 -14
c-3.33301 -2.66699 -6.33301 -3 -9 -1c-44 31.333 -92.333 47 -145 47c-52 0 -92.667 -14.667 -122 -44s-44 -66.333 -44 -111v-164c0 -44.667 14.833 -81.834 44.5 -111.501s70.167 -44.5 121.5 -44.5c54.667 0 107.334 18.667 158.001 56c4 2.66699 7 2.33398 9 -0.999023
l10 -13c2.66699 -4 2 -7 -2 -9zM227 599h-14.9971c-6.66699 0 -8.33398 2.66699 -5.00098 8l83 134c1.33301 2.66699 3.66602 4 6.99902 4h25c5.33301 0 6.33301 -2.66699 3 -8l-90 -134c-2.66699 -2.66699 -5.33398 -4 -8.00098 -4z" />
    <glyph glyph-name="Cdotaccent" unicode="&#x10a;" horiz-adv-x="574" 
d="M539 72c-61.333 -54.667 -136.001 -81.999 -224.001 -81.999c-76 0 -135.333 21.667 -178 65s-64 100.666 -64 171.999v261c0 71.333 21.333 128.666 64 171.999s101.334 65 176.001 65c79.333 0 149.666 -24.667 210.999 -74c4.66699 -2.66699 5 -5.33398 1 -8.00098
l-11 -16c-2 -3.33301 -5 -3.66602 -9 -0.999023c-56.667 45.333 -121 68 -193 68c-66.667 0 -117.667 -18.833 -153 -56.5s-53 -87.5 -53 -149.5v-261c0 -62 18 -111.833 54 -149.5s87.333 -56.5 154 -56.5c78.667 0 147.667 25.667 207 77
c2.66699 2.66699 5.33398 2.33398 8.00098 -0.999023l12 -16c2 -3.33301 1.33301 -6.33301 -2 -9zM343.999 860.001c0 -8.66699 -2.66699 -15.667 -8 -21s-12 -8 -20 -8c-8.66699 0 -15.667 2.66699 -21 8s-8 12.333 -8 21c0 8 2.66699 14.667 8 20s12.333 8 21 8
c8 0 14.667 -2.66699 20 -8s8 -12 8 -20z" />
    <glyph glyph-name="cdotaccent" unicode="&#x10b;" horiz-adv-x="463" 
d="M431 52c-52.667 -41.333 -110.667 -62 -174 -62c-60.667 0 -109 17.5 -145 52.5s-54 79.167 -54 132.5v164c0 53.333 18 97.5 54 132.5s84.333 52.5 145 52.5c57.333 0 110.666 -17.667 159.999 -53c3.33301 -2.66699 4 -5.66699 2 -9l-9 -14
c-3.33301 -2.66699 -6.33301 -3 -9 -1c-44 31.333 -92.333 47 -145 47c-52 0 -92.667 -14.667 -122 -44s-44 -66.333 -44 -111v-164c0 -44.667 14.833 -81.834 44.5 -111.501s70.167 -44.5 121.5 -44.5c54.667 0 107.334 18.667 158.001 56c4 2.66699 7 2.33398 9 -0.999023
l10 -13c2.66699 -4 2 -7 -2 -9zM276 652c0 -8 -2.5 -14.5 -7.5 -19.5s-11.5 -7.5 -19.5 -7.5s-14.5 2.5 -19.5 7.5s-7.5 11.5 -7.5 19.5s2.5 14.667 7.5 20s11.5 8 19.5 8s14.5 -2.66699 19.5 -8s7.5 -12 7.5 -20z" />
    <glyph glyph-name="Ccaron" unicode="&#x10c;" horiz-adv-x="574" 
d="M539 72c-61.333 -54.667 -136.001 -81.999 -224.001 -81.999c-76 0 -135.333 21.667 -178 65s-64 100.666 -64 171.999v261c0 71.333 21.333 128.666 64 171.999s101.334 65 176.001 65c79.333 0 149.666 -24.667 210.999 -74c4.66699 -2.66699 5 -5.33398 1 -8.00098
l-11 -16c-2 -3.33301 -5 -3.66602 -9 -0.999023c-56.667 45.333 -121 68 -193 68c-66.667 0 -117.667 -18.833 -153 -56.5s-53 -87.5 -53 -149.5v-261c0 -62 18 -111.833 54 -149.5s87.333 -56.5 154 -56.5c78.667 0 147.667 25.667 207 77
c2.66699 2.66699 5.33398 2.33398 8.00098 -0.999023l12 -16c2 -3.33301 1.33301 -6.33301 -2 -9zM170.999 934.001h21c3.33301 0 6.33301 -1.33301 9 -4l115 -114l115 114c2.66699 2.66699 5.66699 4 9 4h21c2.66699 0 4.33398 -0.833008 5.00098 -2.5s0 -3.5 -2 -5.5
l-129 -133c-2.66699 -2.66699 -5.33398 -4 -8.00098 -4h-22c-3.33301 0 -6 1.33301 -8 4l-130 133c-4 5.33301 -2.66699 8 4 8z" />
    <glyph glyph-name="ccaron" unicode="&#x10d;" horiz-adv-x="463" 
d="M431 52c-52.667 -41.333 -110.667 -62 -174 -62c-60.667 0 -109 17.5 -145 52.5s-54 79.167 -54 132.5v164c0 53.333 18 97.5 54 132.5s84.333 52.5 145 52.5c57.333 0 110.666 -17.667 159.999 -53c3.33301 -2.66699 4 -5.66699 2 -9l-9 -14
c-3.33301 -2.66699 -6.33301 -3 -9 -1c-44 31.333 -92.333 47 -145 47c-52 0 -92.667 -14.667 -122 -44s-44 -66.333 -44 -111v-164c0 -44.667 14.833 -81.834 44.5 -111.501s70.167 -44.5 121.5 -44.5c54.667 0 107.334 18.667 158.001 56c4 2.66699 7 2.33398 9 -0.999023
l10 -13c2.66699 -4 2 -7 -2 -9zM124 745h20.002c2.66699 0 5.33398 -1.33301 8.00098 -4l98 -117l98 117c1.33301 2.66699 3.66602 4 6.99902 4h21c6 0 7 -2.66699 3 -8l-113 -134c-2.66699 -2.66699 -5.33398 -4 -8.00098 -4h-16c-2.66699 0 -5.33398 1.33301 -8.00098 4
l-114 134c-3.33301 5.33301 -2 8 4 8z" />
    <glyph glyph-name="Dcaron" unicode="&#x10e;" horiz-adv-x="658" 
d="M341 0l-237 -0.00195312c-4.66699 0 -7 2 -7 6v703c0 4 2.33301 6 7 6h237c75.333 0 135 -22.167 179 -66.5s66 -105.166 66 -182.499v-220c0 -77.333 -22 -137.666 -66 -180.999s-103.667 -65 -179 -65zM131 683.998v-652h209c66.667 0 118.667 18.5 156 55.5
s56 89.833 56 158.5v220c0 68.667 -18.833 122.167 -56.5 160.5s-89.5 57.5 -155.5 57.5h-209zM176 933.998h21c3.33301 0 6.33301 -1.33301 9 -4l115 -114l115 114c2.66699 2.66699 5.66699 4 9 4h21c2.66699 0 4.33398 -0.833008 5.00098 -2.5s0 -3.5 -2 -5.5l-129 -133
c-2.66699 -2.66699 -5.33398 -4 -8.00098 -4h-22c-3.33301 0 -6 1.33301 -8 4l-130 133c-4 5.33301 -2.66699 8 4 8z" />
    <glyph glyph-name="dcaron" unicode="&#x10f;" horiz-adv-x="552" 
d="M268 524c56.667 0 108.667 -15.333 156 -46v231c0 4 2 6 6 6h19c4.66699 0 7 -2 7 -6v-677c0 -3.33301 -1.66699 -5.66602 -5 -6.99902c-57.333 -23.333 -118 -35 -182 -35c-67.333 0 -119.5 17.667 -156.5 53s-55.5 88.666 -55.5 159.999v107
c0 71.333 18.333 124.833 55 160.5s88.667 53.5 156 53.5zM512 566l36.999 144c0.666992 3.33301 3 5 7 5h19c4.66699 0 6.33398 -2.33301 5.00098 -7l-43 -144c-2 -3.33301 -4.33301 -5 -7 -5h-12c-5.33301 0 -7.33301 2.33301 -6 7zM88.999 203
c0 -122.667 60.001 -184 180.001 -184c54 0 105.667 9.33301 155 28v399c-46.667 32 -98.334 48 -155.001 48c-120 0 -180 -61.333 -180 -184v-107z" />
    <glyph glyph-name="Dcroat" unicode="&#x110;" horiz-adv-x="680" 
d="M125 715l237 -0.00195312c76 0 136 -22.167 180 -66.5s66 -105.166 66 -182.499v-220c0 -77.333 -22 -137.666 -66 -180.999s-104 -65 -180 -65h-237c-4 0 -6 2 -6 6v355h-100c-4 0 -6 2 -6 6v16c0 4 2 6 6 6h100v320c0 4 2 6 6 6zM362 31.998
c66 0 117.833 18.667 155.5 56s56.5 90 56.5 158v220c0 68.667 -18.833 122.167 -56.5 160.5s-89.5 57.5 -155.5 57.5h-209v-295h199c4 0 6 -2 6 -6v-16c0 -4 -2 -6 -6 -6h-199v-329h209z" />
    <glyph glyph-name="dcroat" unicode="&#x111;" horiz-adv-x="532" 
d="M456 630h76c4 0 6 -2 6 -6v-14c0 -4 -2 -6 -6 -6h-76v-572c0 -3.33301 -1.66699 -5.66602 -5 -6.99902c-57.333 -23.333 -118 -35 -182 -35c-67.333 0 -119.5 17.667 -156.5 53s-55.5 88.666 -55.5 159.999v104c0 71.333 18.333 125 55 161s88.667 54 156 54
c56.667 0 108.667 -15.333 156 -46v128h-178c-4 0 -6 2 -6 6v14c0 4 2 6 6 6h178v79c0 4 2 6 6 6h19c4.66699 0 7 -2 7 -6v-79zM89 203c0 -122.667 60.001 -184 180.001 -184c54 0 105.667 9.33301 155 28v397c-48.667 32 -100.334 48 -155.001 48
c-120 0 -180 -61.667 -180 -185v-104z" />
    <glyph glyph-name="Emacron" unicode="&#x112;" horiz-adv-x="563" 
d="M131 349v-318h378c4 0 6 -2 6 -6v-19c0 -4 -2 -6 -6 -6h-405c-4.66699 0 -7 2 -7 6v703c0 4 2.33301 6 7 6h390c4 0 6 -2 6 -6v-19c0 -4 -2 -6 -6 -6h-363v-304h342c4.66699 0 7 -2 7 -6v-19c0 -4 -2.33301 -6 -7 -6h-342zM431 840h-254c-4 0 -6 2.33301 -6 7v16
c0 4.66699 2 7 6 7h254c4 0 6 -2.33301 6 -7v-16c0 -4.66699 -2 -7 -6 -7z" />
    <glyph glyph-name="emacron" unicode="&#x113;" horiz-adv-x="507" 
d="M456 334l0.000976562 -89.999c0 -4 -2 -6 -6 -6h-360v-66c0 -46.667 16.167 -83.834 48.5 -111.501s72.166 -41.5 119.499 -41.5c61.333 0 118 23.333 170 70c3.33301 2 6 1.66699 8 -1l11 -13c3.33301 -3.33301 3 -6 -1 -8c-55.333 -51.333 -118.333 -77 -189 -77
c-55.333 0 -102.333 16.5 -141 49.5s-58 77.167 -58 132.5v162c0 59.333 18.167 105.833 54.5 139.5s84.5 50.5 144.5 50.5s108.167 -16.833 144.5 -50.5s54.5 -80.167 54.5 -139.5zM424.001 334.001c0 50 -15.167 89.167 -45.5 117.5s-70.833 42.5 -121.5 42.5
c-51.333 0 -92 -14 -122 -42s-45 -67.333 -45 -118v-68h334v68zM134.001 656.001v14c0 4.66699 2 7 6 7h234c4.66699 0 7 -2.33301 7 -7v-14c0 -4.66699 -2.33301 -7 -7 -7h-234c-4 0 -6 2.33301 -6 7z" />
    <glyph glyph-name="Edotaccent" unicode="&#x116;" horiz-adv-x="563" 
d="M131 349v-318h378c4 0 6 -2 6 -6v-19c0 -4 -2 -6 -6 -6h-405c-4.66699 0 -7 2 -7 6v703c0 4 2.33301 6 7 6h390c4 0 6 -2 6 -6v-19c0 -4 -2 -6 -6 -6h-363v-304h342c4.66699 0 7 -2 7 -6v-19c0 -4 -2.33301 -6 -7 -6h-342zM334 860c0 -8.66699 -2.66699 -15.667 -8 -21
s-12 -8 -20 -8c-8.66699 0 -15.667 2.66699 -21 8s-8 12.333 -8 21c0 8 2.66699 14.667 8 20s12.333 8 21 8c8 0 14.667 -2.66699 20 -8s8 -12 8 -20z" />
    <glyph glyph-name="edotaccent" unicode="&#x117;" horiz-adv-x="507" 
d="M456 334l0.000976562 -89.999c0 -4 -2 -6 -6 -6h-360v-66c0 -46.667 16.167 -83.834 48.5 -111.501s72.166 -41.5 119.499 -41.5c61.333 0 118 23.333 170 70c3.33301 2 6 1.66699 8 -1l11 -13c3.33301 -3.33301 3 -6 -1 -8c-55.333 -51.333 -118.333 -77 -189 -77
c-55.333 0 -102.333 16.5 -141 49.5s-58 77.167 -58 132.5v162c0 59.333 18.167 105.833 54.5 139.5s84.5 50.5 144.5 50.5s108.167 -16.833 144.5 -50.5s54.5 -80.167 54.5 -139.5zM424.001 334.001c0 50 -15.167 89.167 -45.5 117.5s-70.833 42.5 -121.5 42.5
c-51.333 0 -92 -14 -122 -42s-45 -67.333 -45 -118v-68h334v68zM284.001 652.001c0 -8 -2.5 -14.5 -7.5 -19.5s-11.5 -7.5 -19.5 -7.5s-14.5 2.5 -19.5 7.5s-7.5 11.5 -7.5 19.5s2.5 14.667 7.5 20s11.5 8 19.5 8s14.5 -2.66699 19.5 -8s7.5 -12 7.5 -20z" />
    <glyph glyph-name="Eogonek" unicode="&#x118;" horiz-adv-x="563" 
d="M470 -169c18 0 36.332 4.66797 54.999 14.001c4.66699 2 7.33398 1 8.00098 -3l5 -15c1.33301 -2.66699 0.333008 -5.33398 -3 -8.00098c-18.667 -11.333 -42 -17 -70 -17c-23.333 0 -41.833 6.16699 -55.5 18.5s-20.5 29.166 -20.5 50.499c0 24.667 8.66699 49 26 73
s39 42.667 65 56h-376c-4.66699 0 -7 2 -7 6v703c0 4 2.33301 6 7 6h390c4 0 6 -2 6 -6v-19c0 -4 -2 -6 -6 -6h-363v-304h342c4.66699 0 7 -2 7 -6v-19c0 -4 -2.33301 -6 -7 -6h-342v-318h378c4 0 6 -2 6 -6v-20c0 -3.33301 -1.33301 -5.66602 -4 -6.99902
c-16.667 -11.333 -30.5 -21.5 -41.5 -30.5s-22.167 -22 -33.5 -39s-17 -34.167 -17 -51.5c0 -30.667 17 -46 51 -46z" />
    <glyph glyph-name="eogonek" unicode="&#x119;" horiz-adv-x="506" 
d="M398 -180c-23.333 -12.667 -47.6689 -19.001 -73.002 -19.001c-23.333 0 -41.666 6.33301 -54.999 19s-20 31 -20 55c0 43.333 24.667 86 74 128c-21.333 -8 -43.666 -12 -66.999 -12c-55.333 0 -102.333 16.333 -141 49s-58 76.667 -58 132v163
c0 58.667 18.333 104.834 55 138.501s84.667 50.5 144 50.5s107.166 -16.833 143.499 -50.5s54.5 -79.834 54.5 -138.501v-91c0 -4 -2 -6 -6 -6h-359v-66c0 -46 16.167 -82.667 48.5 -110s71.833 -41 118.5 -41c62 0 118.667 23 170 69c3.33301 3.33301 6 3 8 -1l11 -12
c2.66699 -4 2.33398 -7 -0.999023 -9c-12 -11.333 -31.667 -25.666 -59 -42.999c-34.667 -22.667 -61.167 -47.167 -79.5 -73.5s-27.5 -50.166 -27.5 -71.499c0 -32.667 16.333 -49 49 -49c23.333 0 42.333 4.66699 57 14c4 2.66699 6.66699 1.66699 8 -3l6 -14
c2 -2.66699 1.66699 -5.33398 -1 -8.00098zM89.9971 333.999l0.000976562 -68h334v69c0 50 -15.333 89 -46 117s-71.334 42 -122.001 42c-51.333 0 -91.833 -14 -121.5 -42s-44.5 -67.333 -44.5 -118z" />
    <glyph glyph-name="Ecaron" unicode="&#x11a;" horiz-adv-x="563" 
d="M131 349v-318h378c4 0 6 -2 6 -6v-19c0 -4 -2 -6 -6 -6h-405c-4.66699 0 -7 2 -7 6v703c0 4 2.33301 6 7 6h390c4 0 6 -2 6 -6v-19c0 -4 -2 -6 -6 -6h-363v-304h342c4.66699 0 7 -2 7 -6v-19c0 -4 -2.33301 -6 -7 -6h-342zM159 934h21c3.33301 0 6.33301 -1.33301 9 -4
l115 -114l115 114c2.66699 2.66699 5.66699 4 9 4h21c2.66699 0 4.33398 -0.833008 5.00098 -2.5s0 -3.5 -2 -5.5l-129 -133c-2.66699 -2.66699 -5.33398 -4 -8.00098 -4h-22c-3.33301 0 -6 1.33301 -8 4l-130 133c-4 5.33301 -2.66699 8 4 8z" />
    <glyph glyph-name="ecaron" unicode="&#x11b;" horiz-adv-x="507" 
d="M456 334l0.000976562 -89.999c0 -4 -2 -6 -6 -6h-360v-66c0 -46.667 16.167 -83.834 48.5 -111.501s72.166 -41.5 119.499 -41.5c61.333 0 118 23.333 170 70c3.33301 2 6 1.66699 8 -1l11 -13c3.33301 -3.33301 3 -6 -1 -8c-55.333 -51.333 -118.333 -77 -189 -77
c-55.333 0 -102.333 16.5 -141 49.5s-58 77.167 -58 132.5v162c0 59.333 18.167 105.833 54.5 139.5s84.5 50.5 144.5 50.5s108.167 -16.833 144.5 -50.5s54.5 -80.167 54.5 -139.5zM424.001 334.001c0 50 -15.167 89.167 -45.5 117.5s-70.833 42.5 -121.5 42.5
c-51.333 0 -92 -14 -122 -42s-45 -67.333 -45 -118v-68h334v68zM132.001 745.001h20.002c2.66699 0 5.33398 -1.33301 8.00098 -4l98 -117l98 117c1.33301 2.66699 3.66602 4 6.99902 4h21c6 0 7 -2.66699 3 -8l-113 -134c-2.66699 -2.66699 -5.33398 -4 -8.00098 -4h-16
c-2.66699 0 -5.33398 1.33301 -8.00098 4l-114 134c-3.33301 5.33301 -2 8 4 8z" />
    <glyph glyph-name="Gbreve" unicode="&#x11e;" horiz-adv-x="634" 
d="M564 86c-66.667 -64 -147.668 -95.999 -243.001 -95.999c-77.333 0 -138.166 21.833 -182.499 65.5s-66.5 101.167 -66.5 172.5v260c0 71.333 21.833 128.666 65.5 171.999s103.834 65 180.501 65c87.333 0 164 -26 230 -78c4.66699 -2 5 -5 1 -9l-11 -15
c-2 -3.33301 -5 -4 -9 -2c-60 48.667 -130.333 73 -211 73c-68 0 -120.5 -18.833 -157.5 -56.5s-55.5 -87.5 -55.5 -149.5v-260c0 -62 18.667 -111.833 56 -149.5s90.666 -56.5 159.999 -56.5c82.667 0 153.667 26.667 213 80v236h-210c-4 0 -6 2 -6 6v19c0 4 2 6 6 6h237
c4 0 6 -2 6 -6v-269c0 -3.33301 -1 -6 -3 -8zM468.999 929.001c-5.33301 -42 -21.3301 -76.167 -47.9971 -102.5s-61.334 -39.5 -104.001 -39.5c-42 0 -76.333 13.167 -103 39.5s-42.667 60.5 -48 102.5c-1.33301 3.33301 0.666992 5.66602 6 6.99902l15 4
c4 1.33301 6.66699 -0.333984 8 -5.00098c4 -36.667 16.5 -65.834 37.5 -87.501s49.167 -32.5 84.5 -32.5s63.666 10.833 84.999 32.5s34 50.834 38 87.501c1.33301 4.66699 3.66602 6.33398 6.99902 5.00098l16 -4c4 -1.33301 6 -3.66602 6 -6.99902z" />
    <glyph glyph-name="gbreve" unicode="&#x11f;" horiz-adv-x="530" 
d="M454 -15c0 -56.667 -16.334 -101.668 -49.001 -135.001s-81.667 -50 -147 -50c-70 0 -132.667 26.667 -188 80c-2 2 -2 4.66699 0 8l10 14c2.66699 3.33301 5.33398 3.66602 8.00098 0.999023c52 -48.667 108.667 -73 170 -73c56 0 97.5 13.833 124.5 41.5
s40.167 65.834 39.5 114.501v70c-48 -24.667 -99.333 -37 -154 -37c-66 0 -117.667 17 -155 51s-56 83.333 -56 148v108c0 66.667 18.667 116.334 56 149.001s89 49 155 49s126.333 -12 181 -36c3.33301 -0.666992 5 -3 5 -7v-496zM88.999 217.999
c0 -112.667 60 -169 180 -169c54.667 0 105.667 12.667 153 38v381c-50 17.333 -101.667 26 -155 26c-118.667 0 -178 -56 -178 -168v-108zM406.999 734.999c-4.66699 -40 -19.834 -72.666 -45.501 -97.999s-58.834 -38 -99.501 -38s-73.667 12.667 -99 38
s-40.333 58 -45 98c-0.666992 3.33301 1 5.66602 5 6.99902l16 2c4 0 6.33301 -1.66699 7 -5c4.66699 -34.667 16.834 -62.167 36.501 -82.5s46.167 -30.5 79.5 -30.5s59.833 10.167 79.5 30.5s31.834 47.833 36.501 82.5c1.33301 4 4 5.66699 8 5l15 -2
c5.33301 0 7.33301 -2.33301 6 -7z" />
    <glyph glyph-name="Gdotaccent" unicode="&#x120;" horiz-adv-x="634" 
d="M564 86c-66.667 -64 -147.668 -95.999 -243.001 -95.999c-77.333 0 -138.166 21.833 -182.499 65.5s-66.5 101.167 -66.5 172.5v260c0 71.333 21.833 128.666 65.5 171.999s103.834 65 180.501 65c87.333 0 164 -26 230 -78c4.66699 -2 5 -5 1 -9l-11 -15
c-2 -3.33301 -5 -4 -9 -2c-60 48.667 -130.333 73 -211 73c-68 0 -120.5 -18.833 -157.5 -56.5s-55.5 -87.5 -55.5 -149.5v-260c0 -62 18.667 -111.833 56 -149.5s90.666 -56.5 159.999 -56.5c82.667 0 153.667 26.667 213 80v236h-210c-4 0 -6 2 -6 6v19c0 4 2 6 6 6h237
c4 0 6 -2 6 -6v-269c0 -3.33301 -1 -6 -3 -8zM344.999 860.001c0 -8.66699 -2.66699 -15.667 -8 -21s-12 -8 -20 -8c-8.66699 0 -15.667 2.66699 -21 8s-8 12.333 -8 21c0 8 2.66699 14.667 8 20s12.333 8 21 8c8 0 14.667 -2.66699 20 -8s8 -12 8 -20z" />
    <glyph glyph-name="gdotaccent" unicode="&#x121;" horiz-adv-x="530" 
d="M454 -15c0 -56.667 -16.334 -101.668 -49.001 -135.001s-81.667 -50 -147 -50c-70 0 -132.667 26.667 -188 80c-2 2 -2 4.66699 0 8l10 14c2.66699 3.33301 5.33398 3.66602 8.00098 0.999023c52 -48.667 108.667 -73 170 -73c56 0 97.5 13.833 124.5 41.5
s40.167 65.834 39.5 114.501v70c-48 -24.667 -99.333 -37 -154 -37c-66 0 -117.667 17 -155 51s-56 83.333 -56 148v108c0 66.667 18.667 116.334 56 149.001s89 49 155 49s126.333 -12 181 -36c3.33301 -0.666992 5 -3 5 -7v-496zM88.999 217.999
c0 -112.667 60 -169 180 -169c54.667 0 105.667 12.667 153 38v381c-50 17.333 -101.667 26 -155 26c-118.667 0 -178 -56 -178 -168v-108zM286.999 651.999c0 -8 -2.5 -14.5 -7.5 -19.5s-11.5 -7.5 -19.5 -7.5s-14.5 2.5 -19.5 7.5s-7.5 11.5 -7.5 19.5s2.5 14.667 7.5 20
s11.5 8 19.5 8s14.5 -2.66699 19.5 -8s7.5 -12 7.5 -20z" />
    <glyph glyph-name="uni0122" unicode="&#x122;" horiz-adv-x="634" 
d="M564 86c-66.667 -64 -147.668 -95.999 -243.001 -95.999c-77.333 0 -138.166 21.833 -182.499 65.5s-66.5 101.167 -66.5 172.5v260c0 71.333 21.833 128.666 65.5 171.999s103.834 65 180.501 65c87.333 0 164 -26 230 -78c4.66699 -2 5 -5 1 -9l-11 -15
c-2 -3.33301 -5 -4 -9 -2c-60 48.667 -130.333 73 -211 73c-68 0 -120.5 -18.833 -157.5 -56.5s-55.5 -87.5 -55.5 -149.5v-260c0 -62 18.667 -111.833 56 -149.5s90.666 -56.5 159.999 -56.5c82.667 0 153.667 26.667 213 80v236h-210c-4 0 -6 2 -6 6v19c0 4 2 6 6 6h237
c4 0 6 -2 6 -6v-269c0 -3.33301 -1 -6 -3 -8zM287.999 -225.999h-12c-4.66699 0 -6.66699 2.33301 -6 7l41 140c1.33301 3.33301 3.33301 5 6 5h22c4 0 5.66699 -2.33301 5 -7l-50 -140c-1.33301 -3.33301 -3.33301 -5 -6 -5z" />
    <glyph glyph-name="uni0123" unicode="&#x123;" horiz-adv-x="530" 
d="M454 -15c0 -56.667 -16.334 -101.668 -49.001 -135.001s-81.667 -50 -147 -50c-70 0 -132.667 26.667 -188 80c-2 2 -2 4.66699 0 8l10 14c2.66699 3.33301 5.33398 3.66602 8.00098 0.999023c52 -48.667 108.667 -73 170 -73c56 0 97.5 13.833 124.5 41.5
s40.167 65.834 39.5 114.501v70c-48 -24.667 -99.333 -37 -154 -37c-66 0 -117.667 17 -155 51s-56 83.333 -56 148v108c0 66.667 18.667 116.334 56 149.001s89 49 155 49s126.333 -12 181 -36c3.33301 -0.666992 5 -3 5 -7v-496zM88.999 217.999
c0 -112.667 60 -169 180 -169c54.667 0 105.667 12.667 153 38v381c-50 17.333 -101.667 26 -155 26c-118.667 0 -178 -56 -178 -168v-108zM255.999 598.999h-20c-5.33301 0 -7 2.66699 -5 8l48 144c1.33301 3.33301 3.33301 5 6 5h13c5.33301 0 7 -2.66699 5 -8l-41 -143
c-1.33301 -4 -3.33301 -6 -6 -6z" />
    <glyph glyph-name="Hbar" unicode="&#x126;" horiz-adv-x="677" 
d="M578 591h69c4 0 6 -2.33301 6 -7v-15c0 -4 -2 -6 -6 -6h-69v-557c0 -4 -2.33301 -6 -7 -6h-21c-4 0 -6 2 -6 6v343h-411v-343c0 -4 -2 -6 -6 -6h-21c-4.66699 0 -7 2 -7 6v557h-68c-4 0 -6 2 -6 6v15c0 4.66699 2 7 6 7h68v118c0 4 2.33301 6 7 6h21c4 0 6 -2 6 -6v-118
h411v118c0 4 2 6 6 6h21c4.66699 0 7 -2 7 -6v-118zM133 380h411v183h-411v-183z" />
    <glyph glyph-name="hbar" unicode="&#x127;" 
d="M109 484c52 25.333 104.001 38 156.001 38c66.667 0 118.5 -17 155.5 -51s55.5 -84.667 55.5 -152v-313c0 -4 -2 -6 -6 -6h-20c-4 0 -6 2 -6 6v312c0 116 -60 174 -180 174c-52.667 0 -104.334 -13 -155.001 -39v-447c0 -4 -2 -6 -6 -6h-20c-4 0 -6 2 -6 6v598h-76
c-4 0 -6 2 -6 6v14c0 4 2 6 6 6h76v79c0 4 2 6 6 6h20c4 0 6 -2 6 -6v-79h178c4 0 6 -2 6 -6v-14c0 -4 -2 -6 -6 -6h-178v-120z" />
    <glyph glyph-name="Imacron" unicode="&#x12a;" horiz-adv-x="228" 
d="M-7 854v17c0 4 2 6 6 6h230c4 0 6 -2 6 -6v-17c0 -4 -2 -6 -6 -6h-230c-4 0 -6 2 -6 6zM131 709v-703c0 -4 -2 -6 -6 -6h-21c-4.66699 0 -7 2 -7 6v703c0 4 2.33301 6 7 6h21c4 0 6 -2 6 -6z" />
    <glyph glyph-name="imacron" unicode="&#x12b;" horiz-adv-x="186" 
d="M185 645h-183c-4 0 -6 2 -6 6v15c0 4 2 6 6 6h183c4 0 6 -2 6 -6v-15c0 -4 -2 -6 -6 -6zM103 0h-19c-4.66699 0 -7 2 -7 6v501c0 4.66699 2.33301 7 7 7h19c4 0 6 -2.33301 6 -7v-501c0 -4 -2 -6 -6 -6z" />
    <glyph glyph-name="Iogonek" unicode="&#x12e;" horiz-adv-x="227" 
d="M118 -168c20 0 37 4 51 12c5.33301 1.33301 8.33301 0 9 -4l5 -16c1.33301 -3.33301 0.333008 -5.66602 -3 -6.99902c-19.333 -10 -41 -15 -65 -15s-43 6.66699 -57 20s-21 32.333 -21 57c0 43.333 20.333 84.333 61 123c-0.666992 2 -1 5.66699 -1 11v696c0 4 2 6 6 6
h21c4 0 6 -2 6 -6v-704c0 -3.33301 -1.33301 -6 -4 -8c-18 -16.667 -32.167 -35.334 -42.5 -56.001s-15.5 -39.667 -15.5 -57c0 -34.667 16.667 -52 50 -52z" />
    <glyph glyph-name="iogonek" unicode="&#x12f;" horiz-adv-x="186" 
d="M170 -176c-23.333 -14.667 -48.999 -22 -76.999 -22c-26 0 -46.167 6.66699 -60.5 20s-21.5 33.333 -21.5 60c0 44 23 84.333 69 121l-1 1c-1.33301 2.66699 -2 5 -2 7v496c0 4.66699 2 7 6 7h20c4 0 6 -2.33301 6 -7v-502c0 -3.33301 -1.33301 -6 -4 -8
c-43.333 -36.667 -65 -73.667 -65 -111c0 -36.667 19 -55 57 -55c22 0 43 6.33301 63 19c3.33301 2.66699 5.66602 1.66699 6.99902 -3l6 -14c0.666992 -4 -0.333008 -7 -3 -9zM120.001 652c0 -17.333 -9 -26 -27 -26c-17.333 0 -26 8.66699 -26 26c0 18 8.66699 27 26 27
c8 0 14.5 -2.5 19.5 -7.5s7.5 -11.5 7.5 -19.5z" />
    <glyph glyph-name="Idotaccent" unicode="&#x130;" horiz-adv-x="228" 
d="M131 709v-703c0 -4 -2 -6 -6 -6h-21c-4.66699 0 -7 2 -7 6v703c0 4 2.33301 6 7 6h21c4 0 6 -2 6 -6zM143 860c0 -8.66699 -2.66699 -15.667 -8 -21s-12 -8 -20 -8c-8.66699 0 -15.667 2.66699 -21 8s-8 12.333 -8 21c0 8 2.66699 14.667 8 20s12.333 8 21 8
c8 0 14.667 -2.66699 20 -8s8 -12 8 -20z" />
    <glyph glyph-name="dotlessi" unicode="&#x131;" horiz-adv-x="186" 
d="M103 0h-20c-4 0 -6 2 -6 6v501c0 4.66699 2 7 6 7h20c4 0 6 -2.33301 6 -7v-501c0 -4 -2 -6 -6 -6z" />
    <glyph glyph-name="IJ" unicode="&#x132;" horiz-adv-x="733" 
d="M131 709v-703c0 -4 -2 -6 -6 -6h-21c-4.66699 0 -7 2 -7 6v703c0 4 2.33301 6 7 6h21c4 0 6 -2 6 -6zM641 204c0 -142.667 -63.001 -214 -189.001 -214c-67.333 0 -130 27 -188 81c-3.33301 2 -3.66602 5 -0.999023 9l11 15c2 4 5 4.33301 9 1
c53.333 -49.333 109.666 -74 168.999 -74c52.667 0 91.834 14.667 117.501 44s38.5 75.333 38.5 138v505c0 4 2 6 6 6h21c4 0 6 -2 6 -6v-505z" />
    <glyph glyph-name="ij" unicode="&#x133;" horiz-adv-x="453" 
d="M103 0h-20c-4 0 -6 2 -6 6v501c0 4.66699 2 7 6 7h20c4 0 6 -2.33301 6 -7v-501c0 -4 -2 -6 -6 -6zM119 652c0 -7.33301 -2.5 -13.333 -7.5 -18s-11.167 -7 -18.5 -7s-13.5 2.33301 -18.5 7s-7.5 10.667 -7.5 18c0 8 2.5 14.333 7.5 19s11.167 7 18.5 7
s13.5 -2.33301 18.5 -7s7.5 -11 7.5 -19zM376 -35c0 -110 -41.999 -165 -125.999 -165c-20 0 -37 1.33301 -51 4c-4 1.33301 -6 4 -6 8v16c0 4 1.33301 6 4 6h2c15.333 -2.66699 31.666 -4 48.999 -4c64 0 96 45 96 135v542c0 4.66699 2 7 6 7h20c4 0 6 -2.33301 6 -7v-542z
M386.001 652c0 -7.33301 -2.5 -13.333 -7.5 -18s-11.167 -7 -18.5 -7s-13.5 2.33301 -18.5 7s-7.5 10.667 -7.5 18c0 8 2.5 14.333 7.5 19s11.167 7 18.5 7s13.5 -2.33301 18.5 -7s7.5 -11 7.5 -19z" />
    <glyph glyph-name="uni0136" unicode="&#x136;" horiz-adv-x="603" 
d="M125 0h-21c-4.66699 0 -7 2 -7 6v703c0 4 2.33301 6 7 6h21c4 0 6 -2 6 -6v-393l399 395c2.66699 2.66699 5.66699 4 9 4h28c2.66699 0 4.5 -0.833008 5.5 -2.5s0.5 -3.5 -1.5 -5.5l-318 -315l337 -384c4 -5.33301 2.66699 -8 -4 -8h-28c-3.33301 -0 -6 1.33301 -8 4
l-320 365l-99 -97v-266c0 -4 -2 -6 -6 -6zM292 -226h-12c-4.66699 0 -6.66699 2.33301 -6 7l41 140c1.33301 3.33301 3.33301 5 6 5h22c4 0 5.66699 -2.33301 5 -7l-50 -140c-1.33301 -3.33301 -3.33301 -5 -6 -5z" />
    <glyph glyph-name="uni0137" unicode="&#x137;" horiz-adv-x="476" 
d="M459 0h-26c-3.33301 -0 -6 1.33301 -8 4l-237 267l-79 -69v-196c0 -4 -2 -6 -6 -6h-20c-4 0 -6 2 -6 6v703c0 4 2 6 6 6h20c4 0 6 -2 6 -6v-467l304 269c1.33301 2 4 3 8 3h27c6 0 7 -2.66699 3 -8l-240 -214l251 -284c4 -5.33301 3 -8 -3 -8zM229 -229h-13.001
c-4.66699 0 -6.66699 2.33301 -6 7l38 143c1.33301 4 3.33301 6 6 6h20c4.66699 0 6.33398 -2.66699 5.00098 -8l-43 -143c-2 -3.33301 -4.33301 -5 -7 -5z" />
    <glyph glyph-name="Lacute" unicode="&#x139;" horiz-adv-x="494" 
d="M474 0h-371c-4.66699 0 -7 2 -7 6v703c0 4 2.33301 6 7 6h21c4 0 6 -2 6 -6v-678h344c4 0 6 -2 6 -6v-19c0 -4 -2 -6 -6 -6zM235 927l-116 -134c-2 -2.66699 -4.66699 -4 -8 -4h-18c-6 0 -7 2.66699 -3 8l107 133c0.666992 2.66699 3 4 7 4h28
c6.66699 0 7.66699 -2.33301 3 -7z" />
    <glyph glyph-name="lacute" unicode="&#x13a;" horiz-adv-x="270" 
d="M257 -6c-22.667 -2.66699 -42 -4 -58 -4c-84.667 0 -127 55 -127 165v554c0 4 2 6 6 6h20c4 0 6 -2 6 -6v-557c0 -88 32 -132 96 -132c20 0 39 1.33301 57 4c4 0 6 -1.66699 6 -5v-17c0 -4 -2 -6.66699 -6 -8zM211 927l-116 -134c-2 -2.66699 -4.66699 -4 -8 -4h-18
c-6 0 -7 2.66699 -3 8l107 133c0.666992 2.66699 3 4 7 4h28c6.66699 0 7.66699 -2.33301 3 -7z" />
    <glyph glyph-name="uni013B" unicode="&#x13b;" horiz-adv-x="494" 
d="M475 0h-371c-4.66699 0 -7 2 -7 6v703c0 4 2.33301 6 7 6h21c4 0 6 -2 6 -6v-678h344c4 0 6 -2 6 -6v-19c0 -4 -2 -6 -6 -6zM257 -226h-12c-4.66699 0 -6.66699 2.33301 -6 7l41 140c1.33301 3.33301 3.33301 5 6 5h22c4 0 5.66699 -2.33301 5 -7l-50 -140
c-1.33301 -3.33301 -3.33301 -5 -6 -5z" />
    <glyph glyph-name="uni013C" unicode="&#x13c;" horiz-adv-x="270" 
d="M258 -6c-22.667 -2.66699 -42 -4 -58 -4c-84.667 0 -127 55 -127 165v554c0 4 2 6 6 6h20c4 0 6 -2 6 -6v-557c0 -88 32 -132 96 -132c20 0 39 1.33301 57 4c4 0 6 -1.66699 6 -5v-17c0 -4 -2 -6.66699 -6 -8zM154 -229h-13.001c-4.66699 0 -6.66699 2.33301 -6 7l38 143
c1.33301 4 3.33301 6 6 6h20c4.66699 0 6.33398 -2.66699 5.00098 -8l-43 -143c-2 -3.33301 -4.33301 -5 -7 -5z" />
    <glyph glyph-name="Lcaron" unicode="&#x13d;" horiz-adv-x="494" 
d="M324 543h-14c-5.33301 0 -7.33301 2.33301 -6 7l42 160c1.33301 3.33301 3.66602 5 6.99902 5h22c4.66699 0 6.33398 -2.33301 5.00098 -7l-50 -160c-1.33301 -3.33301 -3.33301 -5 -6 -5zM475 0h-371c-4.66699 0 -7 2 -7 6v703c0 4 2.33301 6 7 6h21c4 0 6 -2 6 -6v-678
h344c4 0 6 -2 6 -6v-19c0 -4 -2 -6 -6 -6z" />
    <glyph glyph-name="lcaron" unicode="&#x13e;" horiz-adv-x="282" 
d="M258 -6c-22.667 -2.66699 -42 -4 -58 -4c-84.667 0 -127 55 -127 165v554c0 4 2.33301 6 7 6h19c4 0 6 -2 6 -6v-557c0 -88 32.333 -132 97 -132c20 0 38.333 1.33301 55 4c4.66699 0 7 -1.66699 7 -5v-17c0 -4 -2 -6.66699 -6 -8zM225 569h-13
c-5.33301 0 -7.33301 2.33301 -6 7l41 134c2 3.33301 4.33301 5 7 5h19c6 0 7.66699 -2.33301 5 -7l-47 -134c-1.33301 -3.33301 -3.33301 -5 -6 -5z" />
    <glyph glyph-name="Ldot" unicode="&#x13f;" horiz-adv-x="494" 
d="M475 0h-371c-4.66699 0 -7 2 -7 6v703c0 4 2.33301 6 7 6h21c4 0 6 -2 6 -6v-678h344c4 0 6 -2 6 -6v-19c0 -4 -2 -6 -6 -6zM328 356c0 -8 -2.5 -14.5 -7.5 -19.5s-11.5 -7.5 -19.5 -7.5s-14.5 2.5 -19.5 7.5s-7.5 11.5 -7.5 19.5s2.5 14.5 7.5 19.5s11.5 7.5 19.5 7.5
s14.5 -2.5 19.5 -7.5s7.5 -11.5 7.5 -19.5z" />
    <glyph glyph-name="ldot" unicode="&#x140;" horiz-adv-x="284" 
d="M258 -6c-22.667 -2.66699 -42 -4 -58 -4c-84.667 0 -127 55 -127 165v554c0 4 2 6 6 6h20c4 0 6 -2 6 -6v-557c0 -88 32.333 -132 97 -132c18.667 0 37 1.33301 55 4c4.66699 0 7 -1.66699 7 -5v-17c0 -4 -2 -6.66699 -6 -8zM257 332c0 -7.33301 -2.33301 -13.5 -7 -18.5
s-11 -7.5 -19 -7.5c-7.33301 0 -13.5 2.5 -18.5 7.5s-7.5 11.167 -7.5 18.5c0 8 2.5 14.333 7.5 19s11.167 7 18.5 7c17.333 0 26 -8.66699 26 -26z" />
    <glyph glyph-name="Lslash" unicode="&#x141;" horiz-adv-x="497" 
d="M134 324v-293h344c4 0 6 -2 6 -6v-19c0 -4 -2 -6 -6 -6h-371c-4 0 -6 2 -6 6v297l-77 -52c-5.33301 -3.33301 -8 -2 -8 4v21c0 2.66699 1.33301 5 4 7l81 54v372c0 4 2 6 6 6h21c4 0 6 -2 6 -6v-350l165 111c5.33301 3.33301 8 2 8 -4v-21c0 -2 -1.33301 -4.33301 -4 -7z
" />
    <glyph glyph-name="lslash" unicode="&#x142;" horiz-adv-x="346" 
d="M300 -6c-22.667 -2.66699 -41.667 -4 -57 -4c-84.667 0 -127 55 -127 165v148l-83 -60c-5.33301 -4 -8 -2.66699 -8 4v19c0 3.33301 1.33301 6 4 8l87 63v372c0 4 2 6 6 6h20c4 0 6 -2 6 -6v-349l146 106c2 2 3.66699 2.33301 5 1s2 -3.33301 2 -6v-19
c0 -2.66699 -1.33301 -5 -4 -7l-149 -109v-174c0 -88 32 -132 96 -132c19.333 0 38 1.33301 56 4c4 0 6 -1.66699 6 -5v-17c0 -4 -2 -6.66699 -6 -8z" />
    <glyph glyph-name="Nacute" unicode="&#x143;" horiz-adv-x="699" 
d="M125 0h-20.999c-4.66699 0 -7 2 -7 6v703c0 4 2.33301 6 7 6h25c4 0 6.33301 -1.33301 7 -4l433 -659l-1 657c0 4 2.33301 6 7 6h20c4.66699 0 7 -2 7 -6v-703c0 -4 -2.33301 -6 -7 -6h-24c-4.66699 -0 -7.33398 1.33301 -8.00098 4l-433 657l1 -655c0 -4 -2 -6 -6 -6z
M454.001 927l-116 -134c-2 -2.66699 -4.66699 -4 -8 -4h-18c-6 0 -7 2.66699 -3 8l107 133c0.666992 2.66699 3 4 7 4h28c6.66699 0 7.66699 -2.33301 3 -7z" />
    <glyph glyph-name="nacute" unicode="&#x144;" horiz-adv-x="547" 
d="M102 0h-20.001c-4 0 -6 2 -6 6v472c0 3.33301 1.66699 6 5 8c56.667 25.333 117.334 38 182.001 38c67.333 0 119.5 -17 156.5 -51s55.5 -84.333 55.5 -151v-316c0 -4 -2 -6 -6 -6h-19c-4.66699 0 -7 2 -7 6v315c0 57.333 -15.5 100.5 -46.5 129.5
s-75.5 43.5 -133.5 43.5c-53.333 0 -105 -9.66699 -155 -29v-459c0 -4 -2 -6 -6 -6zM244.999 599h-14.9971c-6.66699 0 -8.33398 2.66699 -5.00098 8l83 134c1.33301 2.66699 3.66602 4 6.99902 4h25c5.33301 0 6.33301 -2.66699 3 -8l-90 -134
c-2.66699 -2.66699 -5.33398 -4 -8.00098 -4z" />
    <glyph glyph-name="uni0145" unicode="&#x145;" horiz-adv-x="699" 
d="M125 0h-20.999c-4.66699 0 -7 2 -7 6v703c0 4 2.33301 6 7 6h25c4 0 6.33301 -1.33301 7 -4l433 -659l-1 657c0 4 2.33301 6 7 6h20c4.66699 0 7 -2 7 -6v-703c0 -4 -2.33301 -6 -7 -6h-24c-4.66699 -0 -7.33398 1.33301 -8.00098 4l-433 657l1 -655c0 -4 -2 -6 -6 -6z
M322.001 -226h-12c-4.66699 0 -6.66699 2.33301 -6 7l41 140c1.33301 3.33301 3.33301 5 6 5h22c4 0 5.66699 -2.33301 5 -7l-50 -140c-1.33301 -3.33301 -3.33301 -5 -6 -5z" />
    <glyph glyph-name="uni0146" unicode="&#x146;" horiz-adv-x="547" 
d="M102 0h-20.001c-4 0 -6 2 -6 6v472c0 3.33301 1.66699 6 5 8c56.667 25.333 117.334 38 182.001 38c67.333 0 119.5 -17 156.5 -51s55.5 -84.333 55.5 -151v-316c0 -4 -2 -6 -6 -6h-19c-4.66699 0 -7 2 -7 6v315c0 57.333 -15.5 100.5 -46.5 129.5
s-75.5 43.5 -133.5 43.5c-53.333 0 -105 -9.66699 -155 -29v-459c0 -4 -2 -6 -6 -6zM247.999 -229h-13.001c-4.66699 0 -6.66699 2.33301 -6 7l38 143c1.33301 4 3.33301 6 6 6h20c4.66699 0 6.33398 -2.66699 5.00098 -8l-43 -143c-2 -3.33301 -4.33301 -5 -7 -5z" />
    <glyph glyph-name="Ncaron" unicode="&#x147;" horiz-adv-x="699" 
d="M125 0h-20.999c-4.66699 0 -7 2 -7 6v703c0 4 2.33301 6 7 6h25c4 0 6.33301 -1.33301 7 -4l433 -659l-1 657c0 4 2.33301 6 7 6h20c4.66699 0 7 -2 7 -6v-703c0 -4 -2.33301 -6 -7 -6h-24c-4.66699 -0 -7.33398 1.33301 -8.00098 4l-433 657l1 -655c0 -4 -2 -6 -6 -6z
M205.001 934h21c3.33301 0 6.33301 -1.33301 9 -4l115 -114l115 114c2.66699 2.66699 5.66699 4 9 4h21c2.66699 0 4.33398 -0.833008 5.00098 -2.5s0 -3.5 -2 -5.5l-129 -133c-2.66699 -2.66699 -5.33398 -4 -8.00098 -4h-22c-3.33301 0 -6 1.33301 -8 4l-130 133
c-4 5.33301 -2.66699 8 4 8z" />
    <glyph glyph-name="ncaron" unicode="&#x148;" horiz-adv-x="547" 
d="M102 0h-20.001c-4 0 -6 2 -6 6v472c0 3.33301 1.66699 6 5 8c56.667 25.333 117.334 38 182.001 38c67.333 0 119.5 -17 156.5 -51s55.5 -84.333 55.5 -151v-316c0 -4 -2 -6 -6 -6h-19c-4.66699 0 -7 2 -7 6v315c0 57.333 -15.5 100.5 -46.5 129.5
s-75.5 43.5 -133.5 43.5c-53.333 0 -105 -9.66699 -155 -29v-459c0 -4 -2 -6 -6 -6zM144.999 745h20.002c2.66699 0 5.33398 -1.33301 8.00098 -4l98 -117l98 117c1.33301 2.66699 3.66602 4 6.99902 4h21c6 0 7 -2.66699 3 -8l-113 -134
c-2.66699 -2.66699 -5.33398 -4 -8.00098 -4h-16c-2.66699 0 -5.33398 1.33301 -8.00098 4l-114 134c-3.33301 5.33301 -2 8 4 8z" />
    <glyph glyph-name="Eng" unicode="&#x14a;" horiz-adv-x="699" 
d="M568 53l0.000976562 656c0 4 2.33301 6 7 6h20c4.66699 0 7 -2 7 -6v-717c0 -70.667 -9.5 -120.167 -28.5 -148.5s-51.167 -42.5 -96.5 -42.5c-15.333 0 -30 1 -44 3c-4 1.33301 -6 3.66602 -6 6.99902v18c0 4.66699 2 6.33398 6 5.00098c20 -1.33301 33.333 -2 40 -2
c37.333 0 62.666 12.167 75.999 36.5s20 66.833 20 127.5l-439 664l1 -654c0 -4 -2 -6 -6 -6h-21c-4.66699 0 -7 2 -7 6v703c0 4 2.33301 6 7 6h25c4 0 6.33301 -1.33301 7 -4z" />
    <glyph glyph-name="eng" unicode="&#x14b;" horiz-adv-x="547" 
d="M475 -34c0 -110.667 -41.667 -165.999 -125 -165.999c-20 0 -37 1.66699 -51 5c-4 0.666992 -6 3 -6 7v16c0 2 0.5 3.66699 1.5 5s2.5 1.66602 4.5 0.999023c16 -2.66699 32.333 -4 49 -4c63.333 0 95 45.333 95 136v355c0 57.333 -15.5 100.5 -46.5 129.5
s-75.5 43.5 -133.5 43.5c-53.333 0 -105 -9.66699 -155 -29v-459c0 -4 -2 -6 -6 -6h-20c-4 0 -6 2 -6 6v472c0 1.33301 1.33301 4 4 8c58 25.333 119 38 183 38c67.333 0 119.5 -17 156.5 -51s55.5 -84.333 55.5 -151v-356z" />
    <glyph glyph-name="Omacron" unicode="&#x14c;" horiz-adv-x="665" 
d="M593 224c0 -68 -24.001 -124 -72.001 -168s-110.667 -66 -188 -66c-78 0 -141 22 -189 66s-72 100 -72 168v259c0 72 23.833 130.333 71.5 175s110.834 67 189.501 67c78 0 140.833 -22.333 188.5 -67s71.5 -103 71.5 -175v-259zM104.999 224
c0 -59.333 20.8311 -107.833 62.498 -145.5s96.834 -56.5 165.501 -56.5c68 0 122.833 18.833 164.5 56.5s62.5 86.167 62.5 145.5v259c0 63.333 -20.5 114.333 -61.5 153s-96.167 58 -165.5 58s-124.666 -19.333 -165.999 -58s-62 -89.667 -62 -153v-259zM458.997 840h-254
c-4 0 -6 2.33301 -6 7v16c0 4.66699 2 7 6 7h254c4 0 6 -2.33301 6 -7v-16c0 -4.66699 -2 -7 -6 -7z" />
    <glyph glyph-name="omacron" unicode="&#x14d;" horiz-adv-x="532" 
d="M474 178c0 -55.333 -18.167 -100.5 -54.5 -135.5s-87.5 -52.5 -153.5 -52.5c-65.333 0 -116.333 17.667 -153 53s-55 80.333 -55 135v158c0 54.667 18.333 99.667 55 135s87.667 53 153 53c66 0 117.167 -17.667 153.5 -53s54.5 -80.333 54.5 -135v-158zM90 178
c0 -46.667 15.167 -84.834 45.5 -114.501s73.833 -44.5 130.5 -44.5s100.167 14.833 130.5 44.5s45.5 67.834 45.5 114.501v158c0 46 -15.167 83.833 -45.5 113.5s-73.833 44.5 -130.5 44.5c-56 0 -99.333 -14.833 -130 -44.5s-46 -67.5 -46 -113.5v-158zM143 656v14
c0 4.66699 2 7 6 7h234c4.66699 0 7 -2.33301 7 -7v-14c0 -4.66699 -2.33301 -7 -7 -7h-234c-4 0 -6 2.33301 -6 7z" />
    <glyph glyph-name="Ohungarumlaut" unicode="&#x150;" horiz-adv-x="665" 
d="M593 224c0 -68 -24.001 -124 -72.001 -168s-110.667 -66 -188 -66c-78 0 -141 22 -189 66s-72 100 -72 168v259c0 72 23.833 130.333 71.5 175s110.834 67 189.501 67c78 0 140.833 -22.333 188.5 -67s71.5 -103 71.5 -175v-259zM104.999 224
c0 -59.333 20.8311 -107.833 62.498 -145.5s96.834 -56.5 165.501 -56.5c68 0 122.833 18.833 164.5 56.5s62.5 86.167 62.5 145.5v259c0 63.333 -20.5 114.333 -61.5 153s-96.167 58 -165.5 58s-124.666 -19.333 -165.999 -58s-62 -89.667 -62 -153v-259zM236.997 789
h-18.001c-5.33301 0 -6.66602 2.66699 -3.99902 8l108 133c0.666992 2.66699 3 4 7 4h27c6 0 7.33301 -2.33301 4 -7l-117 -134c-2 -2.66699 -4.33301 -4 -7 -4zM395.996 789h-17c-6.66699 0 -8 2.66699 -4 8l109 133c0.666992 2.66699 3 4 7 4h27
c6 0 7.33301 -2.33301 4 -7l-118 -134c-2 -2.66699 -4.66699 -4 -8 -4z" />
    <glyph glyph-name="ohungarumlaut" unicode="&#x151;" horiz-adv-x="532" 
d="M474 178c0 -55.333 -18.167 -100.5 -54.5 -135.5s-87.5 -52.5 -153.5 -52.5c-65.333 0 -116.333 17.667 -153 53s-55 80.333 -55 135v158c0 54.667 18.333 99.667 55 135s87.667 53 153 53c66 0 117.167 -17.667 153.5 -53s54.5 -80.333 54.5 -135v-158zM90 178
c0 -46.667 15.167 -84.834 45.5 -114.501s73.833 -44.5 130.5 -44.5s100.167 14.833 130.5 44.5s45.5 67.834 45.5 114.501v158c0 46 -15.167 83.833 -45.5 113.5s-73.833 44.5 -130.5 44.5c-56 0 -99.333 -14.833 -130 -44.5s-46 -67.5 -46 -113.5v-158zM196 599h-14
c-5.33301 0 -7 2.66699 -5 8l76 134c2.66699 2.66699 5.33398 4 8.00098 4h22c5.33301 0 6.33301 -2.66699 3 -8l-82 -134c-2.66699 -2.66699 -5.33398 -4 -8.00098 -4zM315 599h-13.999c-5.33301 0 -7 2.66699 -5 8l78 134c1.33301 2.66699 3.66602 4 6.99902 4h22
c6 0 7.33301 -2.66699 4 -8l-84 -134c-1.33301 -2.66699 -4 -4 -8 -4z" />
    <glyph glyph-name="OE" unicode="&#x152;" horiz-adv-x="999" 
d="M543 0c-4 0 -6 1.99902 -6 5.99902v107c-18 -37.333 -45.833 -67.166 -83.5 -89.499s-80.167 -33.5 -127.5 -33.5c-74.667 0 -135.667 22.5 -183 67.5s-71 103.833 -71 176.5v240c0 76 23.333 136.833 70 182.5s108 68.5 184 68.5c48 0 90.833 -11.333 128.5 -34
s65.167 -53 82.5 -91v109c0 4 2 6 6 6h387c4 0 6 -2 6 -6v-19c0 -4.66699 -2 -7 -6 -7h-360v-303h340c4 0 6 -2 6 -6v-19c0 -4.66699 -2 -7 -6 -7h-340v-316h375c4 0 6 -2.33301 6 -7v-19c0 -4 -2 -6 -6 -6h-402zM106 233.999c0 -63.333 20.334 -114.666 61.001 -153.999
s93.667 -59 159 -59c62 0 112.5 19.167 151.5 57.5s58.5 87.166 58.5 146.499v258c0 63.333 -19.333 114.333 -58 153s-89.334 58 -152.001 58c-66.667 0 -120 -19.833 -160 -59.5s-60 -93.167 -60 -160.5v-240z" />
    <glyph glyph-name="oe" unicode="&#x153;" horiz-adv-x="891" 
d="M641 -10c-41.333 0 -78.833 9.83301 -112.5 29.5s-57.5 46.834 -71.5 81.501c-30 -74 -93.667 -111 -191 -111c-65.333 0 -116.333 17.667 -153 53s-55 80.333 -55 135v158c0 54.667 18.333 99.667 55 135s87.667 53 153 53c48 0 88.5 -10.167 121.5 -30.5
s56.167 -47.833 69.5 -82.5c14 36.667 37.167 64.667 69.5 84s70.5 29 114.5 29c59.333 0 107.333 -16.833 144 -50.5s55 -80.167 55 -139.5v-90c0 -4 -2.33301 -6 -7 -6h-359v-66c0 -46.667 16.167 -83.834 48.5 -111.501s71.833 -41.5 118.5 -41.5c61.333 0 118 24 170 72
c3.33301 2 6.33301 1.66699 9 -1l11 -13c3.33301 -3.33301 3 -6.33301 -1 -9c-57.333 -52 -120.333 -78 -189 -78zM90 178c0 -46.667 15.167 -84.833 45.5 -114.5s73.833 -44.5 130.5 -44.5c57.333 0 101 14.5 131 43.5s45 67.5 45 115.5v158
c0 46 -15.167 83.833 -45.5 113.5s-73.833 44.5 -130.5 44.5c-56 0 -99.333 -14.833 -130 -44.5s-46 -67.5 -46 -113.5v-158zM474 334.001v-68h334v68c0 50 -15.167 89.167 -45.5 117.5s-70.833 42.5 -121.5 42.5c-52 0 -92.833 -14 -122.5 -42s-44.5 -67.333 -44.5 -118z
" />
    <glyph glyph-name="Racute" unicode="&#x154;" horiz-adv-x="618" 
d="M568 0h-27c-4.66699 -0 -7.33398 1.33301 -8.00098 4l-231 300h-171v-298c0 -4 -2 -6 -6 -6h-21c-4.66699 0 -7 2 -7 6v703c0 4 2.33301 6 7 6h219c74 0 132.167 -18.167 174.5 -54.5s63.5 -86.833 63.5 -151.5c0 -60.667 -19.333 -109 -58 -145
s-92.667 -55.667 -162 -59l231 -297c2.66699 -5.33301 1.33398 -8 -3.99902 -8zM323 684h-192v-349h192c65.333 0 115.833 15 151.5 45s53.5 73 53.5 129s-18 99.167 -54 129.5s-86.333 45.5 -151 45.5zM398 927l-116 -134c-2 -2.66699 -4.66699 -4 -8 -4h-18
c-6 0 -7 2.66699 -3 8l107 133c0.666992 2.66699 3 4 7 4h28c6.66699 0 7.66699 -2.33301 3 -7z" />
    <glyph glyph-name="racute" unicode="&#x155;" horiz-adv-x="373" 
d="M102 0l-20.001 0.00195312c-4 0 -6 2 -6 6v476c0 3.33301 1.66699 5.66602 5 6.99902c48.667 23.333 104.667 35 168 35c28.667 0 62.334 -3 101.001 -9c4 -0.666992 6 -3 6 -7v-17c0 -4.66699 -2 -6.33398 -6 -5.00098c-33.333 5.33301 -66.333 8 -99 8
c-51.333 0 -99 -8.66699 -143 -26v-462c0 -4 -2 -6 -6 -6zM189.999 599.002h-14.9971c-6.66699 0 -8.33398 2.66699 -5.00098 8l83 134c1.33301 2.66699 3.66602 4 6.99902 4h25c5.33301 0 6.33301 -2.66699 3 -8l-90 -134c-2.66699 -2.66699 -5.33398 -4 -8.00098 -4z" />
    <glyph glyph-name="uni0156" unicode="&#x156;" horiz-adv-x="618" 
d="M568 0h-27c-4.66699 -0 -7.33398 1.33301 -8.00098 4l-231 300h-171v-298c0 -4 -2 -6 -6 -6h-21c-4.66699 0 -7 2 -7 6v703c0 4 2.33301 6 7 6h219c74 0 132.167 -18.167 174.5 -54.5s63.5 -86.833 63.5 -151.5c0 -60.667 -19.333 -109 -58 -145
s-92.667 -55.667 -162 -59l231 -297c2.66699 -5.33301 1.33398 -8 -3.99902 -8zM323 684h-192v-349h192c65.333 0 115.833 15 151.5 45s53.5 73 53.5 129s-18 99.167 -54 129.5s-86.333 45.5 -151 45.5zM289 -226h-12c-4.66699 0 -6.66699 2.33301 -6 7l41 140
c1.33301 3.33301 3.33301 5 6 5h22c4 0 5.66699 -2.33301 5 -7l-50 -140c-1.33301 -3.33301 -3.33301 -5 -6 -5z" />
    <glyph glyph-name="uni0157" unicode="&#x157;" horiz-adv-x="373" 
d="M102 0l-20.001 0.00195312c-4 0 -6 2 -6 6v476c0 3.33301 1.66699 5.66602 5 6.99902c48.667 23.333 104.667 35 168 35c28.667 0 62.334 -3 101.001 -9c4 -0.666992 6 -3 6 -7v-17c0 -4.66699 -2 -6.33398 -6 -5.00098c-33.333 5.33301 -66.333 8 -99 8
c-51.333 0 -99 -8.66699 -143 -26v-462c0 -4 -2 -6 -6 -6zM68.999 -228.998h-13.001c-4.66699 0 -6.66699 2.33301 -6 7l38 143c1.33301 4 3.33301 6 6 6h20c4.66699 0 6.33398 -2.66699 5.00098 -8l-43 -143c-2 -3.33301 -4.33301 -5 -7 -5z" />
    <glyph glyph-name="Rcaron" unicode="&#x158;" horiz-adv-x="618" 
d="M568 0h-27c-4.66699 -0 -7.33398 1.33301 -8.00098 4l-231 300h-171v-298c0 -4 -2 -6 -6 -6h-21c-4.66699 0 -7 2 -7 6v703c0 4 2.33301 6 7 6h219c74 0 132.167 -18.167 174.5 -54.5s63.5 -86.833 63.5 -151.5c0 -60.667 -19.333 -109 -58 -145
s-92.667 -55.667 -162 -59l231 -297c2.66699 -5.33301 1.33398 -8 -3.99902 -8zM323 684h-192v-349h192c65.333 0 115.833 15 151.5 45s53.5 73 53.5 129s-18 99.167 -54 129.5s-86.333 45.5 -151 45.5zM160 934h21c3.33301 0 6.33301 -1.33301 9 -4l115 -114l115 114
c2.66699 2.66699 5.66699 4 9 4h21c2.66699 0 4.33398 -0.833008 5.00098 -2.5s0 -3.5 -2 -5.5l-129 -133c-2.66699 -2.66699 -5.33398 -4 -8.00098 -4h-22c-3.33301 0 -6 1.33301 -8 4l-130 133c-4 5.33301 -2.66699 8 4 8z" />
    <glyph glyph-name="rcaron" unicode="&#x159;" horiz-adv-x="373" 
d="M102 0l-20.001 0.00195312c-4 0 -6 2 -6 6v476c0 3.33301 1.66699 5.66602 5 6.99902c48.667 23.333 104.667 35 168 35c28.667 0 62.334 -3 101.001 -9c4 -0.666992 6 -3 6 -7v-17c0 -4.66699 -2 -6.33398 -6 -5.00098c-33.333 5.33301 -66.333 8 -99 8
c-51.333 0 -99 -8.66699 -143 -26v-462c0 -4 -2 -6 -6 -6zM93.999 745.002h20.002c2.66699 0 5.33398 -1.33301 8.00098 -4l98 -117l98 117c1.33301 2.66699 3.66602 4 6.99902 4h21c6 0 7 -2.66699 3 -8l-113 -134c-2.66699 -2.66699 -5.33398 -4 -8.00098 -4h-16
c-2.66699 0 -5.33398 1.33301 -8.00098 4l-114 134c-3.33301 5.33301 -2 8 4 8z" />
    <glyph glyph-name="Sacute" unicode="&#x15a;" horiz-adv-x="593" 
d="M546 179c0 -60 -22.1689 -106.5 -66.502 -139.5s-103.833 -49.5 -178.5 -49.5c-49.333 0 -92.833 7.33301 -130.5 22s-76.167 38.667 -115.5 72c-2.66699 2.66699 -3 5.66699 -1 9l12 15c3.33301 3.33301 6.33301 4 9 2c70.667 -58.667 146 -88 226 -88
c64 0 115.167 13.5 153.5 40.5s57.5 65.833 57.5 116.5c0 45.333 -16 80.333 -48 105s-88.667 46.334 -170 65.001c-79.333 18 -138.666 43.167 -177.999 75.5s-59 74.833 -59 127.5c0 56.667 22.167 99.667 66.5 129s100.5 44 168.5 44c88 0 165.667 -26.667 233 -80
c4 -2 4.33301 -4.66699 1 -8l-10 -16c-2.66699 -3.33301 -5.66699 -4 -9 -2c-60.667 48.667 -133.667 73.667 -219 75c-56.667 0 -103.667 -12.333 -141 -37s-56 -60.334 -56 -107.001c0 -44 16.833 -78.833 50.5 -104.5s86.834 -47.167 159.501 -64.5
c89.333 -21.333 152.5 -47 189.5 -77s55.5 -71.667 55.5 -125zM394.998 927l-116 -134c-2 -2.66699 -4.66699 -4 -8 -4h-18c-6 0 -7 2.66699 -3 8l107 133c0.666992 2.66699 3 4 7 4h28c6.66699 0 7.66699 -2.33301 3 -7z" />
    <glyph glyph-name="sacute" unicode="&#x15b;" horiz-adv-x="461" 
d="M422 134c0 -43.333 -16.4961 -78.1621 -49.4961 -104.495s-79.5 -39.5 -139.5 -39.5c-72 0 -135.333 21.333 -190 64c-4 2 -4.66699 5 -2 9l10 15c2.66699 3.33301 5.33398 3.66602 8.00098 0.999023c53.333 -40 111.333 -60 174 -60c47.333 0 85.333 10 114 30
s43 48 43 84c0 16 -3.33301 30 -10 42s-14.334 21.667 -23.001 29s-21.334 14 -38.001 20s-30.167 10.333 -40.5 13s-25.5 6 -45.5 10c-19.333 4 -36.333 8 -51 12s-30.834 10 -48.501 18s-32.167 17 -43.5 27s-21 22.667 -29 38s-12 32.666 -12 51.999
c0 40 16.5 71.667 49.5 95s75.167 35 126.5 35c61.333 0 120 -16.333 176 -49c3.33301 -2 4 -4.66699 2 -8l-9 -15c-1.33301 -4 -4 -4.66699 -8 -2c-52 29.333 -106 44 -162 44c-42.667 0 -77.334 -9 -104.001 -27s-40 -42.333 -40 -73
c0 -18.667 4.33301 -34.834 13 -48.501s21.5 -24.834 38.5 -33.501s33.333 -15.5 49 -20.5s35.167 -9.83301 58.5 -14.5c22.667 -4.66699 40.834 -8.83398 54.501 -12.501s29.667 -9.33398 48 -17.001s32.666 -16 42.999 -25s19.166 -21.167 26.499 -36.5
s11 -32.666 11 -51.999zM206.004 599.004h-14.9971c-6.66699 0 -8.33398 2.66699 -5.00098 8l83 134c1.33301 2.66699 3.66602 4 6.99902 4h25c5.33301 0 6.33301 -2.66699 3 -8l-90 -134c-2.66699 -2.66699 -5.33398 -4 -8.00098 -4z" />
    <glyph glyph-name="Scedilla" unicode="&#x15e;" horiz-adv-x="593" 
d="M546 179c0 -56.667 -20.1689 -101.335 -60.502 -134.002s-94.833 -50.667 -163.5 -54l-19 -51c62 0 93 -22.333 93 -67c0 -23.333 -9 -42 -27 -56s-42.333 -21 -73 -21c-22 0 -42 3.33301 -60 10c-3.33301 0.666992 -5 3 -5 7v12c0 4 2.33301 5.66699 7 5
c19.333 -6.66699 38.333 -10 57 -10c48.667 0 73 18 73 54c0 32 -28.667 48 -86 48c-4 0 -6.33301 1.33301 -7 4c-2 2 -2.33301 4.33301 -1 7l22 57c-48 0.666992 -90.5 8.33398 -127.5 23.001s-74.833 38.334 -113.5 71.001c-2.66699 2.66699 -3 5.66699 -1 9l12 15
c3.33301 3.33301 6.33301 4 9 2c70.667 -58.667 146 -88 226 -88c64 0 115.167 13.5 153.5 40.5s57.5 65.833 57.5 116.5c0 45.333 -16 80.333 -48 105s-88.667 46.334 -170 65.001c-79.333 18 -138.666 43.167 -177.999 75.5s-59 74.833 -59 127.5
c0 56.667 22.167 99.667 66.5 129s100.5 44 168.5 44c88 0 165.667 -26.667 233 -80c4 -2 4.33301 -4.66699 1 -8l-10 -16c-2.66699 -3.33301 -5.66699 -4 -9 -2c-60.667 48.667 -133.667 73.667 -219 75c-56.667 0 -103.667 -12.333 -141 -37s-56 -60.334 -56 -107.001
c0 -44 16.833 -78.833 50.5 -104.5s86.834 -47.167 159.501 -64.5c89.333 -21.333 152.5 -47 189.5 -77s55.5 -71.667 55.5 -125z" />
    <glyph glyph-name="scedilla" unicode="&#x15f;" horiz-adv-x="461" 
d="M319 -127c0 -22.667 -8.82812 -40.9961 -26.4951 -54.9961s-41.5 -21 -71.5 -21c-20.667 0 -40.334 3 -59.001 9c-3.33301 1.33301 -5 4 -5 8v11c0 4 2.33301 5.66699 7 5c18.667 -6 37 -9 55 -9c47.333 0 71 17.667 71 53c0 16.667 -6.33301 28.834 -19 36.501
s-33.667 11.834 -63 12.501c-3.33301 0 -6 1.33301 -8 4c-1.33301 1.33301 -1.33301 3.66602 0 6.99902l21 56c-68 2.66699 -127.333 24 -178 64c-4 2 -4.66699 5 -2 9l10 15c2.66699 3.33301 5.33398 3.66602 8.00098 0.999023c53.333 -40 111.333 -60 174 -60
c47.333 0 85.333 10 114 30s43 48 43 84c0 16 -3.33301 30 -10 42s-14.334 21.667 -23.001 29s-21.334 14 -38.001 20s-30.167 10.333 -40.5 13s-25.5 6 -45.5 10c-19.333 4 -36.333 8 -51 12s-30.834 10 -48.501 18s-32.167 17 -43.5 27s-21 22.667 -29 38
s-12 32.666 -12 51.999c0 40 16.5 71.667 49.5 95s75.167 35 126.5 35c61.333 0 120 -16.333 176 -49c3.33301 -2 4 -4.66699 2 -8l-9 -15c-1.33301 -4 -4 -4.66699 -8 -2c-52 29.333 -106 44 -162 44c-42.667 0 -77.334 -9 -104.001 -27s-40 -42.333 -40 -73
c0 -18.667 4.33301 -34.834 13 -48.501s21.5 -24.834 38.5 -33.501s33.333 -15.5 49 -20.5s35.167 -9.83301 58.5 -14.5c22.667 -4.66699 40.834 -8.83398 54.501 -12.501s29.667 -9.33398 48 -17.001s32.666 -16 42.999 -25s19.166 -21.167 26.499 -36.5
s11 -32.666 11 -51.999c0 -42 -15.333 -76 -46 -102s-74 -40 -130 -42l-18 -49c28.667 0 51 -5.83301 67 -17.5s24 -28.5 24 -50.5z" />
    <glyph glyph-name="Scaron" unicode="&#x160;" horiz-adv-x="593" 
d="M546 179c0 -60 -22.1689 -106.5 -66.502 -139.5s-103.833 -49.5 -178.5 -49.5c-49.333 0 -92.833 7.33301 -130.5 22s-76.167 38.667 -115.5 72c-2.66699 2.66699 -3 5.66699 -1 9l12 15c3.33301 3.33301 6.33301 4 9 2c70.667 -58.667 146 -88 226 -88
c64 0 115.167 13.5 153.5 40.5s57.5 65.833 57.5 116.5c0 45.333 -16 80.333 -48 105s-88.667 46.334 -170 65.001c-79.333 18 -138.666 43.167 -177.999 75.5s-59 74.833 -59 127.5c0 56.667 22.167 99.667 66.5 129s100.5 44 168.5 44c88 0 165.667 -26.667 233 -80
c4 -2 4.33301 -4.66699 1 -8l-10 -16c-2.66699 -3.33301 -5.66699 -4 -9 -2c-60.667 48.667 -133.667 73.667 -219 75c-56.667 0 -103.667 -12.333 -141 -37s-56 -60.334 -56 -107.001c0 -44 16.833 -78.833 50.5 -104.5s86.834 -47.167 159.501 -64.5
c89.333 -21.333 152.5 -47 189.5 -77s55.5 -71.667 55.5 -125zM148.998 934h21c3.33301 0 6.33301 -1.33301 9 -4l115 -114l115 114c2.66699 2.66699 5.66699 4 9 4h21c2.66699 0 4.33398 -0.833008 5.00098 -2.5s0 -3.5 -2 -5.5l-129 -133
c-2.66699 -2.66699 -5.33398 -4 -8.00098 -4h-22c-3.33301 0 -6 1.33301 -8 4l-130 133c-4 5.33301 -2.66699 8 4 8z" />
    <glyph glyph-name="scaron" unicode="&#x161;" horiz-adv-x="461" 
d="M422 134c0 -43.333 -16.4961 -78.1621 -49.4961 -104.495s-79.5 -39.5 -139.5 -39.5c-72 0 -135.333 21.333 -190 64c-4 2 -4.66699 5 -2 9l10 15c2.66699 3.33301 5.33398 3.66602 8.00098 0.999023c53.333 -40 111.333 -60 174 -60c47.333 0 85.333 10 114 30
s43 48 43 84c0 16 -3.33301 30 -10 42s-14.334 21.667 -23.001 29s-21.334 14 -38.001 20s-30.167 10.333 -40.5 13s-25.5 6 -45.5 10c-19.333 4 -36.333 8 -51 12s-30.834 10 -48.501 18s-32.167 17 -43.5 27s-21 22.667 -29 38s-12 32.666 -12 51.999
c0 40 16.5 71.667 49.5 95s75.167 35 126.5 35c61.333 0 120 -16.333 176 -49c3.33301 -2 4 -4.66699 2 -8l-9 -15c-1.33301 -4 -4 -4.66699 -8 -2c-52 29.333 -106 44 -162 44c-42.667 0 -77.334 -9 -104.001 -27s-40 -42.333 -40 -73
c0 -18.667 4.33301 -34.834 13 -48.501s21.5 -24.834 38.5 -33.501s33.333 -15.5 49 -20.5s35.167 -9.83301 58.5 -14.5c22.667 -4.66699 40.834 -8.83398 54.501 -12.501s29.667 -9.33398 48 -17.001s32.666 -16 42.999 -25s19.166 -21.167 26.499 -36.5
s11 -32.666 11 -51.999zM108.004 745.004h20.002c2.66699 0 5.33398 -1.33301 8.00098 -4l98 -117l98 117c1.33301 2.66699 3.66602 4 6.99902 4h21c6 0 7 -2.66699 3 -8l-113 -134c-2.66699 -2.66699 -5.33398 -4 -8.00098 -4h-16c-2.66699 0 -5.33398 1.33301 -8.00098 4
l-114 134c-3.33301 5.33301 -2 8 4 8z" />
    <glyph glyph-name="uni0162" unicode="&#x162;" horiz-adv-x="534" 
d="M237 -226h-12c-4.66699 0 -6.66699 2.33301 -6 7l41 140c1.33301 3.33301 3.33301 5 6 5h22c4 0 5.66699 -2.33301 5 -7l-50 -140c-1.33301 -3.33301 -3.33301 -5 -6 -5zM18 715h497c4.66699 0 7 -2 7 -6v-19c0 -4 -2.33301 -6 -7 -6h-233v-678c0 -4 -2 -6 -6 -6h-21
c-4.66699 0 -7 2 -7 6v678h-230c-4 0 -6 2 -6 6v19c0 4 2 6 6 6z" />
    <glyph glyph-name="uni0163" unicode="&#x163;" horiz-adv-x="303" 
d="M130 -229h-13.001c-4.66699 0 -6.66699 2.33301 -6 7l38 143c1.33301 4 3.33301 6 6 6h20c4.66699 0 6.33398 -2.66699 5.00098 -8l-43 -143c-2 -3.33301 -4.33301 -5 -7 -5zM104.999 155c0 -42.667 10.5 -75.499 31.5 -98.499s51.167 -34.5 90.5 -34.5c20 0 40 1 60 3
c4 0 6 -2 6 -6v-17c0 -4 -2 -6.33301 -6 -7c-19.333 -2 -39.333 -3 -60 -3c-48 0 -85.667 14.167 -113 42.5s-41 68.166 -41 119.499v483c0 4 2 6 6 6h19c4 0 6.33301 -2 7 -6v-124h169c4 0 6 -2 6 -6v-17c0 -4.66699 -2 -7 -6 -7h-169v-328z" />
    <glyph glyph-name="Tcaron" unicode="&#x164;" horiz-adv-x="534" 
d="M18 715h497c4.66699 0 7 -2 7 -6v-19c0 -4 -2.33301 -6 -7 -6h-233v-678c0 -4 -2 -6 -6 -6h-21c-4.66699 0 -7 2 -7 6v678h-230c-4 0 -6 2 -6 6v19c0 4 2 6 6 6zM120 934h21c3.33301 0 6.33301 -1.33301 9 -4l115 -114l115 114c2.66699 2.66699 5.66699 4 9 4h21
c2.66699 0 4.33398 -0.833008 5.00098 -2.5s0 -3.5 -2 -5.5l-129 -133c-2.66699 -2.66699 -5.33398 -4 -8.00098 -4h-22c-3.33301 0 -6 1.33301 -8 4l-130 133c-4 5.33301 -2.66699 8 4 8z" />
    <glyph glyph-name="tcaron" unicode="&#x165;" horiz-adv-x="303" 
d="M287 -5c-19.333 -2 -39.332 -2.99902 -59.999 -2.99902c-48 0 -85.667 14.167 -113 42.5s-41 68.166 -41 119.499v483c0 4 2 6 6 6h18c3.33301 0 5.66602 -2 6.99902 -6l1 -124h169c4 0 6 -2 6 -6v-17c0 -4.66699 -2 -7 -6 -7h-169v-328c0 -42.667 10.5 -75.5 31.5 -98.5
s51.167 -34.5 90.5 -34.5c20 0 40 1 60 3c4 0 6 -2 6 -6v-17c0 -4 -2 -6.33301 -6 -7zM224.001 589.001h-11.999c-4.66699 0 -6.66699 2.33301 -6 7l42 143c1.33301 4 3.66602 6 6.99902 6h19c5.33301 0 7 -2.66699 5 -8l-48 -143c-2 -3.33301 -4.33301 -5 -7 -5z" />
    <glyph glyph-name="Tbar" unicode="&#x166;" horiz-adv-x="549" 
d="M283 0h-21c-4 0 -6 2 -6 6v327h-149c-4 0 -6 2 -6 6v15c0 4.66699 2 7 6 7h149v323h-230c-4 0 -6 2 -6 6v19c0 4 2 6 6 6h496c4.66699 0 7 -2 7 -6v-19c0 -4 -2.33301 -6 -7 -6h-233v-323h149c4 0 6 -2.33301 6 -7v-15c0 -4 -2 -6 -6 -6h-149v-327c0 -4 -2 -6 -6 -6z" />
    <glyph glyph-name="tbar" unicode="&#x167;" horiz-adv-x="306" 
d="M290 -5c-20 -2 -40.333 -2.99902 -61 -2.99902c-48 0 -85.5 14.167 -112.5 42.5s-40.5 68.166 -40.5 119.499v113h-50c-4.66699 0 -7 2 -7 6v14c0 4 2.33301 6 7 6h50v344c0 4 2 6 6 6h18c4 0 6 -2 6 -6l2 -124h168c4.66699 0 7 -2 7 -6v-17
c0 -4.66699 -2.33301 -7 -7 -7h-168v-190h125c4 0 6 -2 6 -6v-14c0 -4 -2 -6 -6 -6h-125v-112c0 -42.667 10.5 -75.5 31.5 -98.5s51.167 -34.5 90.5 -34.5c20 0 40 1 60 3c4 0 6 -2 6 -6v-17c0 -4 -2 -6.33301 -6 -7z" />
    <glyph glyph-name="Umacron" unicode="&#x16a;" horiz-adv-x="673" 
d="M582 241c0 -75.333 -21.832 -135.666 -65.499 -180.999s-103.834 -68 -180.501 -68s-136.667 22.667 -180 68s-65 105.666 -65 180.999v468c0 4 2.33301 6 7 6h21c4 0 6 -2 6 -6v-467c0 -67.333 18.333 -120.666 55 -159.999s88.667 -59 156 -59s119.5 19.667 156.5 59
s55.5 92.666 55.5 159.999v467c0 4 2 6 6 6h21c4.66699 0 7 -2 7 -6v-468zM463.001 840h-254c-4 0 -6 2.33301 -6 7v16c0 4.66699 2 7 6 7h254c4 0 6 -2.33301 6 -7v-16c0 -4.66699 -2 -7 -6 -7z" />
    <glyph glyph-name="umacron" unicode="&#x16b;" horiz-adv-x="540" 
d="M439 514l19 0.000976562c4 0 6 -2.33301 6 -7v-471c0 -4.66699 -1.66699 -7.33398 -5 -8.00098c-54.667 -25.333 -114 -38 -178 -38c-65.333 0 -116.333 17.167 -153 51.5s-55 84.5 -55 150.5v315c0 4.66699 2 7 6 7h20c4 0 6 -2.33301 6 -7v-315
c0 -57.333 15.167 -100.5 45.5 -129.5s73.833 -43.5 130.5 -43.5c48.667 0 99 10 151 30v458c0 4.66699 2.33301 7 7 7zM146 656.001v14c0 4.66699 2 7 6 7h234c4.66699 0 7 -2.33301 7 -7v-14c0 -4.66699 -2.33301 -7 -7 -7h-234c-4 0 -6 2.33301 -6 7z" />
    <glyph glyph-name="Uring" unicode="&#x16e;" horiz-adv-x="673" 
d="M582 241c0 -75.333 -21.832 -135.666 -65.499 -180.999s-103.834 -68 -180.501 -68s-136.667 22.667 -180 68s-65 105.666 -65 180.999v468c0 4 2.33301 6 7 6h21c4 0 6 -2 6 -6v-467c0 -67.333 18.333 -120.666 55 -159.999s88.667 -59 156 -59s119.5 19.667 156.5 59
s55.5 92.666 55.5 159.999v467c0 4 2 6 6 6h21c4.66699 0 7 -2 7 -6v-468zM434.001 865c0 -28.667 -8.83301 -51.167 -26.5 -67.5s-41.167 -24.5 -70.5 -24.5c-28.667 0 -52 8.33301 -70 25s-27 39 -27 67c0 28.667 9 51.334 27 68.001s41.333 25 70 25
c29.333 0 52.833 -8.33301 70.5 -25s26.5 -39.334 26.5 -68.001zM265.001 865c0 -21.333 6.33301 -38 19 -50s30.667 -18 54 -18c22.667 0 40.167 6 52.5 18s18.5 28.667 18.5 50s-6.16699 38.166 -18.5 50.499s-29.833 18.5 -52.5 18.5s-40.5 -6.16699 -53.5 -18.5
s-19.5 -29.166 -19.5 -50.499z" />
    <glyph glyph-name="uring" unicode="&#x16f;" horiz-adv-x="540" 
d="M439 514l19 0.000976562c4 0 6 -2.33301 6 -7v-471c0 -4.66699 -1.66699 -7.33398 -5 -8.00098c-54.667 -25.333 -114 -38 -178 -38c-65.333 0 -116.333 17.167 -153 51.5s-55 84.5 -55 150.5v315c0 4.66699 2 7 6 7h20c4 0 6 -2.33301 6 -7v-315
c0 -57.333 15.167 -100.5 45.5 -129.5s73.833 -43.5 130.5 -43.5c48.667 0 99 10 151 30v458c0 4.66699 2.33301 7 7 7zM366 679.001c0 -28 -8.83203 -50.333 -26.499 -67s-40.834 -25 -69.501 -25s-52 8.33301 -70 25s-27 39 -27 67s9 50.333 27 67s41.333 25 70 25
c28 0 51 -8.33301 69 -25s27 -39 27 -67zM198.001 679.001c0 -20 6.66699 -36.333 20 -49s30.666 -19 51.999 -19c20.667 0 37.667 6.33301 51 19s20 29 20 49s-6.66699 36.333 -20 49s-30.333 19 -51 19c-21.333 0 -38.666 -6.33301 -51.999 -19s-20 -29 -20 -49z" />
    <glyph glyph-name="Uhungarumlaut" unicode="&#x170;" horiz-adv-x="673" 
d="M582 241c0 -75.333 -21.832 -135.666 -65.499 -180.999s-103.834 -68 -180.501 -68s-136.667 22.667 -180 68s-65 105.666 -65 180.999v468c0 4 2.33301 6 7 6h21c4 0 6 -2 6 -6v-467c0 -67.333 18.333 -120.666 55 -159.999s88.667 -59 156 -59s119.5 19.667 156.5 59
s55.5 92.666 55.5 159.999v467c0 4 2 6 6 6h21c4.66699 0 7 -2 7 -6v-468zM230.001 789h-18.001c-5.33301 0 -6.66602 2.66699 -3.99902 8l108 133c0.666992 2.66699 3 4 7 4h27c6 0 7.33301 -2.33301 4 -7l-117 -134c-2 -2.66699 -4.33301 -4 -7 -4zM389 789h-17
c-6.66699 0 -8 2.66699 -4 8l109 133c0.666992 2.66699 3 4 7 4h27c6 0 7.33301 -2.33301 4 -7l-118 -134c-2 -2.66699 -4.66699 -4 -8 -4z" />
    <glyph glyph-name="uhungarumlaut" unicode="&#x171;" horiz-adv-x="540" 
d="M439 514l19 0.000976562c4 0 6 -2.33301 6 -7v-471c0 -4.66699 -1.66699 -7.33398 -5 -8.00098c-54.667 -25.333 -114 -38 -178 -38c-65.333 0 -116.333 17.167 -153 51.5s-55 84.5 -55 150.5v315c0 4.66699 2 7 6 7h20c4 0 6 -2.33301 6 -7v-315
c0 -57.333 15.167 -100.5 45.5 -129.5s73.833 -43.5 130.5 -43.5c48.667 0 99 10 151 30v458c0 4.66699 2.33301 7 7 7zM199 599.001h-14c-5.33301 0 -7 2.66699 -5 8l76 134c2.66699 2.66699 5.33398 4 8.00098 4h22c5.33301 0 6.33301 -2.66699 3 -8l-82 -134
c-2.66699 -2.66699 -5.33398 -4 -8.00098 -4zM318 599.001h-13.999c-5.33301 0 -7 2.66699 -5 8l78 134c1.33301 2.66699 3.66602 4 6.99902 4h22c6 0 7.33301 -2.66699 4 -8l-84 -134c-1.33301 -2.66699 -4 -4 -8 -4z" />
    <glyph glyph-name="Uogonek" unicode="&#x172;" horiz-adv-x="673" 
d="M483 -180c-22.667 -12 -48.667 -17.999 -78 -17.999c-22 0 -39.667 6.33301 -53 19s-20 30 -20 52c0 44 25.667 87.333 77 130v1c-22 -8 -46 -12 -72 -12c-72 0 -131 21.833 -177 65.5s-69 99.167 -69 166.5v485c0 4 2.33301 6 7 6h21c4 0 6 -2 6 -6v-485
c0 -58 19.667 -106 59 -144s90.333 -57 153 -57s113.5 19 152.5 57s58.5 86 58.5 144v485c0 4 2.33301 6 7 6h21c4 0 6 -2 6 -6v-485c0 -82.667 -36.667 -148.667 -110 -198c-34.667 -22.667 -61.334 -47.334 -80.001 -74.001s-28 -51 -28 -73c0 -32 15.667 -48 47 -48
c23.333 0 43.333 4.66699 60 14c4 3.33301 6.66699 2.33301 8 -3l5 -14c2.66699 -4 2.33398 -6.66699 -0.999023 -8z" />
    <glyph glyph-name="uogonek" unicode="&#x173;" horiz-adv-x="540" 
d="M443 -176c-23.333 -14.667 -48.668 -22.001 -76.001 -22.001c-26 0 -46.333 6.5 -61 19.5s-22 31.833 -22 56.5c0 22.667 9 45.334 27 68.001s43.333 42.667 76 60c-32.667 -10.667 -67 -16 -103 -16c-67.333 0 -119.333 16.667 -156 50s-55 82.333 -55 147v320
c0 4.66699 2 7 6 7h20c4 0 6 -2.33301 6 -7v-320c0 -112 59.333 -168 178 -168c46.667 0 96.334 9 149.001 27v461c0 4.66699 2 7 6 7h20c4 0 6 -2.33301 6 -7v-475c0 -4 -1.66699 -6.33301 -5 -7c-39.333 -18 -73.333 -40 -102 -66s-43 -51.667 -43 -77
c0 -34 18.333 -51 55 -51c22 0 43 6.33301 63 19c4 1.33301 6.33301 0.333008 7 -3l7 -15c1.33301 -4 0.333008 -6.66699 -3 -8z" />
    <glyph glyph-name="Wcircumflex" unicode="&#x174;" horiz-adv-x="932" 
d="M253 0h-27.001c-2.66699 0 -5 1.66699 -7 5l-204 703c-1.33301 4.66699 0.333984 7 5.00098 7h23c2.66699 0 4.66699 -1.66699 6 -5l190 -668h1l208 654c1.33301 4 3.33301 6 6 6h23c2 0 4.33301 -2 7 -6l208 -654l190 668c1.33301 3.33301 3.66602 5 6.99902 5h22
c5.33301 0 7.33301 -2.33301 6 -7l-205 -703c-1.33301 -3.33301 -3.33301 -5 -6 -5h-27c-3.33301 0 -5.66602 1.66699 -6.99902 5l-206 648h-1c-16 -55.333 -84.667 -271.333 -206 -648c-1.33301 -3.33301 -3.33301 -5 -6 -5zM341.999 789h-21c-6.66699 0 -8 2.66699 -4 8
l130 133c2 2.66699 4.66699 4 8 4h22c2.66699 0 5.33398 -1.33301 8.00098 -4l129 -133c2 -2 2.66699 -3.83301 2 -5.5s-2.33398 -2.5 -5.00098 -2.5h-21c-3.33301 0 -6.33301 1.33301 -9 4l-115 114l-115 -114c-2.66699 -2.66699 -5.66699 -4 -9 -4z" />
    <glyph glyph-name="wcircumflex" unicode="&#x175;" horiz-adv-x="740" 
d="M214 0h-26.001c-2.66699 0 -4.66699 1.66699 -6 5l-160 501c-1.33301 5.33301 0.333984 8 5.00098 8h21c3.33301 0 5.66602 -1.66699 6.99902 -5l146 -468h1l150 456c1.33301 3.33301 3.33301 5 6 5h24c3.33301 0 5.66602 -1.66699 6.99902 -5l150 -456l147 468
c1.33301 3.33301 3.33301 5 6 5h21c5.33301 0 7 -2.66699 5 -8l-159 -501c-1.33301 -3.33301 -3.66602 -5 -6.99902 -5h-25c-3.33301 0 -5.66602 1.66699 -6.99902 5l-149 455h-1l-150 -455c-1.33301 -3.33301 -3.33301 -5 -6 -5zM263.999 599h-20.002
c-6 0 -7.33301 2.66699 -4 8l114 134c2.66699 2.66699 5.33398 4 8.00098 4h16c2.66699 0 5.33398 -1.33301 8.00098 -4l113 -134c4 -5.33301 3 -8 -3 -8h-21c-3.33301 0 -5.66602 1.33301 -6.99902 4l-98 117l-98 -117c-2.66699 -2.66699 -5.33398 -4 -8.00098 -4z" />
    <glyph glyph-name="Ycircumflex" unicode="&#x176;" horiz-adv-x="536" 
d="M278 0h-21.001c-4 0 -6 2 -6 6v277l-241 424c-2 5.33301 -0.333008 8 5 8h24c4 0 6.33301 -1.33301 7 -4l222 -395l222 395c0.666992 2.66699 3.33398 4 8.00098 4h23c5.33301 0 7 -2.66699 5 -8l-241 -424v-277c0 -4 -2.33301 -6 -7 -6zM143.999 789h-21
c-6.66699 0 -8 2.66699 -4 8l130 133c2 2.66699 4.66699 4 8 4h22c2.66699 0 5.33398 -1.33301 8.00098 -4l129 -133c2 -2 2.66699 -3.83301 2 -5.5s-2.33398 -2.5 -5.00098 -2.5h-21c-3.33301 0 -6.33301 1.33301 -9 4l-115 114l-115 -114
c-2.66699 -2.66699 -5.66699 -4 -9 -4z" />
    <glyph glyph-name="ycircumflex" unicode="&#x177;" horiz-adv-x="540" 
d="M431 86l-0.00292969 421c0 4.66699 2 7 6 7h20c4 0 6 -2.33301 6 -7v-522c0 -56.667 -16.167 -101.667 -48.5 -135s-80.5 -50 -144.5 -50c-67.333 0 -129.666 26 -186.999 78c-2.66699 2.66699 -2.66699 5.66699 0 9l11 13
c2.66699 3.33301 5.33398 3.66602 8.00098 0.999023c54.667 -47.333 110.667 -71 168 -71c54 0 94.5 13.833 121.5 41.5s40.167 65.834 39.5 114.501v69c-46 -24 -96.667 -36 -152 -36c-63.333 0 -113.666 16.333 -150.999 49s-56 80.667 -56 144v295c0 4.66699 2 7 6 7h19
c4.66699 0 7 -2.33301 7 -7v-294c0 -54.667 15.667 -95.667 47 -123s75 -41 131 -41c52 0 101.667 12.333 149 37zM164.997 599h-20.002c-6 0 -7.33301 2.66699 -4 8l114 134c2.66699 2.66699 5.33398 4 8.00098 4h16c2.66699 0 5.33398 -1.33301 8.00098 -4l113 -134
c4 -5.33301 3 -8 -3 -8h-21c-3.33301 0 -5.66602 1.33301 -6.99902 4l-98 117l-98 -117c-2.66699 -2.66699 -5.33398 -4 -8.00098 -4z" />
    <glyph glyph-name="Ydieresis" unicode="&#x178;" horiz-adv-x="536" 
d="M278 0h-21.001c-4 0 -6 2 -6 6v277l-241 424c-2 5.33301 -0.333008 8 5 8h24c4 0 6.33301 -1.33301 7 -4l222 -395l222 395c0.666992 2.66699 3.33398 4 8.00098 4h23c5.33301 0 7 -2.66699 5 -8l-241 -424v-277c0 -4 -2.33301 -6 -7 -6zM193.999 861
c0 -17.333 -8.66699 -26 -26 -26c-16.667 0 -25 8.66699 -25 26c0 16.667 8.33301 25 25 25c17.333 0 26 -8.33301 26 -25zM392.999 861c0 -17.333 -8.66699 -26 -26 -26c-16.667 0 -25 8.66699 -25 26c0 16.667 8.33301 25 25 25c17.333 0 26 -8.33301 26 -25z" />
    <glyph glyph-name="Zacute" unicode="&#x179;" horiz-adv-x="553" 
d="M513 0h-475c-4 0 -6 2 -6 6v12c0 2.66699 1 5 3 7l433 659h-415c-4 0 -6 2 -6 6v19c0 4 2 6 6 6h453c4 0 6 -2 6 -6v-13c0 -1.33301 -0.666992 -4 -2 -8l-432 -657h435c4 0 6 -2 6 -6v-19c0 -4 -2 -6 -6 -6zM374 927l-116 -134c-2 -2.66699 -4.66699 -4 -8 -4h-18
c-6 0 -7 2.66699 -3 8l107 133c0.666992 2.66699 3 4 7 4h28c6.66699 0 7.66699 -2.33301 3 -7z" />
    <glyph glyph-name="zacute" unicode="&#x17a;" horiz-adv-x="447" 
d="M411 0h-376c-4 0 -6 2 -6 6v12c0 2.66699 1 5 3 7l332 459h-314c-4 0 -6 2 -6 6v17c0 4.66699 2 7 6 7h352c4 0 6 -2.33301 6 -7v-10c0 -2 -0.666992 -4.33301 -2 -7l-333 -461h338c4 0 6 -2 6 -6v-17c0 -4 -2 -6 -6 -6zM204 599h-14.9971
c-6.66699 0 -8.33398 2.66699 -5.00098 8l83 134c1.33301 2.66699 3.66602 4 6.99902 4h25c5.33301 0 6.33301 -2.66699 3 -8l-90 -134c-2.66699 -2.66699 -5.33398 -4 -8.00098 -4z" />
    <glyph glyph-name="Zdotaccent" unicode="&#x17b;" horiz-adv-x="553" 
d="M513 0h-475c-4 0 -6 2 -6 6v12c0 2.66699 1 5 3 7l433 659h-415c-4 0 -6 2 -6 6v19c0 4 2 6 6 6h453c4 0 6 -2 6 -6v-13c0 -1.33301 -0.666992 -4 -2 -8l-432 -657h435c4 0 6 -2 6 -6v-19c0 -4 -2 -6 -6 -6zM302 860c0 -8.66699 -2.66699 -15.667 -8 -21s-12 -8 -20 -8
c-8.66699 0 -15.667 2.66699 -21 8s-8 12.333 -8 21c0 8 2.66699 14.667 8 20s12.333 8 21 8c8 0 14.667 -2.66699 20 -8s8 -12 8 -20z" />
    <glyph glyph-name="zdotaccent" unicode="&#x17c;" horiz-adv-x="447" 
d="M411 0h-376c-4 0 -6 2 -6 6v12c0 2.66699 1 5 3 7l332 459h-314c-4 0 -6 2 -6 6v17c0 4.66699 2 7 6 7h352c4 0 6 -2.33301 6 -7v-10c0 -2 -0.666992 -4.33301 -2 -7l-333 -461h338c4 0 6 -2 6 -6v-17c0 -4 -2 -6 -6 -6zM252 652c0 -8 -2.5 -14.5 -7.5 -19.5
s-11.5 -7.5 -19.5 -7.5s-14.5 2.5 -19.5 7.5s-7.5 11.5 -7.5 19.5s2.5 14.667 7.5 20s11.5 8 19.5 8s14.5 -2.66699 19.5 -8s7.5 -12 7.5 -20z" />
    <glyph glyph-name="Zcaron" unicode="&#x17d;" horiz-adv-x="553" 
d="M513 0h-475c-4 0 -6 2 -6 6v12c0 2.66699 1 5 3 7l433 659h-415c-4 0 -6 2 -6 6v19c0 4 2 6 6 6h453c4 0 6 -2 6 -6v-13c0 -1.33301 -0.666992 -4 -2 -8l-432 -657h435c4 0 6 -2 6 -6v-19c0 -4 -2 -6 -6 -6zM129 934h21c3.33301 0 6.33301 -1.33301 9 -4l115 -114
l115 114c2.66699 2.66699 5.66699 4 9 4h21c2.66699 0 4.33398 -0.833008 5.00098 -2.5s0 -3.5 -2 -5.5l-129 -133c-2.66699 -2.66699 -5.33398 -4 -8.00098 -4h-22c-3.33301 0 -6 1.33301 -8 4l-130 133c-4 5.33301 -2.66699 8 4 8z" />
    <glyph glyph-name="zcaron" unicode="&#x17e;" horiz-adv-x="447" 
d="M411 0h-376c-4 0 -6 2 -6 6v12c0 2.66699 1 5 3 7l332 459h-314c-4 0 -6 2 -6 6v17c0 4.66699 2 7 6 7h352c4 0 6 -2.33301 6 -7v-10c0 -2 -0.666992 -4.33301 -2 -7l-333 -461h338c4 0 6 -2 6 -6v-17c0 -4 -2 -6 -6 -6zM100 745h20.002
c2.66699 0 5.33398 -1.33301 8.00098 -4l98 -117l98 117c1.33301 2.66699 3.66602 4 6.99902 4h21c6 0 7 -2.66699 3 -8l-113 -134c-2.66699 -2.66699 -5.33398 -4 -8.00098 -4h-16c-2.66699 0 -5.33398 1.33301 -8.00098 4l-114 134c-3.33301 5.33301 -2 8 4 8z" />
    <glyph glyph-name="florin" unicode="&#x192;" horiz-adv-x="428" 
d="M147 3c-3.33301 -16.667 -7.16602 -31.333 -11.499 -44s-10.333 -26.334 -18 -41.001s-18.167 -26 -31.5 -34s-28.666 -12 -45.999 -12c-22 0 -42.667 4 -62 12c-4 1.33301 -5.33301 4 -4 8l4 15c2 4 5 5.33301 9 4c15.333 -6.66699 32 -10 50 -10
c22 0 38.833 8.66699 50.5 26s21.167 46 28.5 86l62 332h-96c-4 0 -6 2 -6 6v17c0 4.66699 2 7 6 7h102l39 210c8.66699 47.333 21.667 82.5 39 105.5s44.666 34.5 81.999 34.5c19.333 0 40.666 -3.66699 63.999 -11c4 -0.666992 5.33301 -3.33398 4 -8.00098l-4 -15
c-0.666992 -3.33301 -3 -4.66602 -7 -3.99902c-20 6.66699 -38.667 10 -56 10c-27.333 0 -47.333 -9.16699 -60 -27.5s-23 -49.166 -31 -92.499l-38 -202h110c4 0 6 -2.33301 6 -7v-17c0 -4 -2 -6 -6 -6h-115z" />
    <glyph glyph-name="uni0218" unicode="&#x218;" horiz-adv-x="593" 
d="M546 179c0 -60 -22.1689 -106.5 -66.502 -139.5s-103.833 -49.5 -178.5 -49.5c-49.333 0 -92.833 7.33301 -130.5 22s-76.167 38.667 -115.5 72c-2.66699 2.66699 -3 5.66699 -1 9l12 15c3.33301 3.33301 6.33301 4 9 2c70.667 -58.667 146 -88 226 -88
c64 0 115.167 13.5 153.5 40.5s57.5 65.833 57.5 116.5c0 45.333 -16 80.333 -48 105s-88.667 46.334 -170 65.001c-79.333 18 -138.666 43.167 -177.999 75.5s-59 74.833 -59 127.5c0 56.667 22.167 99.667 66.5 129s100.5 44 168.5 44c88 0 165.667 -26.667 233 -80
c4 -2 4.33301 -4.66699 1 -8l-10 -16c-2.66699 -3.33301 -5.66699 -4 -9 -2c-60.667 48.667 -133.667 73.667 -219 75c-56.667 0 -103.667 -12.333 -141 -37s-56 -60.334 -56 -107.001c0 -44 16.833 -78.833 50.5 -104.5s86.834 -47.167 159.501 -64.5
c89.333 -21.333 152.5 -47 189.5 -77s55.5 -71.667 55.5 -125zM276.998 -226h-12c-4.66699 0 -6.66699 2.33301 -6 7l41 140c1.33301 3.33301 3.33301 5 6 5h22c4 0 5.66699 -2.33301 5 -7l-50 -140c-1.33301 -3.33301 -3.33301 -5 -6 -5z" />
    <glyph glyph-name="uni0219" unicode="&#x219;" horiz-adv-x="461" 
d="M422 134c0 -43.333 -16.4961 -78.1621 -49.4961 -104.495s-79.5 -39.5 -139.5 -39.5c-72 0 -135.333 21.333 -190 64c-4 2 -4.66699 5 -2 9l10 15c2.66699 3.33301 5.33398 3.66602 8.00098 0.999023c53.333 -40 111.333 -60 174 -60c47.333 0 85.333 10 114 30
s43 48 43 84c0 16 -3.33301 30 -10 42s-14.334 21.667 -23.001 29s-21.334 14 -38.001 20s-30.167 10.333 -40.5 13s-25.5 6 -45.5 10c-19.333 4 -36.333 8 -51 12s-30.834 10 -48.501 18s-32.167 17 -43.5 27s-21 22.667 -29 38s-12 32.666 -12 51.999
c0 40 16.5 71.667 49.5 95s75.167 35 126.5 35c61.333 0 120 -16.333 176 -49c3.33301 -2 4 -4.66699 2 -8l-9 -15c-1.33301 -4 -4 -4.66699 -8 -2c-52 29.333 -106 44 -162 44c-42.667 0 -77.334 -9 -104.001 -27s-40 -42.333 -40 -73
c0 -18.667 4.33301 -34.834 13 -48.501s21.5 -24.834 38.5 -33.501s33.333 -15.5 49 -20.5s35.167 -9.83301 58.5 -14.5c22.667 -4.66699 40.834 -8.83398 54.501 -12.501s29.667 -9.33398 48 -17.001s32.666 -16 42.999 -25s19.166 -21.167 26.499 -36.5
s11 -32.666 11 -51.999zM203.004 -228.996h-13.001c-4.66699 0 -6.66699 2.33301 -6 7l38 143c1.33301 4 3.33301 6 6 6h20c4.66699 0 6.33398 -2.66699 5.00098 -8l-43 -143c-2 -3.33301 -4.33301 -5 -7 -5z" />
    <glyph glyph-name="uni021A" unicode="&#x21a;" horiz-adv-x="534" 
d="M18 715h497c4.66699 0 7 -2 7 -6v-19c0 -4 -2.33301 -6 -7 -6h-233v-678c0 -4 -2 -6 -6 -6h-21c-4.66699 0 -7 2 -7 6v678h-230c-4 0 -6 2 -6 6v19c0 4 2 6 6 6zM237 -226h-12c-4.66699 0 -6.66699 2.33301 -6 7l41 140c1.33301 3.33301 3.33301 5 6 5h22
c4 0 5.66699 -2.33301 5 -7l-50 -140c-1.33301 -3.33301 -3.33301 -5 -6 -5z" />
    <glyph glyph-name="uni021B" unicode="&#x21b;" horiz-adv-x="303" 
d="M105 155c0 -42.667 10.5 -75.499 31.5 -98.499s51.167 -34.5 90.5 -34.5c20 0 40 1 60 3c4 0 6 -2 6 -6v-17c0 -4 -2 -6.33301 -6 -7c-19.333 -2 -39.333 -3 -60 -3c-48 0 -85.667 14.167 -113 42.5s-41 68.166 -41 119.499v483c0 4 2 6 6 6h19c4 0 6.33301 -2 7 -6v-124
h169c4 0 6 -2 6 -6v-17c0 -4.66699 -2 -7 -6 -7h-169v-328zM160 -228.999h-13.001c-4.66699 0 -6.66699 2.33301 -6 7l38 143c1.33301 4 3.33301 6 6 6h20c4.66699 0 6.33398 -2.66699 5.00098 -8l-43 -143c-2 -3.33301 -4.33301 -5 -7 -5z" />
    <glyph glyph-name="uni0237" unicode="&#x237;" horiz-adv-x="194" 
d="M117 -35c0 -110 -42 -164.998 -126 -164.998c-12.667 0 -29.667 1.33301 -51 4c-4 1.33301 -6 4 -6 8v16c0 2 0.5 3.66699 1.5 5s2.5 1.66602 4.5 0.999023c15.333 -2.66699 31.333 -4 48 -4c32 0 56.167 10.167 72.5 30.5s24.5 54.166 24.5 101.499v545
c0 4.66699 2 7 6 7h20c4 0 6 -2.33301 6 -7v-542z" />
    <glyph glyph-name="circumflex" unicode="&#x2c6;" horiz-adv-x="302" 
d="M45 599h-20.002c-6 0 -7.33301 2.66699 -4 8l114 134c2.66699 2.66699 5.33398 4 8.00098 4h16c2.66699 0 5.33398 -1.33301 8.00098 -4l113 -134c4 -5.33301 3 -8 -3 -8h-21c-3.33301 0 -5.66602 1.33301 -6.99902 4l-98 117l-98 -117
c-2.66699 -2.66699 -5.33398 -4 -8.00098 -4z" />
    <glyph glyph-name="caron" unicode="&#x2c7;" horiz-adv-x="293" 
d="M25 745h20.002c2.66699 0 5.33398 -1.33301 8.00098 -4l98 -117l98 117c1.33301 2.66699 3.66602 4 6.99902 4h21c6 0 7 -2.66699 3 -8l-113 -134c-2.66699 -2.66699 -5.33398 -4 -8.00098 -4h-16c-2.66699 0 -5.33398 1.33301 -8.00098 4l-114 134
c-3.33301 5.33301 -2 8 4 8z" />
    <glyph glyph-name="breve" unicode="&#x2d8;" horiz-adv-x="285" 
d="M290 735c-4.66699 -40 -19.834 -72.666 -45.501 -97.999s-58.834 -38 -99.501 -38s-73.667 12.667 -99 38s-40.333 58 -45 98c-0.666992 3.33301 1 5.66602 5 6.99902l16 2c4 0 6.33301 -1.66699 7 -5c4.66699 -34.667 16.834 -62.167 36.501 -82.5
s46.167 -30.5 79.5 -30.5s59.833 10.167 79.5 30.5s31.834 47.833 36.501 82.5c1.33301 4 4 5.66699 8 5l15 -2c5.33301 0 7.33301 -2.33301 6 -7z" />
    <glyph glyph-name="dotaccent" unicode="&#x2d9;" horiz-adv-x="72" 
d="M63 652c0 -8 -2.5 -14.5 -7.5 -19.5s-11.5 -7.5 -19.5 -7.5s-14.5 2.5 -19.5 7.5s-7.5 11.5 -7.5 19.5s2.5 14.667 7.5 20s11.5 8 19.5 8s14.5 -2.66699 19.5 -8s7.5 -12 7.5 -20z" />
    <glyph glyph-name="ring" unicode="&#x2da;" horiz-adv-x="199" 
d="M195 679c0 -28 -8.83203 -50.333 -26.499 -67s-40.834 -25 -69.501 -25s-52 8.33301 -70 25s-27 39 -27 67s9 50.333 27 67s41.333 25 70 25c28 0 51 -8.33301 69 -25s27 -39 27 -67zM27.001 679c0 -20 6.66699 -36.333 20 -49s30.666 -19 51.999 -19
c20.667 0 37.667 6.33301 51 19s20 29 20 49s-6.66699 36.333 -20 49s-30.333 19 -51 19c-21.333 0 -38.666 -6.33301 -51.999 -19s-20 -29 -20 -49z" />
    <glyph glyph-name="ogonek" unicode="&#x2db;" horiz-adv-x="167" 
d="M147 -181c-20.667 -11.333 -45.666 -17.002 -74.999 -17.002c-22 0 -39.667 6.33301 -53 19s-20 30 -20 52s8.16699 44.167 24.5 66.5s38.5 41.833 66.5 58.5c1.33301 1.33301 3.66602 2 6.99902 2h16c2.66699 0 4.16699 -0.833008 4.5 -2.5
s-0.833984 -3.16699 -3.50098 -4.5c-26.667 -17.333 -47.5 -36.666 -62.5 -57.999s-22.5 -40.666 -22.5 -57.999c0 -30.667 16 -46 48 -46c22.667 0 42.334 4.66699 59.001 14c4 2 6.66699 0.666992 8 -4l5 -14c2 -3.33301 1.33301 -6 -2 -8z" />
    <glyph glyph-name="tilde" unicode="&#x2dc;" horiz-adv-x="278" 
d="M275 679c-4.66699 -14.667 -13.1621 -27.167 -25.4951 -37.5s-26.5 -15.5 -42.5 -15.5c-14.667 0 -37.334 7.66699 -68.001 23c-28 15.333 -49.667 23 -65 23c-21.333 0 -37 -12 -47 -36c-1.33301 -3.33301 -4 -4.33301 -8 -3l-12 6
c-3.33301 2.66699 -4.33301 5.66699 -3 9c5.33301 14 14.166 26 26.499 36s26.5 15 42.5 15c14 0 37.667 -8 71 -24c29.333 -14.667 49.666 -22 60.999 -22c20 0 35.667 12.333 47 37c1.33301 4 3.66602 5 6.99902 3l12 -6c3.33301 -2 4.66602 -4.66699 3.99902 -8z" />
    <glyph glyph-name="hungarumlaut" unicode="&#x2dd;" horiz-adv-x="293" 
d="M19 599h-14c-5.33301 0 -7 2.66699 -5 8l76 134c2.66699 2.66699 5.33398 4 8.00098 4h22c5.33301 0 6.33301 -2.66699 3 -8l-82 -134c-2.66699 -2.66699 -5.33398 -4 -8.00098 -4zM138 599h-13.999c-5.33301 0 -7 2.66699 -5 8l78 134
c1.33301 2.66699 3.66602 4 6.99902 4h22c6 0 7.33301 -2.66699 4 -8l-84 -134c-1.33301 -2.66699 -4 -4 -8 -4z" />
    <glyph glyph-name="gravecomb" unicode="&#x300;" horiz-adv-x="121" 
d="M116 599h-14.9971c-2.66699 0 -5.33398 1.33301 -8.00098 4l-90 134c-3.33301 5.33301 -2.33301 8 3 8h25c3.33301 0 5.66602 -1.33301 6.99902 -4l83 -134c3.33301 -5.33301 1.66602 -8 -5.00098 -8z" />
    <glyph glyph-name="acutecomb" unicode="&#x301;" horiz-adv-x="123" 
d="M22 599h-14.9971c-6.66699 0 -8.33398 2.66699 -5.00098 8l83 134c1.33301 2.66699 3.66602 4 6.99902 4h25c5.33301 0 6.33301 -2.66699 3 -8l-90 -134c-2.66699 -2.66699 -5.33398 -4 -8.00098 -4z" />
    <glyph glyph-name="uni0302" unicode="&#x302;" horiz-adv-x="302" 
d="M45 599h-20.002c-6 0 -7.33301 2.66699 -4 8l114 134c2.66699 2.66699 5.33398 4 8.00098 4h16c2.66699 0 5.33398 -1.33301 8.00098 -4l113 -134c4 -5.33301 3 -8 -3 -8h-21c-3.33301 0 -5.66602 1.33301 -6.99902 4l-98 117l-98 -117
c-2.66699 -2.66699 -5.33398 -4 -8.00098 -4z" />
    <glyph glyph-name="tildecomb" unicode="&#x303;" horiz-adv-x="278" 
d="M275 679c-4.66699 -14.667 -13.1621 -27.167 -25.4951 -37.5s-26.5 -15.5 -42.5 -15.5c-14.667 0 -37.334 7.66699 -68.001 23c-28 15.333 -49.667 23 -65 23c-21.333 0 -37 -12 -47 -36c-1.33301 -3.33301 -4 -4.33301 -8 -3l-12 6
c-3.33301 2.66699 -4.33301 5.66699 -3 9c5.33301 14 14.166 26 26.499 36s26.5 15 42.5 15c14 0 37.667 -8 71 -24c29.333 -14.667 49.666 -22 60.999 -22c20 0 35.667 12.333 47 37c1.33301 4 3.66602 5 6.99902 3l12 -6c3.33301 -2 4.66602 -4.66699 3.99902 -8z" />
    <glyph glyph-name="uni0304" unicode="&#x304;" horiz-adv-x="247" 
d="M0 656v14c0 4.66699 2 7 6 7h234c4.66699 0 7 -2.33301 7 -7v-14c0 -4.66699 -2.33301 -7 -7 -7h-234c-4 0 -6 2.33301 -6 7z" />
    <glyph glyph-name="uni0306" unicode="&#x306;" horiz-adv-x="291" 
d="M290 735c-4.66699 -40 -19.834 -72.666 -45.501 -97.999s-58.834 -38 -99.501 -38s-73.667 12.667 -99 38s-40.333 58 -45 98c-0.666992 3.33301 1 5.66602 5 6.99902l16 2c4 0 6.33301 -1.66699 7 -5c4.66699 -34.667 16.834 -62.167 36.501 -82.5
s46.167 -30.5 79.5 -30.5s59.833 10.167 79.5 30.5s31.834 47.833 36.501 82.5c1.33301 4 4 5.66699 8 5l15 -2c5.33301 0 7.33301 -2.33301 6 -7z" />
    <glyph glyph-name="uni0307" unicode="&#x307;" horiz-adv-x="122" 
d="M88 652c0 -8 -2.5 -14.5 -7.5 -19.5s-11.5 -7.5 -19.5 -7.5s-14.5 2.5 -19.5 7.5s-7.5 11.5 -7.5 19.5s2.5 14.667 7.5 20s11.5 8 19.5 8s14.5 -2.66699 19.5 -8s7.5 -12 7.5 -20z" />
    <glyph glyph-name="uni0308" unicode="&#x308;" horiz-adv-x="239" 
d="M58 652c0 -16.667 -8.33301 -25 -25 -25s-25 8.33301 -25 25c0 17.333 8.33301 26 25 26s25 -8.66699 25 -26zM231 652c0 -16.667 -8.33301 -25 -25 -25c-7.33301 0 -13.5 2.33301 -18.5 7s-7.5 10.667 -7.5 18c0 8 2.5 14.333 7.5 19s11.167 7 18.5 7
c16.667 0 25 -8.66699 25 -26z" />
    <glyph glyph-name="uni030A" unicode="&#x30a;" horiz-adv-x="197" 
d="M195 679c0 -28 -8.83203 -50.333 -26.499 -67s-40.834 -25 -69.501 -25s-52 8.33301 -70 25s-27 39 -27 67s9 50.333 27 67s41.333 25 70 25c28 0 51 -8.33301 69 -25s27 -39 27 -67zM27.001 679c0 -20 6.66699 -36.333 20 -49s30.666 -19 51.999 -19
c20.667 0 37.667 6.33301 51 19s20 29 20 49s-6.66699 36.333 -20 49s-30.333 19 -51 19c-21.333 0 -38.666 -6.33301 -51.999 -19s-20 -29 -20 -49z" />
    <glyph glyph-name="uni030B" unicode="&#x30b;" horiz-adv-x="232" 
d="M19 599h-14c-5.33301 0 -7 2.66699 -5 8l76 134c2.66699 2.66699 5.33398 4 8.00098 4h22c5.33301 0 6.33301 -2.66699 3 -8l-82 -134c-2.66699 -2.66699 -5.33398 -4 -8.00098 -4zM138 599h-13.999c-5.33301 0 -7 2.66699 -5 8l78 134
c1.33301 2.66699 3.66602 4 6.99902 4h22c6 0 7.33301 -2.66699 4 -8l-84 -134c-1.33301 -2.66699 -4 -4 -8 -4z" />
    <glyph glyph-name="uni030C" unicode="&#x30c;" horiz-adv-x="297" 
d="M25 745h20.002c2.66699 0 5.33398 -1.33301 8.00098 -4l98 -117l98 117c1.33301 2.66699 3.66602 4 6.99902 4h21c6 0 7 -2.66699 3 -8l-113 -134c-2.66699 -2.66699 -5.33398 -4 -8.00098 -4h-16c-2.66699 0 -5.33398 1.33301 -8.00098 4l-114 134
c-3.33301 5.33301 -2 8 4 8z" />
    <glyph glyph-name="uni0312" unicode="&#x312;" horiz-adv-x="75" 
d="M28 599h-20c-5.33301 0 -7 2.66699 -5 8l48 144c1.33301 3.33301 3.33301 5 6 5h13c5.33301 0 7 -2.66699 5 -8l-41 -143c-1.33301 -4 -3.33301 -6 -6 -6z" />
    <glyph glyph-name="uni0326" unicode="&#x326;" horiz-adv-x="72" 
d="M20 -229h-13.001c-4.66699 0 -6.66699 2.33301 -6 7l38 143c1.33301 4 3.33301 6 6 6h20c4.66699 0 6.33398 -2.66699 5.00098 -8l-43 -143c-2 -3.33301 -4.33301 -5 -7 -5z" />
    <glyph glyph-name="uni0327" unicode="&#x327;" horiz-adv-x="164" 
d="M164 -127c0 -22.667 -8.83301 -41.001 -26.5 -55.001s-41.5 -21 -71.5 -21c-20 0 -39.667 3 -59 9c-3.33301 1.33301 -5 4 -5 8v11c0 4 2.33301 5.66699 7 5c18.667 -6 37 -9 55 -9c47.333 0 71 17.667 71 53c0 16.667 -6.33301 28.834 -19 36.501
s-33.667 11.834 -63 12.501c-3.33301 0 -6 1.33301 -8 4c-1.33301 1.33301 -1.33301 3.66602 0 6.99902l24 64c1.33301 3.33301 3.33301 5 6 5h13c5.33301 0 7 -2.33301 5 -7l-20 -55c28.667 0 51 -5.83301 67 -17.5s24 -28.5 24 -50.5z" />
    <glyph glyph-name="uni0328" unicode="&#x328;" horiz-adv-x="144" 
d="M148 -181c-20.667 -11.333 -45.666 -17.002 -74.999 -17.002c-22 0 -39.667 6.33301 -53 19s-20 30 -20 52s8.16699 44.167 24.5 66.5s38.5 41.833 66.5 58.5c1.33301 1.33301 3.66602 2 6.99902 2h16c2.66699 0 4.16699 -0.833008 4.5 -2.5
s-0.833984 -3.16699 -3.50098 -4.5c-26.667 -17.333 -47.5 -36.666 -62.5 -57.999s-22.5 -40.666 -22.5 -57.999c0 -30.667 16 -46 48 -46c22.667 0 42.334 4.66699 59.001 14c4 2 6.66699 0.666992 8 -4l5 -14c2 -3.33301 1.33301 -6 -2 -8z" />
    <glyph glyph-name="uni0335" unicode="&#x335;" horiz-adv-x="327" 
d="M321 602h-315c-4 0 -6 2 -6 6v13c0 4.66699 2 7 6 7h315c4 0 6 -2.33301 6 -7v-13c0 -4 -2 -6 -6 -6z" />
    <glyph glyph-name="uni0336" unicode="&#x336;" horiz-adv-x="518" 
d="M0 256v13c0 4 2 6 6 6h506c4 0 6 -2 6 -6v-13c0 -4.66699 -2 -7 -6 -7h-506c-4 0 -6 2.33301 -6 7z" />
    <glyph glyph-name="uni0337" unicode="&#x337;" horiz-adv-x="266" 
d="M4 307l254 227.999c5.33301 4 8 2.66699 8 -4v-21c0 -3.33301 -1.33301 -6 -4 -8l-254 -227c-2 -2 -3.83301 -2.66699 -5.5 -2s-2.5 2.33398 -2.5 5.00098v22c-0 4 1.33301 6.33301 4 7z" />
    <glyph glyph-name="uni0338" unicode="&#x338;" horiz-adv-x="512" 
d="M55 -38h-18.002c-5.33301 0 -7 2.66699 -5 8l417 771c1.33301 3.33301 4 5 8 5h17c6.66699 0 8.33398 -2.66699 5.00098 -8l-417 -771c-1.33301 -3.33301 -3.66602 -5 -6.99902 -5z" />
    <glyph glyph-name="tonos" unicode="&#x384;" horiz-adv-x="121" 
d="M22 599h-14.9971c-6.66699 0 -8.33398 2.66699 -5.00098 8l83 134c1.33301 2.66699 3.66602 4 6.99902 4h25c5.33301 0 6.33301 -2.66699 3 -8l-90 -134c-2.66699 -2.66699 -5.33398 -4 -8.00098 -4z" />
    <glyph glyph-name="dieresistonos" unicode="&#x385;" horiz-adv-x="243" 
d="M99 600h-12.999c-6 0 -8 2.33301 -6 7l72 133c1.33301 3.33301 3.66602 5 6.99902 5h22c4.66699 0 6 -2.66699 4 -8l-78 -133c-2 -2.66699 -4.66699 -4 -8 -4zM49.001 652c0 -6.66699 -2.16699 -12.332 -6.5 -16.999s-10.166 -7 -17.499 -7s-13.333 2.16699 -18 6.5
s-7 10.166 -7 17.499c0 16.667 8.33301 25 25 25c7.33301 0 13.166 -2.33301 17.499 -7s6.5 -10.667 6.5 -18zM243.001 652.002c0 -7.33301 -2.33301 -13.166 -7 -17.499s-10.667 -6.5 -18 -6.5s-13.333 2.16699 -18 6.5s-7 10.166 -7 17.499c0 16.667 8.33301 25 25 25
s25 -8.33301 25 -25z" />
    <glyph glyph-name="Alphatonos" unicode="&#x386;" horiz-adv-x="608" 
d="M85 569h-14.9971c-6.66699 0 -8.33398 2.66699 -5.00098 8l83 134c1.33301 2.66699 3.66602 4 6.99902 4h25c5.33301 0 6.33301 -2.66699 3 -8l-90 -134c-2.66699 -2.66699 -5.33398 -4 -8.00098 -4zM58.0029 0h-22.9971c-4.66699 -0 -6.33398 2.33301 -5.00098 7
l263 703c1.33301 3.33301 3.33301 5 6 5h28c3.33301 0 5.66602 -1.66699 6.99902 -5l263 -703c1.33301 -4.66699 -0.333984 -7 -5.00098 -7h-23c-2.66699 0 -5 1.66699 -7 5l-81 219h-335l-82 -219c-1.33301 -3.33301 -3.33301 -5 -6 -5zM312.006 674l-155 -419h313
l-155 419h-3z" />
    <glyph glyph-name="Epsilontonos" unicode="&#x388;" horiz-adv-x="685" 
d="M39 569h-14.9971c-6.66699 0 -8.33398 2.66699 -5.00098 8l83 134c1.33301 2.66699 3.66602 4 6.99902 4h25c5.33301 0 6.33301 -2.66699 3 -8l-90 -134c-2.66699 -2.66699 -5.33398 -4 -8.00098 -4zM253.003 349v-318h378c4 0 6 -2 6 -6v-19c0 -4 -2 -6 -6 -6h-405
c-4.66699 0 -7 2 -7 6v703c0 4 2.33301 6 7 6h390c4 0 6 -2 6 -6v-19c0 -4 -2 -6 -6 -6h-363v-304h342c4.66699 0 7 -2 7 -6v-19c0 -4 -2.33301 -6 -7 -6h-342z" />
    <glyph glyph-name="Etatonos" unicode="&#x389;" horiz-adv-x="823" 
d="M39 569h-14.9971c-6.66699 0 -8.33398 2.66699 -5.00098 8l83 134c1.33301 2.66699 3.66602 4 6.99902 4h25c5.33301 0 6.33301 -2.66699 3 -8l-90 -134c-2.66699 -2.66699 -5.33398 -4 -8.00098 -4zM692.003 380v329c0 4 2.33301 6 7 6h20c4.66699 0 7 -2 7 -6v-703
c0 -4 -2.33301 -6 -7 -6h-20c-4.66699 0 -7 2 -7 6v343h-411v-343c0 -4 -2 -6 -6 -6h-21c-4.66699 0 -7 2 -7 6v703c0 4 2.33301 6 7 6h21c4 0 6 -2 6 -6v-329h411z" />
    <glyph glyph-name="Iotatonos" unicode="&#x38a;" horiz-adv-x="346" 
d="M39 569h-14.9971c-6.66699 0 -8.33398 2.66699 -5.00098 8l83 134c1.33301 2.66699 3.66602 4 6.99902 4h25c5.33301 0 6.33301 -2.66699 3 -8l-90 -134c-2.66699 -2.66699 -5.33398 -4 -8.00098 -4zM249.003 709v-703c0 -4 -2 -6 -6 -6h-21c-4.66699 0 -7 2 -7 6v703
c0 4 2.33301 6 7 6h21c4 0 6 -2 6 -6z" />
    <glyph glyph-name="Omicrontonos" unicode="&#x38c;" horiz-adv-x="748" 
d="M43 569h-14.9971c-6.66699 0 -8.33398 2.66699 -5.00098 8l83 134c1.33301 2.66699 3.66602 4 6.99902 4h25c5.33301 0 6.33301 -2.66699 3 -8l-90 -134c-2.66699 -2.66699 -5.33398 -4 -8.00098 -4zM676.003 224c0 -68 -24.001 -124 -72.001 -168s-110.667 -66 -188 -66
c-78 0 -141 22 -189 66s-72 100 -72 168v259c0 72 23.833 130.333 71.5 175s110.834 67 189.501 67c78 0 140.833 -22.333 188.5 -67s71.5 -103 71.5 -175v-259zM188.002 224c0 -59.333 20.8311 -107.833 62.498 -145.5s96.834 -56.5 165.501 -56.5
c68 0 122.833 18.833 164.5 56.5s62.5 86.167 62.5 145.5v259c0 63.333 -20.5 114.333 -61.5 153s-96.167 58 -165.5 58s-124.666 -19.333 -165.999 -58s-62 -89.667 -62 -153v-259z" />
    <glyph glyph-name="Upsilontonos" unicode="&#x38e;" horiz-adv-x="707" 
d="M46 569h-14.9971c-6.66699 0 -8.33398 2.66699 -5.00098 8l83 134c1.33301 2.66699 3.66602 4 6.99902 4h25c5.33301 0 6.33301 -2.66699 3 -8l-90 -134c-2.66699 -2.66699 -5.33398 -4 -8.00098 -4zM449.003 0h-21.001c-4 0 -6 2 -6 6v277l-241 424
c-2 5.33301 -0.333008 8 5 8h24c4 0 6.33301 -1.33301 7 -4l222 -395l222 395c0.666992 2.66699 3.33398 4 8.00098 4h23c5.33301 0 7 -2.66699 5 -8l-241 -424v-277c0 -4 -2.33301 -6 -7 -6z" />
    <glyph glyph-name="Omegatonos" unicode="&#x38f;" horiz-adv-x="767" 
d="M368 0h-186.002c-4 0 -6 2 -6 6v19c0 4 2 6 6 6h136c-44 30.667 -78.667 67.667 -104 111s-38 90.333 -38 141v182c0 81.333 22.833 145 68.5 191s109.167 69 190.5 69s144.833 -23 190.5 -69s68.5 -109.667 68.5 -191v-182c0 -50.667 -12.667 -97.667 -38 -141
s-60 -80.333 -104 -111h136c4.66699 0 7 -2 7 -6v-19c0 -4 -2.33301 -6 -7 -6h-186c-4 0 -6 2 -6 6v13c0 3.33301 1.33301 6 4 8c51.333 32 90.833 70 118.5 114s41.5 91.333 41.5 142v182c0 72.667 -19.667 129 -59 169s-94.666 60 -165.999 60s-126.666 -20 -165.999 -60
s-59 -96.333 -59 -169v-182c0 -50.667 13.833 -98 41.5 -142s67.167 -82 118.5 -114c3.33301 -2 5 -4.66699 5 -8v-13c0 -4 -2.33301 -6 -7 -6zM41.998 569h-14.9971c-6.66699 0 -8.33398 2.66699 -5.00098 8l83 134c1.33301 2.66699 3.66602 4 6.99902 4h25
c5.33301 0 6.33301 -2.66699 3 -8l-90 -134c-2.66699 -2.66699 -5.33398 -4 -8.00098 -4z" />
    <glyph glyph-name="iotadieresistonos" unicode="&#x390;" horiz-adv-x="186" 
d="M103 0h-20c-4 0 -6 2 -6 6v501c0 4.66699 2 7 6 7h20c4 0 6 -2.33301 6 -7v-501c0 -4 -2 -6 -6 -6zM45 660c0 -16 -8.00098 -24.001 -24.001 -24.001c-7.33301 0 -13.166 2.33301 -17.499 7s-6.5 10.334 -6.5 17.001c0 16 8 24 24 24s24 -8 24 -24zM72.999 599.999
h-13.001c-5.33301 0 -7 2.33301 -5 7l70 131c0.666992 2.66699 3.33398 4 8.00098 4h21c4.66699 0 6 -2.33301 4 -7l-78 -131c-0.666992 -2.66699 -3 -4 -7 -4zM205.998 659.999c0 -6.66699 -2.33203 -12.333 -6.99902 -17s-10.334 -7 -17.001 -7c-16 0 -24 8 -24 24
s8 24 24 24s24 -8 24 -24z" />
    <glyph glyph-name="Alpha" unicode="&#x391;" horiz-adv-x="589" 
d="M39 0h-22.9971c-4.66699 -0 -6.33398 2.33301 -5.00098 7l263 703c1.33301 3.33301 3.33301 5 6 5h28c3.33301 0 5.66602 -1.66699 6.99902 -5l263 -703c1.33301 -4.66699 -0.333984 -7 -5.00098 -7h-23c-2.66699 0 -5 1.66699 -7 5l-81 219h-335l-82 -219
c-1.33301 -3.33301 -3.33301 -5 -6 -5zM293.003 674l-155 -419h313l-155 419h-3z" />
    <glyph glyph-name="Beta" unicode="&#x392;" horiz-adv-x="620" 
d="M535 542c0 -40 -10.5 -73.667 -31.5 -101s-50.167 -46.333 -87.5 -57c48 -9.33301 84.667 -30.166 110 -62.499s38 -73.5 38 -123.5c0 -62.667 -21.333 -111.334 -64 -146.001s-103.667 -52 -183 -52h-213c-4.66699 0 -7 2 -7 6v703c0 4 2.33301 6 7 6h213
c76 0 131.333 -16 166 -48s52 -73.667 52 -125zM131 31h186c70.667 0 124 14.5 160 43.5s54 70.167 54 123.5s-16.167 95 -48.5 125s-81.5 45 -147.5 45h-204v-337zM501 542c0 42 -14.167 76.167 -42.5 102.5s-75.5 39.5 -141.5 39.5h-186v-285h204
c52 0 92.667 12.5 122 37.5s44 60.167 44 105.5z" />
    <glyph glyph-name="Gamma" unicode="&#x393;" horiz-adv-x="496" 
d="M125 0h-21c-4.66699 0 -7 2 -7 6v703c0 4 2.33301 6 7 6h374c4 0 6 -2 6 -6v-19c0 -4 -2 -6 -6 -6h-347v-678c0 -4 -2 -6 -6 -6z" />
    <glyph glyph-name="uni0394" unicode="&#x394;" horiz-adv-x="596" 
d="M580 0h-563.997c-4.66699 -0 -6.33398 2.33301 -5.00098 7l264 703c2 3.33301 4.66699 5 8 5h31c3.33301 0 5.66602 -1.66699 6.99902 -5l264 -703c1.33301 -4.66699 -0.333984 -7 -5.00098 -7zM297.003 675l-241 -644h485l-242 644h-2z" />
    <glyph glyph-name="Epsilon" unicode="&#x395;" horiz-adv-x="563" 
d="M131 349v-318h378c4 0 6 -2 6 -6v-19c0 -4 -2 -6 -6 -6h-405c-4.66699 0 -7 2 -7 6v703c0 4 2.33301 6 7 6h390c4 0 6 -2 6 -6v-19c0 -4 -2 -6 -6 -6h-363v-304h342c4.66699 0 7 -2 7 -6v-19c0 -4 -2.33301 -6 -7 -6h-342z" />
    <glyph glyph-name="Zeta" unicode="&#x396;" horiz-adv-x="553" 
d="M513 0h-475c-4 0 -6 2 -6 6v12c0 2.66699 1 5 3 7l433 659h-415c-4 0 -6 2 -6 6v19c0 4 2 6 6 6h453c4 0 6 -2 6 -6v-13c0 -1.33301 -0.666992 -4 -2 -8l-432 -657h435c4 0 6 -2 6 -6v-19c0 -4 -2 -6 -6 -6z" />
    <glyph glyph-name="Eta" unicode="&#x397;" horiz-adv-x="673" 
d="M542 380v329c0 4 2.33301 6 7 6h20c4.66699 0 7 -2 7 -6v-703c0 -4 -2.33301 -6 -7 -6h-20c-4.66699 0 -7 2 -7 6v343h-411v-343c0 -4 -2 -6 -6 -6h-21c-4.66699 0 -7 2 -7 6v703c0 4 2.33301 6 7 6h21c4 0 6 -2 6 -6v-329h411z" />
    <glyph glyph-name="Theta" unicode="&#x398;" horiz-adv-x="671" 
d="M599 224c0 -68 -24.3311 -124 -72.998 -168s-112 -66 -190 -66c-78.667 0 -142.334 22 -191.001 66s-73 100 -73 168v259c0 72 24.167 130.333 72.5 175s112.166 67 191.499 67s143 -22.333 191 -67s72 -103 72 -175v-259zM105.002 224
c0 -59.333 21.1689 -107.833 63.502 -145.5s98.166 -56.5 167.499 -56.5s125 18.833 167 56.5s63 86.167 63 145.5v259c0 63.333 -20.833 114.333 -62.5 153s-97.5 58 -167.5 58c-70.667 0 -126.834 -19.333 -168.501 -58s-62.5 -89.667 -62.5 -153v-259zM511.004 351h-350
c-4.66699 0 -7 2 -7 6v17c0 4 2.33301 6 7 6h350c4.66699 0 7 -2 7 -6v-17c0 -4 -2.33301 -6 -7 -6z" />
    <glyph glyph-name="Iota" unicode="&#x399;" horiz-adv-x="228" 
d="M131 709v-703c0 -4 -2 -6 -6 -6h-21c-4.66699 0 -7 2 -7 6v703c0 4 2.33301 6 7 6h21c4 0 6 -2 6 -6z" />
    <glyph glyph-name="Kappa" unicode="&#x39a;" horiz-adv-x="603" 
d="M125 0h-21c-4.66699 0 -7 2 -7 6v703c0 4 2.33301 6 7 6h21c4 0 6 -2 6 -6v-393l399 395c2.66699 2.66699 5.66699 4 9 4h28c2.66699 0 4.5 -0.833008 5.5 -2.5s0.5 -3.5 -1.5 -5.5l-318 -315l337 -384c4 -5.33301 2.66699 -8 -4 -8h-28c-3.33301 -0 -6 1.33301 -8 4
l-320 365l-99 -97v-266c0 -4 -2 -6 -6 -6z" />
    <glyph glyph-name="Lambda" unicode="&#x39b;" horiz-adv-x="596" 
d="M39 0h-22.999c-4.66699 -0 -6.33398 2.33301 -5.00098 7l264 703c2 3.33301 4.66699 5 8 5h31c3.33301 0 5.66602 -1.66699 6.99902 -5l264 -703c1.33301 -4.66699 -0.333984 -7 -5.00098 -7h-23c-3.33301 0 -5.66602 1.66699 -6.99902 5l-251 671h-2l-251 -671
c-1.33301 -3.33301 -3.66602 -5 -6.99902 -5z" />
    <glyph glyph-name="Mu" unicode="&#x39c;" horiz-adv-x="840" 
d="M125 0h-20.999c-4.66699 0 -7 2 -7 6v703c0 4 2.33301 6 7 6h28c3.33301 0 6 -1.33301 8 -4l280 -495l281 495c0.666992 2.66699 3 4 7 4h28c4.66699 0 7 -2 7 -6v-703c0 -4 -2.33301 -6 -7 -6h-21c-4 0 -6 2 -6 6l1 657v1l-274 -485c-1.33301 -2.66699 -4 -4 -8 -4h-16
c-2.66699 0 -5.33398 1.33301 -8.00098 4l-274 485v-1l1 -657c0 -4 -2 -6 -6 -6z" />
    <glyph glyph-name="Nu" unicode="&#x39d;" horiz-adv-x="699" 
d="M125 0h-20.999c-4.66699 0 -7 2 -7 6v703c0 4 2.33301 6 7 6h25c4 0 6.33301 -1.33301 7 -4l433 -659l-1 657c0 4 2.33301 6 7 6h20c4.66699 0 7 -2 7 -6v-703c0 -4 -2.33301 -6 -7 -6h-24c-4.66699 -0 -7.33398 1.33301 -8.00098 4l-433 657l1 -655c0 -4 -2 -6 -6 -6z
" />
    <glyph glyph-name="Xi" unicode="&#x39e;" horiz-adv-x="523" 
d="M466 684h-410c-4 0 -6 2 -6 6v19c0 4 2 6 6 6h410c4.66699 0 7 -2 7 -6v-19c0 -4 -2.33301 -6 -7 -6zM434 346h-345c-4 0 -6 2.33301 -6 7v18c0 4.66699 2 7 6 7h345c4 0 6 -2.33301 6 -7v-18c0 -4.66699 -2 -7 -6 -7zM468 0h-414c-4 0 -6 2 -6 6v20c0 4 2 6 6 6h414
c4 0 6 -2 6 -6v-20c0 -4 -2 -6 -6 -6z" />
    <glyph glyph-name="Omicron" unicode="&#x39f;" horiz-adv-x="665" 
d="M593 224c0 -68 -24.001 -124 -72.001 -168s-110.667 -66 -188 -66c-78 0 -141 22 -189 66s-72 100 -72 168v259c0 72 23.833 130.333 71.5 175s110.834 67 189.501 67c78 0 140.833 -22.333 188.5 -67s71.5 -103 71.5 -175v-259zM104.999 224
c0 -59.333 20.8311 -107.833 62.498 -145.5s96.834 -56.5 165.501 -56.5c68 0 122.833 18.833 164.5 56.5s62.5 86.167 62.5 145.5v259c0 63.333 -20.5 114.333 -61.5 153s-96.167 58 -165.5 58s-124.666 -19.333 -165.999 -58s-62 -89.667 -62 -153v-259z" />
    <glyph glyph-name="Pi" unicode="&#x3a0;" horiz-adv-x="673" 
d="M125 0h-21c-4.66699 0 -7 2 -7 6v703c0 4 2.33301 6 7 6h466c4 0 6 -2 6 -6v-703c0 -4 -2 -6 -6 -6h-21c-4.66699 0 -7 2 -7 6v678h-411v-678c0 -4 -2 -6 -6 -6z" />
    <glyph glyph-name="Rho" unicode="&#x3a1;" horiz-adv-x="611" 
d="M103 715l222 0.000976562c78 0 138.167 -19.333 180.5 -58s63.5 -92.334 63.5 -161.001c0 -69.333 -21.167 -123 -63.5 -161s-102.5 -57 -180.5 -57h-195v-272c0 -4 -2 -6 -6 -6h-21c-4 0 -6 2 -6 6v703c0 4 2 6 6 6zM130 310.001h192c70 0 123.167 16 159.5 48
s54.5 78 54.5 138c0 60.667 -18.167 107.167 -54.5 139.5s-89.5 48.5 -159.5 48.5h-192v-374z" />
    <glyph glyph-name="Sigma" unicode="&#x3a3;" horiz-adv-x="513" 
d="M45 715h423c4 0 6 -2 6 -6v-19c0 -4 -2 -6 -6 -6h-383l249 -312c2 -2.66699 2 -5.66699 0 -9l-251 -332h385c4 0 6 -2 6 -6v-19c0 -4 -2 -6 -6 -6h-423c-4 0 -6 2 -6 6v15c0 1.33301 0.666992 4 2 8l256 339l-256 319c-1.33301 4 -2 6.66699 -2 8v14c0 4 2 6 6 6z" />
    <glyph glyph-name="Tau" unicode="&#x3a4;" horiz-adv-x="534" 
d="M18 715h497c4.66699 0 7 -2 7 -6v-19c0 -4 -2.33301 -6 -7 -6h-233v-678c0 -4 -2 -6 -6 -6h-21c-4.66699 0 -7 2 -7 6v678h-230c-4 0 -6 2 -6 6v19c0 4 2 6 6 6z" />
    <glyph glyph-name="Upsilon" unicode="&#x3a5;" horiz-adv-x="536" 
d="M278 0h-21.001c-4 0 -6 2 -6 6v277l-241 424c-2 5.33301 -0.333008 8 5 8h24c4 0 6.33301 -1.33301 7 -4l222 -395l222 395c0.666992 2.66699 3.33398 4 8.00098 4h23c5.33301 0 7 -2.66699 5 -8l-241 -424v-277c0 -4 -2.33301 -6 -7 -6z" />
    <glyph glyph-name="Phi" unicode="&#x3a6;" horiz-adv-x="843" 
d="M432 -62h-21c-4 0 -6 2 -6 6v89h-79c-32.667 0 -63.834 5.33301 -93.501 16s-57 26.334 -82 47.001s-45 48.834 -60 84.501s-22.5 76.167 -22.5 121.5v110c0 45.333 7.5 85.666 22.5 120.999s35 63.333 60 84s52.333 36.334 82 47.001s60.834 16 93.501 16h79v82
c0 4.66699 2 7 6 7h21c4.66699 0 7 -2.33301 7 -7v-82h78c32.667 0 63.834 -5.33301 93.501 -16s57 -26.334 82 -47.001s45 -48.667 60 -84s22.5 -75.666 22.5 -120.999v-110c0 -45.333 -7.5 -85.833 -22.5 -121.5s-35 -63.834 -60 -84.501s-52.333 -36.334 -82 -47.001
s-60.834 -16 -93.501 -16h-78v-89c0 -4 -2.33301 -6 -7 -6zM102 302c0 -78.667 22 -138 66 -178s97 -60 159 -60h78v584h-78c-62 0 -115 -19.667 -159 -59s-66 -98.333 -66 -177v-110zM439 648v-584h77c62 0 115.167 20 159.5 60s66.5 99.333 66.5 178v110
c0 78.667 -22.167 137.667 -66.5 177s-97.5 59 -159.5 59h-77z" />
    <glyph glyph-name="Chi" unicode="&#x3a7;" horiz-adv-x="572" 
d="M307 361l241 -353c4 -5.33301 3 -8 -3 -8h-27c-4 -0 -6.33301 1.33301 -7 4l-224 331l-226 -331c-0.666992 -2.66699 -3 -4 -7 -4h-26c-6.66699 0 -8 2.66699 -4 8l242 353l-231 346c-4 5.33301 -2.66699 8 4 8h26c4 0 6.33301 -1.33301 7 -4l215 -324l213 324
c2 2.66699 4.66699 4 8 4h26c6 0 7 -2.66699 3 -8z" />
    <glyph glyph-name="Psi" unicode="&#x3a8;" horiz-adv-x="788" 
d="M402 0h-20.999c-4 0 -6 2 -6 6v157h-79c-67.333 0 -122.5 20.833 -165.5 62.5s-64.5 97.167 -64.5 166.5v317c0 4 2 6 6 6h21c4.66699 0 7 -2 7 -6v-317c0 -60.667 18.167 -108.834 54.5 -144.501s84.166 -53.5 143.499 -53.5h77v515c0 4 2 6 6 6h21c4.66699 0 7 -2 7 -6
v-515h81c59.333 0 107.166 17.833 143.499 53.5s54.5 83.834 54.5 144.501v317c0 4 2 6 6 6h22c4 0 6 -2 6 -6v-317c0 -69.333 -21.667 -124.833 -65 -166.5s-98.666 -62.5 -165.999 -62.5h-82v-157c0 -4 -2.33301 -6 -7 -6z" />
    </font>
</defs>
</svg>
